<svg xmlns="http://www.w3.org/2000/svg" xmlns:xlink="http://www.w3.org/1999/xlink" viewBox="0 0 2796.2123 848.99132"><defs><clipPath id="clip-path"><path d="M478.45909,552.47607,450.837,467.4829H322.28526l-27.09082,84.99317H205.95128l135.457-366h90.83594l134.92675,366Zm-133.332-157.23633H427.464l-41.43457-129.083Z" fill="none"/></clipPath></defs><g id="Layer_1" data-name="Layer 1"><path d="M2738.37156,682.92523H2514.45375L2429.554,766.89029l-83.965-83.965H57.84642V57.84638L.00012.00009V739.8368H2321.32857L2429.554,848.99132,2538.71412,739.8368h257.49835l-57.84074-56.91148Z" fill="#221025"/><path d="M0,0,57.8463,57.84633H2738.37156v625.0789l57.84074,56.91149V0H.00012Z" fill="#fb5d3d"/></g><g id="_1ST_RING" data-name="1ST RING"><path d="M478.45929,552.47576,450.83722,467.4826H322.28546l-27.09082,84.99316H205.95148l135.457-366h90.83594l134.92675,366Zm-133.332-157.23633h82.33691l-41.43457-129.083Z" fill="#221025"/><path d="M818.95636,552.47576,735.0257,423.924H718.02765V552.47576H634.62824v-366H784.428c84.99316,0,123.23926,60.55762,123.23926,121.11523,0,51.52637-38.2461,100.92871-85.52344,111.55274l94.02246,133.332ZM718.02765,259.25115v98.80371h53.12012c36.65332,0,52.58984-23.9043,52.58984-48.33984,0-24.43457-16.46777-50.46387-50.46484-50.46387Z" fill="#221025"/><path d="M982.56476,368.67888c0-103.05371,82.86816-188.57714,185.92187-188.57714a186.29964,186.29964,0,0,1,154.04883,81.27441l-64.80664,45.15234c-19.123-29.748-47.27734-47.80859-85.52441-47.80859-61.61914,0-105.709,49.40234-105.709,109.959,0,60.55762,42.4961,111.55274,105.17774,111.55274,38.77832,0,66.93262-18.06055,86.05566-47.80762l64.80664,45.15235a186.30124,186.30124,0,0,1-154.04883,81.27343C1065.43292,558.84978,982.56476,472.7951,982.56476,368.67888Z" fill="#221025"/><path d="M1610.97394,186.47576h83.39941v366h-83.39941V407.98845h-120.583V552.47576h-83.39941v-366h83.39941v146.6123h120.583Z" fill="#221025"/><path d="M1809.1087,552.47576v-366h83.39942v366Z" fill="#221025"/><path d="M2182.54132,186.47576h87.64844l-111.55273,366h-73.8379l-111.55273-366h86.58691l61.61914,231.60547Z" fill="#221025"/><path d="M2433.79328,479.70037H2589.9671v72.77539H2350.39386v-366h234.793v72.77539H2433.79328v75.43066h132.80078V409.5822H2433.79328Z" fill="#221025"/><g clip-path="url(#clip-path)"><polygon points="144.904 112.045 592.753 559.894 592.753 56.332 144.904 112.045" fill="#fb5d3d"/></g></g></svg>