<svg xmlns="http://www.w3.org/2000/svg" xmlns:xlink="http://www.w3.org/1999/xlink" viewBox="0 0 687.24034 848.99132"><defs><clipPath id="clip-path"><path d="M435.51793,552.47607,407.89586,467.4829H279.3441l-27.09082,84.99317H163.01012l135.457-366h90.83594l134.92676,366ZM302.1859,395.23974h82.33692l-41.43458-129.083Z" fill="none"/></clipPath></defs><g id="Layer_1" data-name="Layer 1"><path d="M629.39942,682.92523H428.52l-84.89978,83.96506-83.965-83.965H57.84642V57.84638L.00012.00009V739.8368H235.39484L343.62023,848.99132,452.78039,739.8368H687.24034l-57.84075-56.91148Z" fill="#221025"/><path d="M0,0,57.8463,57.84633H629.39942v625.0789l57.84075,56.91149V0H.00012Z" fill="#fb5d3d"/></g><g id="_1ST_RING" data-name="1ST RING"><path d="M435.51813,552.47576,407.89606,467.4826H279.3443l-27.09082,84.99316H163.01032l135.457-366h90.83594l134.92676,366ZM302.1861,395.23943H384.523l-41.43457-129.083Z" fill="#221025"/><g clip-path="url(#clip-path)"><polygon points="101.963 112.045 549.812 559.894 549.812 56.332 101.963 112.045" fill="#fb5d3d"/></g></g></svg>