<svg xmlns="http://www.w3.org/2000/svg" xmlns:xlink="http://www.w3.org/1999/xlink" viewBox="0 0 800 800"><defs><style type="text/css">
    @import url("https://fonts.googleapis.com/css?family=Rubik:300,300i,400,400i,500,500i,700,700i,900,900i");
  </style><linearGradient id="linear-gradient" x1="297" y1="768.0257" x2="297" y2="304.00001" gradientTransform="matrix(0.81915, 0.57358, -0.57358, 0.81915, 360.93234, -63.37437)" gradientUnits="userSpaceOnUse"><stop offset="0" stop-color="#ece2f0"/><stop offset="0.5" stop-color="#a8bed9"/><stop offset="1" stop-color="#1d8188"/></linearGradient><linearGradient id="linear-gradient-2" x1="495" y1="496.00004" x2="495" y2="31.97435" gradientTransform="matrix(-0.57358, 0.81915, -0.81915, -0.57358, 1044.17184, 242.30449)" gradientUnits="userSpaceOnUse"><stop offset="0" stop-color="#2a62a4"/><stop offset="0.5" stop-color="#4eb6c2"/><stop offset="1" stop-color="#edf6b8"/></linearGradient><linearGradient id="linear-gradient-3" x1="504.334" y1="304.00004" x2="504.334" y2="768.02573" gradientTransform="matrix(-0.81915, -0.57358, 0.57358, -0.81915, 600.34859, 982.91085)" gradientUnits="userSpaceOnUse"><stop offset="0" stop-color="#864899"/><stop offset="0.5" stop-color="#a0bdd8"/><stop offset="1" stop-color="#e1ecf4"/></linearGradient><linearGradient id="linear-gradient-4" x1="297" y1="31.97435" x2="297" y2="496.00004" gradientTransform="matrix(0.57358, -0.81915, 0.81915, 0.57358, -133.59865, 389.65377)" gradientUnits="userSpaceOnUse"><stop offset="0" stop-color="#e7e1ef"/><stop offset="0.5" stop-color="#c797c5"/><stop offset="1" stop-color="#ca1f59"/></linearGradient></defs><g id="FLOWER_-_COLLABORATION" data-name="FLOWER - COLLABORATION"><path d="M478.47723,631.7603C415.75528,721.33652,164.04659,736.351,164.04659,736.351S91.37107,494.20026,154.093,404.624s186.184-111.34592,275.76024-48.624S541.19917,542.18407,478.47723,631.7603Z" fill="url(#linear-gradient)"/><text transform="translate(211.62951 701.60424) rotate(-7.59601)" font-size="24" fill="#231f20" font-family="Rubik-Regular, Rubik">C</text><text transform="translate(227.4176 699.49168) rotate(-8.38405)" font-size="24" fill="#231f20" font-family="Rubik-Regular, Rubik">o</text><text transform="matrix(0.98792, -0.15498, 0.15498, 0.98792, 241.00089, 697.47239)" font-size="24" fill="#231f20" font-family="Rubik-Regular, Rubik">l</text><text transform="translate(246.73929 696.57161) rotate(-9.23992)" font-size="24" fill="#231f20" font-family="Rubik-Regular, Rubik">l</text><text transform="translate(252.45992 695.66008) rotate(-9.78332)" font-size="24" fill="#231f20" font-family="Rubik-Regular, Rubik">a</text><text transform="matrix(0.98293, -0.184, 0.184, 0.98293, 265.45258, 693.42365)" font-size="24" fill="#231f20" font-family="Rubik-Regular, Rubik">b</text><text transform="translate(279.44671 690.80436) rotate(-11.4927)" font-size="24" fill="#231f20" font-family="Rubik-Regular, Rubik">o</text><text transform="translate(292.89919 688.0545) rotate(-12.26714)" font-size="24" fill="#231f20" font-family="Rubik-Regular, Rubik">r</text><text transform="translate(301.56696 686.18698) rotate(-13.05669)" font-size="24" fill="#231f20" font-family="Rubik-Regular, Rubik">a</text><text transform="translate(314.29237 683.22222) rotate(-13.91759)" font-size="24" fill="#231f20" font-family="Rubik-Regular, Rubik">t</text><text transform="translate(323.3529 680.96714) rotate(-14.53724)" font-size="24" fill="#231f20" font-family="Rubik-Regular, Rubik">i</text><text transform="translate(328.93602 679.55132) rotate(-15.38739)" font-size="24" fill="#231f20" font-family="Rubik-Regular, Rubik">o</text><text transform="translate(342.1361 675.92672) rotate(-16.72899)" font-size="24" fill="#231f20" font-family="Rubik-Regular, Rubik">n</text></g><g id="FLOWER_-_VISIBILITY" data-name="FLOWER - VISIBILITY"><path d="M402.576,639.05106c-89.57622-62.72195-111.34592-186.184-48.624-275.76024s186.184-111.34592,275.76024-48.624S734.303,629.09749,734.303,629.09749,492.15225,701.773,402.576,639.05106Z" fill="url(#linear-gradient-2)"/><text transform="translate(547.8554 633.55013) rotate(-4.98895)" font-size="24" fill="#231f20" font-family="Rubik-Regular, Rubik">V</text><text transform="translate(563.45655 632.14881) rotate(-5.90091)" font-size="24" fill="#231f20" font-family="Rubik-Regular, Rubik">i</text><text transform="translate(569.17266 631.57721) rotate(-6.61423)" font-size="24" fill="#231f20" font-family="Rubik-Regular, Rubik">s</text><text transform="translate(581.29583 630.15154) rotate(-7.2905)" font-size="24" fill="#231f20" font-family="Rubik-Regular, Rubik">i</text><text transform="translate(587.0054 629.44723) rotate(-8.00002)" font-size="24" fill="#231f20" font-family="Rubik-Regular, Rubik">b</text><text transform="translate(601.10162 627.44063) rotate(-8.67321)" font-size="24" fill="#231f20" font-family="Rubik-Regular, Rubik">i</text><text transform="translate(606.82886 626.5666) rotate(-9.04807)" font-size="24" fill="#231f20" font-family="Rubik-Regular, Rubik">l</text><text transform="matrix(0.98654, -0.16354, 0.16354, 0.98654, 612.57082, 625.6523)" font-size="24" fill="#231f20" font-family="Rubik-Regular, Rubik">i</text><text transform="translate(618.27114 624.7156) rotate(-9.87319)" font-size="24" fill="#231f20" font-family="Rubik-Regular, Rubik">t</text><text transform="translate(627.45819 623.12739) rotate(-10.53267)" font-size="24" fill="#231f20" font-family="Rubik-Regular, Rubik">y</text></g><g id="FLOWER_-_AGREEMENT" data-name="FLOWER - AGREEMENT"><path d="M312.96566,168.85425c62.72195-89.57622,315.12571-104.104,315.12571-104.104s71.98045,241.66405,9.2585,331.24027-186.184,111.34592-275.76024,48.624S250.24371,258.43048,312.96566,168.85425Z" fill="url(#linear-gradient-3)"/><text transform="translate(450.98906 134.80609) rotate(-15.1907)" font-size="24" fill="#231f20" font-family="Rubik-Regular, Rubik">A</text><text transform="matrix(0.97064, -0.24054, 0.24054, 0.97064, 466.2731, 130.66726)" font-size="24" fill="#231f20" font-family="Rubik-Regular, Rubik">g</text><text transform="matrix(0.97434, -0.22511, 0.22511, 0.97434, 480.13983, 127.25235)" font-size="24" fill="#231f20" font-family="Rubik-Regular, Rubik">r</text><text transform="translate(488.73888 125.24821) rotate(-12.21196)" font-size="24" fill="#231f20" font-family="Rubik-Regular, Rubik">e</text><text transform="translate(501.79442 122.42356) rotate(-11.30652)" font-size="24" fill="#231f20" font-family="Rubik-Regular, Rubik">e</text><text transform="matrix(0.98414, -0.17743, 0.17743, 0.98414, 514.89185, 119.76902)" font-size="24" fill="#231f20" font-family="Rubik-Regular, Rubik">m</text><text transform="matrix(0.98711, -0.16005, 0.16005, 0.98711, 535.84091, 116.0285)" font-size="24" fill="#231f20" font-family="Rubik-Regular, Rubik">e</text><text transform="translate(549.05854 113.88131) rotate(-8.43977)" font-size="24" fill="#231f20" font-family="Rubik-Regular, Rubik">n</text><text transform="translate(563.22288 111.79427) rotate(-7.81247)" font-size="24" fill="#231f20" font-family="Rubik-Regular, Rubik">t</text></g><g id="FLOWER_-_DATA" data-name="FLOWER - DATA"><path d="M394.429,155.09931c89.57623,62.72195,111.34592,186.184,48.624,275.76024s-186.184,111.34592-275.76023,48.624-104.104-315.1257-104.104-315.1257S304.85281,92.37737,394.429,155.09931Z" fill="url(#linear-gradient-4)"/><text transform="translate(184.86714 178.20477) rotate(-8.68696)" font-size="24" fill="#231f20" font-family="Rubik-Regular, Rubik">D</text><text transform="matrix(0.99102, -0.13375, 0.13375, 0.99102, 201.14457, 175.72927)" font-size="24" fill="#231f20" font-family="Rubik-Regular, Rubik">a</text><text transform="translate(214.11221 173.99207) rotate(-6.87702)" font-size="24" fill="#231f20" font-family="Rubik-Regular, Rubik">t</text><text transform="translate(223.3599 172.86023) rotate(-6.00224)" font-size="24" fill="#231f20" font-family="Rubik-Regular, Rubik">a</text></g><g id="FLOWER_-_VISION" data-name="FLOWER - VISION"><circle cx="399.00016" cy="400.00005" r="96" fill="#fcd783"/><text transform="translate(363.03215 409.43196)" font-size="24" fill="#231f20" font-family="Rubik-Bold, Rubik" font-weight="700">Vision</text></g><g id="FLOWER_-_BEES" data-name="FLOWER - BEES"><text transform="translate(37.83485 453.63055) rotate(-95.00027)" font-size="16" fill="#231f20" font-family="Rubik-Bold, Rubik" font-weight="700">CIVIC</text><text transform="translate(750.91657 240.67838) rotate(84.99973)" font-size="16" fill="#231f20" font-family="Rubik-Bold, Rubik" font-weight="700">SOCIA<tspan x="49.87109" y="0" letter-spacing="-0.02301em">L</tspan><tspan x="59.05469" y="0" xml:space="preserve"> JU</tspan><tspan x="84.79883" y="0" letter-spacing="-0.00696em">S</tspan><tspan x="95.29492" y="0">TICE O</tspan><tspan x="146.81445" y="0" letter-spacing="-0.00299em">R</tspan><tspan x="157.82227" y="0" letter-spacing="-0.01599em">G</tspan><tspan x="169.08594" y="0">ANIZ</tspan><tspan x="207.62988" y="0" letter-spacing="-0.07104em">A</tspan><tspan x="217.94922" y="0">TION</tspan></text><text transform="translate(289.6458 43.71156) rotate(-5.00027)" font-size="16" fill="#231f20" font-family="Rubik-Bold, Rubik" font-weight="700"><tspan letter-spacing="-0.01501em">D</tspan><tspan x="11.21582" y="0" letter-spacing="-0.07098em">AT</tspan><tspan x="30.47949" y="0" letter-spacing="-0.02502em">A</tspan><tspan x="41.53516" y="0" xml:space="preserve"> G</tspan><tspan x="56.46289" y="0" letter-spacing="-0.02197em">O</tspan><tspan x="67.50293" y="0">VERNANCE</tspan></text><path d="M364.85732,84.4281l-.27592.01943-.29639-.01289-.0468.00292c-.04721-.00175-.29209-.03091-.34564-.038l-.022-.00983-.16416-.02093-.0126-.00949-.28606-.05614c-.0865-.02066-.16951-.04163-.25662-.0693l-.21689-.08572-.03163.00159c-.03528-.01338-.22536-.08851-.28649-.11492l-.09268-.07777-.1659-.04077c-.07129-.03494-.21691-.11277-.21691-.11277l-.45835-.27752c-.04423-.03495-.33189-.24388-.33189-.24388-.08943-.06746-.18012-.136-.27026-.21162l-.30592-.26968c-.10766-.10116-.19913-.192-.28709-.28308-.15414-.1618-.23058-.24216-.2965-.32344l-.22115-.26886-.09982-.13243-.20792-.31942-.15166-.26788a3.77461,3.77461,0,0,1-.3782-2.38667l.03258-.19224a4.76392,4.76392,0,0,1,.40762-1.12261l.64737-1.273-1.36585-.4181a13.81971,13.81971,0,0,1-2.76548-1.14144l-.06925-.03864-.07321-.03007a19.74552,19.74552,0,0,1-2.31075-1.67176c-.00528-.0066-.07339-.07239-.16866-.1664a36.26377,36.26377,0,0,1-3.408-3.56381l-.00946-.12151a34.07975,34.07975,0,0,1,2.69349-4.06467c.11844-.16564.17515-.24354.20041-.27751a20.43023,20.43023,0,0,1,1.89777-1.97291l.12081-.08468a13.82609,13.82609,0,0,1,2.59812-1.65892l1.26453-.64588-.84661-1.13875a4.72228,4.72228,0,0,1-.60109-1.04847l-.0431-.11622a3.84555,3.84555,0,0,1-.04768-2.52145l.14431-.38083.10383-.23847.13829-.26149.02237-.02666.108-.20472c.01663-.025.22032-.33218.22032-.33218.03956-.05875.21927-.30386.21927-.30386.061-.083.12118-.16118.18733-.23872.14275-.17012.219-.25325.29652-.33532.06569-.06927.09689-.10259.12992-.14194.0346-.03479.25737-.24485.25737-.24485.076-.07253.23273-.20387.23273-.20387s.19173-.16147.23917-.19738l.08638-.03461.10664-.09874c.05658-.03906.27518-.17582.3176-.20188l.02685-.00235.18871-.11533.279-.13263.05014-.0185.04719-.0253c.04984-.022.17072-.06552.17072-.06552l.133-.03987.02446-.01625c.03547-.01134.19362-.05929.19362-.05929l.30964-.07767c.05755-.01445.11658-.0255.17231-.0339l.15678-.02313.026-.01169c.02791-.00362.41539-.03869.41539-.03869l.24532-.00617c.09847-.00391.16573-.00156.233.00079,0,0,.17207.00376.209.00877l.391.04578.39231.0739.27678.07107.40944.12181.3927.14563.551.23411c.27021.13047.54124.27027.80735.42109l.08916.051a19.74335,19.74335,0,0,1,4.41414,3.72987l.01185.13542.32489.24449.49785.58108c.31658.37815.61947.761.90889,1.138l.20923.28049c.11175.14785.22213.29347.3255.43971,0,0,.35385.49487.4553.646l.38171.57125.01854.03719.07858.10488.21262.34607.31895.05562c.30919.11881.613.244.91783.37965l.54229.24194.52211-.28448a1.50494,1.50494,0,0,1,.60035-.17016l.12161-.00829.0159.00685.32388-.02246a5.52853,5.52853,0,0,1,3.66351,1.32168,5.944,5.944,0,0,1,.58266.569l.48981.543.70714-.18656a8.35183,8.35183,0,0,0,5.65862-5.10519.27779.27779,0,0,1,.23091-.17078c.196.04873.23792.11094.25845.15738a.25458.25458,0,0,1,.00823.20161,8.99247,8.99247,0,0,1-2.52978,3.59628,8.79783,8.79783,0,0,1-2.86279,1.64561l-1.062.36583s.37757,1.38447.404,1.49861l.03714.15556a1.03749,1.03749,0,0,0,.02012.13587c.02772.20932.04347.32205.05347.43646s.02662.50585.02662.50585l-.00557.13812c-.00963.21259-.02018.32056-.03063.4297l-.10671,1.11981,1.10177.26357a8.89757,8.89757,0,0,1,6.22312,4.22448.26451.26451,0,0,1-.20369.40131.26465.26465,0,0,1-.25113-.12743,8.45455,8.45455,0,0,0-2.92529-2.91434,8.29481,8.29481,0,0,0-3.52737-1.13713l-.734-.06636-.39117.62475a5.73933,5.73933,0,0,1-.47289.659,5.64862,5.64862,0,0,1-3.45849,1.94947l-.16591.02628c-.06868.00836-.13045.01494-.19115.02025a1.5345,1.5345,0,0,1-.64423-.06245l-.5551-.1867-.48829.32151c-.28253.18588-.564.37049-.85339.54521l-.34637.20911-.14357.349-.03771.10682-.55294,1.20944-.43424.872c-.23559.45351-.46921.8892-.71852,1.32038,0,0-.28237.48348-.40485.68359l-.25557.30586.00752.09933a19.70038,19.70038,0,0,1-3.68951,4.43179l-.09107.075c-.23375.1922-.47247.3813-.71314.54822l-.5509.35876-.34943.20114c-.08174.04715-.16878.0877-.25571.12942-.08926.04192-.13793.06383-.184.089l-.29069.11954c-.06014.02526-.34971.13058-.34971.13058-.03568.009-.12957.03839-.2261.06448l-.14176.03358-.08055.00705-.04994.02084c-.05882.01338-.12571.02864-.18961.03776,0,0-.477.06055-.56182.07268Zm-3.48343-8.55434q-.22905.24589-.43307.49549a7.5525,7.5525,0,0,0-.69538,1.00662,4.62269,4.62269,0,0,0-.56,1.42415,3.19319,3.19319,0,0,0,.12883,1.74149,4.73809,4.73809,0,0,0,1.31408,1.8566,5.00841,5.00841,0,0,0,3.36875,1.51568c.14715.00124.29136-.00432.43845-.01719a4.929,4.929,0,0,0,.78579-.13462,9.75551,9.75551,0,0,0,4.6961-3.50819,29.59727,29.59727,0,0,0,4.82061-8.875,4.96654,4.96654,0,0,0,.01345-1.93039l-.16835-1.60158-1.48683.61944c-1.17467.48979-2.31537,1.00484-3.3881,1.53042-2.29242,1.11929-6.266,3.25852-8.61005,5.64337l-1.30479-14.91373c2.55839,1.82655,6.48145,3.19727,9.46591,4.0584,1.24415.35816,2.458.666,3.60695.91725l1.56515.343-.1116-1.59831a5.11059,5.11059,0,0,0-.32254-1.84453,29.46924,29.46924,0,0,0-6.31432-7.95612,9.70344,9.70344,0,0,0-5.21983-2.63948,4.6097,4.6097,0,0,0-.82-.00119c-.14243.01246-.282.03055-.42087.05682a5.0044,5.0044,0,0,0-3.05905,2.078,4.726,4.726,0,0,0-.978,2.06537,3.17542,3.17542,0,0,0,.17482,1.72923,4.71291,4.71291,0,0,0,.885,1.41654,7.42163,7.42163,0,0,0,.76047.75926q.24612.2114.51635.416l-1.267.52375q-.11061.04672-.2209.097l-.07355.00644-.18765.11405a16.05391,16.05391,0,0,0-2.40038,1.41812l-.56875.39678.97059,11.094.63252.29169a16.68089,16.68089,0,0,0,2.60275.97569l.19866.07908.07716-.00557c.08787.0229.16483.042.24042.059Zm.65621-1.46786,1.71805-1.25726c.61583-.45031,1.324-.92046,2.16576-1.43759l.63186-.38818-.63079-7.21-.68966-.27257c-.85294-.3371-1.6565-.68793-2.38864-1.04266l-1.9029-.92282Zm-9.118-8.78131a22.81568,22.81568,0,0,0-1.85534,2.72677l-.422.72979.5422.64426a23.85721,23.85721,0,0,0,2.29675,2.3588l2.26012,2.02086L354.785,63.25978Zm23.45689-3.585c-.67024.75621-.99432,2.7126-.80557,4.87s.84773,4.02894,1.6391,4.65728l.37425.29782.544-.0476s.27727-.04426.37569-.06228l.0607-.00531s.31751-.08189.36923-.09582l.077-.00674.22014-.0922c.02868-.00839.18027-.064.18027-.064.04207-.01662.39355-.16736.39355-.16736l.01385-.0165a4.99265,4.99265,0,0,0,1.33172-.967,4.45388,4.45388,0,0,0,.345-.38661A5.06722,5.06722,0,0,0,382.621,67.065l.03-.07438-.02083-.3052a3.33541,3.33541,0,0,0-.0167-.39262c-.01573-.17978-.03881-.34951-.06692-.50939l-.0453-.24895-.019-.02892a5.04343,5.04343,0,0,0-1.63819-2.64346,3.47513,3.47513,0,0,0-.39142-.30572l.10085.077a5.26272,5.26272,0,0,0-1.55548-.78382l-.18155-.15233-.30733.02336c-.09108-.01909-.18408-.0333-.278-.04508l-.126-.01486c-.12493-.01612-.22792-.02358-.327-.02668l-.0871-.00061c-.16507-.00438-.27426-.00189-.38217.00167l-.14664.0046-.47631.04167Zm-9.31588,8.97773,1.59214-.82746c.73592-.382,1.44647-.73119,2.12115-1.04666l.84574-.32338-.0409-.92457-.18037-2.06165-.75213-.24711a2.1305,2.1305,0,0,0-.29384-.07781c-.608-.17267-1.37625-.389-2.16147-.63787l-1.71566-.54395Z" stroke="#000" stroke-miterlimit="10" stroke-width="1.2"/><path d="M714.57192,365.85734l-.01944-.27592.01289-.29639-.00291-.0468c.00175-.0472.03091-.29208.038-.34564l.00984-.022.02093-.16417.00948-.01259.05614-.28606c.02067-.08651.04164-.16951.06931-.25663l.08572-.21689-.00159-.03162c.01338-.03529.0885-.22537.11492-.2865l.07776-.09268.04078-.1659c.03493-.07129.11277-.2169.11277-.2169l.27752-.45836c.03495-.04423.24387-.33189.24387-.33189.06747-.08942.136-.18012.21163-.27026l.26967-.30591c.10116-.10767.192-.19913.28309-.2871.16179-.15414.24215-.23057.32344-.2965l.26885-.22115.13243-.09981.31943-.20793.26788-.15166a3.77466,3.77466,0,0,1,2.38666-.3782l.19225.03259a4.764,4.764,0,0,1,1.12261.40761l1.273.64738.4181-1.36586a13.81942,13.81942,0,0,1,1.14144-2.76547l.03864-.06926.03006-.07321a19.74526,19.74526,0,0,1,1.67177-2.31075c.00659-.00528.07239-.07338.1664-.16866a36.26356,36.26356,0,0,1,3.5638-3.408l.12152-.00945a34.07853,34.07853,0,0,1,4.06467,2.69349c.16564.11843.24354.17514.27751.2004a20.43023,20.43023,0,0,1,1.97291,1.89777l.08468.12082a13.82625,13.82625,0,0,1,1.65892,2.59811l.64587,1.26454,1.13875-.84661a4.722,4.722,0,0,1,1.04848-.60109l.11622-.04311a3.84555,3.84555,0,0,1,2.52145-.04767l.38082.14431.23848.10383.26148.13828.02666.02237.20472.108c.025.01664.33219.22032.33219.22032.05875.03957.30386.21928.30386.21928.083.061.16117.12118.23872.18733.17012.14274.25325.219.33532.29651.06927.0657.10259.0969.14194.12992.03479.0346.24485.25737.24485.25737.07252.076.20387.23273.20387.23273s.16147.19173.19738.23918l.03461.08637.09873.10664c.03907.05658.17583.27518.20189.3176l.00235.02685.11532.18872.13263.279.01851.05014.0253.04719c.022.04984.06552.17073.06552.17073l.03986.133.01626.02446c.01134.03548.05929.19362.05929.19362l.07767.30964c.01445.05756.02549.11658.0339.17231l.02313.15679.01168.026c.00362.02792.0387.4154.0387.4154l.00617.24531c.00391.09847.00156.16573-.00079.233,0,0-.00377.17208-.00877.209l-.04579.391-.0739.39231-.07107.27677-.12181.40944-.14562.39271-.23412.551c-.13046.27021-.27026.54124-.42108.80735l-.051.08916a19.74336,19.74336,0,0,1-3.72986,4.41415l-.13542.01184-.24449.32489-.58109.49785c-.37814.31659-.761.61947-1.138.9089l-.28049.20922c-.14786.11175-.29348.22213-.43971.3255,0,0-.49487.35385-.646.4553l-.57125.38171-.0372.01855-.10488.07858-.34606.21261-.05562.31895c-.11882.30919-.244.613-.37965.91783l-.24194.54229.28448.52212a1.50484,1.50484,0,0,1,.17015.60034l.00829.12162-.00684.01589.02245.32388a5.52845,5.52845,0,0,1-1.32167,3.66351,5.9453,5.9453,0,0,1-.569.58267l-.543.48981.18656.70713a8.35177,8.35177,0,0,0,5.10519,5.65862.27778.27778,0,0,1,.17077.23092c-.04873.196-.11093.23791-.15737.25845a.25463.25463,0,0,1-.20161.00822,8.9923,8.9923,0,0,1-3.59628-2.52978,8.79778,8.79778,0,0,1-1.64561-2.86278l-.36583-1.062s-1.38447.37757-1.49862.404l-.15555.03714a1.03776,1.03776,0,0,0-.13588.02012c-.20931.02772-.322.04347-.43645.05348s-.50586.02661-.50586.02661l-.13812-.00556c-.21258-.00964-.32055-.02019-.42969-.03064l-1.11981-.10671-.26357,1.10177a8.89757,8.89757,0,0,1-4.22448,6.22312.2645.2645,0,0,1-.40131-.20369.26459.26459,0,0,1,.12743-.25112,8.45455,8.45455,0,0,0,2.91433-2.92529,8.29457,8.29457,0,0,0,1.13713-3.52738l.06636-.734-.62475-.39118a5.73879,5.73879,0,0,1-.659-.47288,5.6486,5.6486,0,0,1-1.94947-3.45849l-.02628-.16592c-.00836-.06867-.01495-.13045-.02026-.19115a1.53476,1.53476,0,0,1,.06245-.64422l.18671-.55511-.32152-.48829c-.18588-.28253-.37048-.564-.5452-.85338l-.20911-.34638-.349-.14356-.10681-.03771-1.20944-.553-.872-.43424c-.45351-.23559-.8892-.46921-1.32038-.71852,0,0-.48349-.28237-.68359-.40485l-.30586-.25556-.09934.00751a19.70078,19.70078,0,0,1-4.43178-3.6895l-.075-.09108c-.1922-.23374-.3813-.47247-.54823-.71313l-.35875-.55091-.20114-.34942c-.04715-.08175-.0877-.16878-.12942-.25571-.04193-.08927-.06383-.13793-.089-.184l-.11954-.29069c-.02526-.06013-.13059-.34971-.13059-.34971-.009-.03568-.03839-.12957-.06448-.2261l-.03357-.14175-.00705-.08056-.02084-.04993c-.01338-.05883-.02864-.12572-.03776-.18962,0,0-.06056-.477-.07268-.56182Zm8.55434-3.48342q-.2459-.229-.49549-.43308a7.55345,7.55345,0,0,0-1.00662-.69538,4.62265,4.62265,0,0,0-1.42416-.56,3.19311,3.19311,0,0,0-1.74149.12884,4.73789,4.73789,0,0,0-1.8566,1.31408,5.00834,5.00834,0,0,0-1.51567,3.36874c-.00124.14716.00431.29136.01718.43846a4.93,4.93,0,0,0,.13463.78578,9.75555,9.75555,0,0,0,3.50818,4.6961,29.59755,29.59755,0,0,0,8.875,4.82062,4.967,4.967,0,0,0,1.9304.01344l1.60157-.16835-.61944-1.48682c-.48979-1.17468-1.00484-2.31538-1.53041-3.38811-1.11929-2.29242-3.25852-6.266-5.64338-8.61005l14.91374-1.30478c-1.82655,2.55838-3.19727,6.48145-4.0584,9.4659-.35817,1.24416-.666,2.458-.91725,3.60695l-.343,1.56515,1.59831-.1116a5.111,5.111,0,0,0,1.84453-.32253,29.46925,29.46925,0,0,0,7.95612-6.31433,9.70351,9.70351,0,0,0,2.63948-5.21983,4.61064,4.61064,0,0,0,.00119-.82c-.01246-.14243-.03055-.282-.05682-.42087a5.00433,5.00433,0,0,0-2.078-3.059,4.7259,4.7259,0,0,0-2.06536-.978,3.17537,3.17537,0,0,0-1.72924.17481,4.71308,4.71308,0,0,0-1.41653.885,7.42183,7.42183,0,0,0-.75927.76048q-.21138.24612-.41595.51634l-.52375-1.267q-.04673-.11059-.097-.2209l-.00644-.07355-.11405-.18765a16.05441,16.05441,0,0,0-1.41812-2.40038l-.39679-.56875-11.094.97059-.29168.63252a16.68118,16.68118,0,0,0-.9757,2.60275l-.07908.19867.00558.07715c-.0229.08788-.04205.16484-.059.24043Zm1.46786.6562,1.25725,1.71806c.45031.61583.92047,1.324,1.43759,2.16576l.38819.63185,7.21-.63079.27257-.68966c.3371-.85294.68793-1.6565,1.04266-2.38864l.92282-1.9029Zm8.7813-9.118a22.81562,22.81562,0,0,0-2.72676-1.85535l-.72979-.422-.64426.5422a23.85577,23.85577,0,0,0-2.3588,2.29674l-2.02087,2.26012,10.84529-.94884Zm3.585,23.45688c-.75621-.67023-2.71261-.99432-4.87-.80557s-4.029.84773-4.65729,1.6391l-.29781.37426.0476.544s.04425.27728.06227.37569l.00531.06071s.08189.3175.09583.36922l.00674.077.09219.22015c.0084.02867.064.18026.064.18026.01662.04207.16736.39355.16736.39355l.0165.01385a4.99266,4.99266,0,0,0,.967,1.33173,4.45726,4.45726,0,0,0,.38662.345,5.06728,5.06728,0,0,0,2.88826,1.133l.07437.03.30521-.02082a3.33844,3.33844,0,0,0,.39262-.01671c.17978-.01573.34951-.03881.50938-.06691l.249-.04531.02892-.019a5.04328,5.04328,0,0,0,2.64345-1.63819,3.475,3.475,0,0,0,.30572-.39141l-.077.10085a5.26265,5.26265,0,0,0,.78382-1.55549l.15234-.18154-.02336-.30734c.01909-.09107.0333-.18407.04508-.278l.01485-.126c.01613-.12493.02359-.22792.02668-.327l.00062-.08711c.00438-.16507.00188-.27425-.00168-.38217l-.00459-.14664-.04167-.4763Zm-8.97774-9.31588.82747,1.59215c.382.73591.73119,1.44646,1.04666,2.12114l.32338.84574.92456-.04089,2.06166-.18038.24711-.75213a2.13013,2.13013,0,0,0,.07781-.29384c.17266-.608.389-1.37624.63787-2.16147l.54394-1.71566Z" stroke="#000" stroke-miterlimit="10" stroke-width="1.2"/><path d="M433.14267,715.57194l.27592-.01943.29639.01289.0468-.00292c.04721.00175.29209.03091.34565.038l.022.00983.16417.02093.01259.00949.28606.05614c.08651.02066.16951.04163.25663.0693l.21689.08572.03162-.00159c.03528.01338.22537.08851.2865.11492l.09267.07777.16591.04077c.07128.03494.2169.11277.2169.11277l.45835.27752c.04423.035.3319.24388.3319.24388.08942.06746.18011.136.27025.21162l.30592.26968c.10766.10116.19913.192.28709.28308.15414.1618.23058.24216.29651.32344l.22115.26886.09981.13243.20793.31942.15166.26788a3.77468,3.77468,0,0,1,.3782,2.38667l-.03259.19224a4.76392,4.76392,0,0,1-.40762,1.12261l-.64737,1.273,1.36585.4181a13.81948,13.81948,0,0,1,2.76548,1.14144l.06926.03864.07321.03007a19.74623,19.74623,0,0,1,2.31074,1.67176c.00529.0066.07339.07239.16866.1664a36.26144,36.26144,0,0,1,3.40795,3.56381l.00946.12151a34.07975,34.07975,0,0,1-2.69349,4.06467c-.11844.16564-.17515.24354-.20041.27751a20.429,20.429,0,0,1-1.89777,1.97291l-.12081.08468a13.82605,13.82605,0,0,1-2.59811,1.65892l-1.26454.64588.84661,1.13875a4.72228,4.72228,0,0,1,.60109,1.04847l.04311.11622a3.84555,3.84555,0,0,1,.04767,2.52145l-.14431.38083-.10383.23847-.13828.26149-.02237.02666-.108.20472c-.01664.025-.22033.33218-.22033.33218-.03956.05875-.21927.30386-.21927.30386-.061.083-.12118.16118-.18733.23872-.14275.17012-.219.25325-.29651.33532-.0657.06927-.0969.10259-.12992.14194-.0346.03479-.25738.24485-.25738.24485-.076.07253-.23272.20387-.23272.20387s-.19174.16147-.23918.19738l-.08637.03461-.10665.09874c-.05657.03906-.27517.17582-.3176.20188l-.02685.00235-.18871.11533-.279.13263-.05015.0185-.04719.0253c-.04983.022-.17072.06552-.17072.06552l-.133.03987-.02446.01625c-.03547.01134-.19361.05929-.19361.05929l-.30964.07767c-.05756.01445-.11659.0255-.17232.0339l-.15678.02313-.026.01169c-.02792.00362-.4154.03869-.4154.03869l-.24532.00617c-.09847.00391-.16573.00156-.233-.00079,0,0-.17208-.00376-.209-.00877l-.391-.04578-.39231-.0739-.27678-.07107-.40944-.12181-.3927-.14563-.551-.23411c-.27021-.13047-.54124-.27027-.80735-.42109l-.08916-.051a19.74335,19.74335,0,0,1-4.41414-3.72987l-.01185-.13542-.32489-.24449-.49785-.58108c-.31658-.37815-.61946-.761-.90889-1.138l-.20923-.28049c-.11175-.14785-.22212-.29347-.3255-.43971,0,0-.35385-.49487-.45529-.646l-.38171-.57125-.01855-.03719-.07858-.10488-.21261-.34607-.31895-.05562c-.30919-.11881-.613-.244-.91784-.37965l-.54229-.24194-.52211.28448a1.5049,1.5049,0,0,1-.60035.17016l-.12161.00829-.01589-.00685-.32389.02246a5.52851,5.52851,0,0,1-3.6635-1.32168,5.94305,5.94305,0,0,1-.58267-.569l-.48981-.543-.70714.18656a8.35179,8.35179,0,0,0-5.65861,5.10519.27777.27777,0,0,1-.23092.17077c-.196-.04872-.23792-.11093-.25845-.15737a.25458.25458,0,0,1-.00823-.20161,8.99241,8.99241,0,0,1,2.52979-3.59628,8.79768,8.79768,0,0,1,2.86278-1.64561l1.062-.36583s-.37757-1.38447-.404-1.49861l-.03713-.15556a1.03948,1.03948,0,0,0-.02012-.13587c-.02773-.20932-.04347-.32205-.05348-.43646s-.02661-.50585-.02661-.50585l.00556-.13812c.00963-.21259.02018-.32056.03063-.4297l.10672-1.11981-1.10178-.26357a8.89758,8.89758,0,0,1-6.22311-4.22448.2645.2645,0,0,1,.20369-.40131.26463.26463,0,0,1,.25112.12743,8.45455,8.45455,0,0,0,2.92529,2.91434,8.29485,8.29485,0,0,0,3.52737,1.13713l.734.06636.39118-.62475a5.738,5.738,0,0,1,.47288-.659,5.64865,5.64865,0,0,1,3.45849-1.94947l.16592-.02628c.06867-.00836.13044-.01494.19115-.02025a1.53443,1.53443,0,0,1,.64422.06245l.5551.1867.48829-.32151c.28253-.18588.564-.37049.85339-.54521l.34637-.20911.14357-.349.03771-.10682.55294-1.20944.43425-.872c.23559-.45351.46921-.8892.71851-1.32038,0,0,.28238-.48348.40485-.68359l.25557-.30586-.00751-.09933a19.7001,19.7001,0,0,1,3.6895-4.43179l.09107-.075c.23375-.1922.47247-.3813.71314-.54822l.55091-.35876.34942-.20114c.08175-.04715.16878-.0877.25571-.12942.08926-.04192.13793-.06383.18395-.089l.29069-.11954c.06014-.02526.34972-.13058.34972-.13058.03568-.009.12957-.03839.2261-.06449l.14175-.03357.08055-.00705.04994-.02084c.05882-.01338.12572-.02864.18962-.03776,0,0,.477-.06055.56182-.07268Zm3.48343,8.55434q.229-.24589.43307-.49549a7.55156,7.55156,0,0,0,.69538-1.00662,4.62269,4.62269,0,0,0,.56-1.42415,3.19319,3.19319,0,0,0-.12883-1.74149,4.738,4.738,0,0,0-1.31408-1.8566,5.00841,5.00841,0,0,0-3.36875-1.51568c-.14715-.00124-.29135.00432-.43845.01719a4.92917,4.92917,0,0,0-.78579.13462,9.75545,9.75545,0,0,0-4.69609,3.50819,29.59755,29.59755,0,0,0-4.82062,8.875,4.967,4.967,0,0,0-.01345,1.93039l.16836,1.60158,1.48682-.61944c1.17467-.48979,2.31538-1.00484,3.3881-1.53042,2.29242-1.11929,6.266-3.25852,8.61006-5.64337l1.30478,14.91373c-2.55838-1.82655-6.48145-3.19727-9.46591-4.0584-1.24415-.35816-2.458-.666-3.607-.91725l-1.56515-.343.1116,1.59831a5.11086,5.11086,0,0,0,.32254,1.84453,29.4691,29.4691,0,0,0,6.31433,7.95612,9.70341,9.70341,0,0,0,5.21983,2.63948,4.6097,4.6097,0,0,0,.82.00119c.14242-.01246.282-.03055.42087-.05682a5.00438,5.00438,0,0,0,3.059-2.078,4.72593,4.72593,0,0,0,.978-2.06537,3.17533,3.17533,0,0,0-.17482-1.72923,4.71291,4.71291,0,0,0-.885-1.41654,7.42163,7.42163,0,0,0-.76047-.75926q-.24612-.2114-.51634-.416l1.267-.52375q.11061-.04673.22091-.097l.07354-.00644.18765-.11405a16.05341,16.05341,0,0,0,2.40038-1.41812l.56876-.39678-.9706-11.09395-.63251-.29169a16.68236,16.68236,0,0,0-2.60276-.9757l-.19866-.07908-.07715.00558c-.08788-.0229-.16484-.042-.24043-.059Zm-.65621,1.46786-1.71805,1.25726c-.61583.45031-1.324.92046-2.16576,1.43759l-.63185.38818.63079,7.21.68966.27257c.85294.3371,1.65649.68793,2.38863,1.04266l1.90291.92282Zm9.118,8.78131a22.81568,22.81568,0,0,0,1.85534-2.72677l.422-.72979-.5422-.64426a23.85687,23.85687,0,0,0-2.29674-2.3588l-2.26012-2.02086.94884,10.84529Zm-23.45688,3.585c.67023-.75621.99431-2.7126.80557-4.87s-.84774-4.02894-1.6391-4.65728l-.37426-.29782-.544.0476s-.27728.04426-.37569.06228l-.06071.00531s-.31751.08189-.36922.09582l-.077.00674-.22015.0922c-.02868.00839-.18026.064-.18026.064-.04208.01662-.39356.16736-.39356.16736l-.01385.0165a4.99281,4.99281,0,0,0-1.33172.967,4.45719,4.45719,0,0,0-.345.38661,5.06728,5.06728,0,0,0-1.133,2.88826l-.03.07438.02082.3052a3.33541,3.33541,0,0,0,.0167.39262c.01573.17978.03882.34951.06692.50939l.04531.249.019.02892A5.04328,5.04328,0,0,0,417.156,737.138a3.474,3.474,0,0,0,.39142.30573l-.10085-.077a5.26272,5.26272,0,0,0,1.55548.78382l.18155.15233.30734-.02336c.09107.01909.18407.0333.278.04508l.126.01486c.12493.01612.22793.02358.327.02668l.0871.00061c.16508.00438.27426.00189.38217-.00167l.14664-.0046.47631-.04167Zm9.31587-8.97773-1.59214.82746c-.73591.382-1.44646.73119-2.12115,1.04666l-.84573.32338.04089.92457.18037,2.06165.75214.24711a2.13,2.13,0,0,0,.29383.07781c.608.17267,1.37625.389,2.16148.63787l1.71565.54395Z" stroke="#000" stroke-miterlimit="10" stroke-width="1.2"/><path d="M83.42807,434.1427l.01944.27592-.01289.29639.00292.0468c-.00175.0472-.03091.29208-.038.34564l-.00984.022-.02092.16417-.00949.01259-.05614.28606c-.02066.08651-.04164.16951-.0693.25663l-.08572.21689.00159.03162c-.01339.03529-.08851.22537-.11492.2865l-.07777.09268-.04077.1659c-.03494.07129-.11278.2169-.11278.2169l-.27751.45836c-.035.04423-.24388.33189-.24388.33189-.06746.08942-.136.18012-.21163.27026l-.26967.30591c-.10116.10767-.192.19913-.28309.2871-.16179.15414-.24215.23057-.32343.2965l-.26886.22115-.13243.09981-.31942.20793-.26788.15166a3.77469,3.77469,0,0,1-2.38667.3782l-.19224-.03259a4.76388,4.76388,0,0,1-1.12261-.40761l-1.273-.64738-.41809,1.36586a13.81893,13.81893,0,0,1-1.14145,2.76547l-.03864.06926-.03006.07321a19.74636,19.74636,0,0,1-1.67176,2.31075c-.0066.00528-.0724.07338-.16641.16866a36.26243,36.26243,0,0,1-3.5638,3.408l-.12151.00945a34.07874,34.07874,0,0,1-4.06468-2.69349c-.16564-.11843-.24353-.17514-.2775-.2004a20.43023,20.43023,0,0,1-1.97291-1.89777l-.08468-.12082a13.82584,13.82584,0,0,1-1.65893-2.59811l-.64587-1.26454-1.13875.84661a4.722,4.722,0,0,1-1.04848.60109l-.11621.04311a3.84558,3.84558,0,0,1-2.52146.04767l-.38082-.14431-.23847-.10383-.26149-.13828-.02666-.02237-.20472-.108c-.025-.01664-.33218-.22032-.33218-.22032-.05875-.03957-.30386-.21928-.30386-.21928-.083-.061-.16118-.12118-.23872-.18733-.17012-.14274-.25326-.219-.33533-.29651-.06927-.0657-.10258-.0969-.14194-.12992-.03479-.0346-.24485-.25737-.24485-.25737-.07252-.076-.20387-.23273-.20387-.23273s-.16146-.19173-.19738-.23918l-.03461-.08637-.09873-.10664c-.03907-.05658-.17583-.27518-.20189-.3176l-.00235-.02685-.11532-.18872-.13263-.279-.0185-.05014-.02531-.0472c-.022-.04983-.06552-.17072-.06552-.17072l-.03986-.133-.01626-.02446c-.01134-.03548-.05928-.19362-.05928-.19362l-.07768-.30964c-.01444-.05756-.02549-.11658-.0339-.17231l-.02312-.15679-.01169-.026c-.00362-.02792-.0387-.4154-.0387-.4154l-.00617-.24531c-.00391-.09847-.00156-.16573.00079-.233,0,0,.00377-.17208.00878-.209l.04578-.391.0739-.39231.07107-.27677.12181-.40944.14562-.39271.23412-.551c.13046-.27021.27026-.54124.42108-.80735l.051-.08916a19.74336,19.74336,0,0,1,3.72986-4.41415l.13543-.01184.24448-.32489.58109-.49785c.37814-.31659.761-.61947,1.138-.9089l.28048-.20922c.14786-.11175.29348-.22213.43972-.3255,0,0,.49487-.35385.646-.4553l.57125-.38171.0372-.01855.10488-.07858.34607-.21261.05561-.31895c.11882-.30919.244-.61305.37966-.91783l.24194-.54229-.28448-.52212a1.50468,1.50468,0,0,1-.17016-.60034l-.00829-.12162.00685-.01589-.02246-.32388a5.52856,5.52856,0,0,1,1.32167-3.66351,5.9453,5.9453,0,0,1,.569-.58267l.543-.48981-.18656-.70713A8.35179,8.35179,0,0,0,57.20712,410.41a.27777.27777,0,0,1-.17078-.23092c.04873-.196.11094-.23791.15737-.25845a.25463.25463,0,0,1,.20161-.00822,8.99223,8.99223,0,0,1,3.59628,2.52978,8.79781,8.79781,0,0,1,1.64562,2.86278l.36582,1.062s1.38447-.37757,1.49862-.404l.15556-.03714a1.03773,1.03773,0,0,0,.13587-.02012c.20932-.02772.322-.04347.43645-.05348s.50586-.02661.50586-.02661l.13812.00556c.21258.00964.32056.02019.42969.03064l1.11982.10671.26357-1.10177a8.89751,8.89751,0,0,1,4.22447-6.22312.2645.2645,0,0,1,.40131.20369.2646.2646,0,0,1-.12742.25112,8.45456,8.45456,0,0,0-2.91434,2.92529,8.29457,8.29457,0,0,0-1.13713,3.52738l-.06636.734.62475.39118a5.7389,5.7389,0,0,1,.659.47288,5.6487,5.6487,0,0,1,1.94947,3.45849l.02628.16592c.00836.06867.01494.13045.02025.19115a1.53476,1.53476,0,0,1-.06245.64422l-.1867.55511.32151.48829c.18588.28253.37049.564.5452.85338l.20911.34638.349.14356.10682.03771,1.20943.55295.872.43424c.45351.23559.8892.46921,1.32038.71852,0,0,.48348.28237.68359.40485l.30586.25556.09933-.00751a19.70078,19.70078,0,0,1,4.43178,3.6895l.075.09108c.1922.23374.38131.47247.54823.71313l.35875.55091.20115.34942c.04714.08175.0877.16878.12942.25571.04192.08927.06382.13793.089.184l.11954.29069c.02526.06013.13059.34971.13059.34971.009.03568.03839.12957.06448.2261l.03358.14175.00705.08056.02083.04993c.01338.05883.02865.12572.03777.18962,0,0,.06055.477.07268.56182Zm-8.55434,3.48342q.2459.229.49549.43308a7.55285,7.55285,0,0,0,1.00663.69538,4.6226,4.6226,0,0,0,1.42415.56,3.1931,3.1931,0,0,0,1.74149-.12884,4.73789,4.73789,0,0,0,1.8566-1.31408,5.0084,5.0084,0,0,0,1.51568-3.36874c.00124-.14716-.00432-.29136-.01719-.43846a4.93,4.93,0,0,0-.13462-.78578,9.75551,9.75551,0,0,0-3.50819-4.6961,29.59755,29.59755,0,0,0-8.875-4.82062,4.96694,4.96694,0,0,0-1.93039-.01344l-1.60158.16835.61944,1.48682c.48979,1.17468,1.00484,2.31538,1.53041,3.38811,1.1193,2.29242,3.25852,6.266,5.64338,8.61005l-14.91374,1.30478c1.82655-2.55838,3.19727-6.48145,4.05841-9.4659.35816-1.24416.666-2.458.91725-3.60695l.343-1.56515-1.59831.1116a5.11119,5.11119,0,0,0-1.84454.32253,29.46922,29.46922,0,0,0-7.95611,6.31433,9.70337,9.70337,0,0,0-2.63948,5.21983,4.60971,4.60971,0,0,0-.0012.82c.01246.14243.03056.282.05682.42087a5.00437,5.00437,0,0,0,2.078,3.059,4.726,4.726,0,0,0,2.06536.978,3.17535,3.17535,0,0,0,1.72924-.17481,4.713,4.713,0,0,0,1.41653-.885,7.42183,7.42183,0,0,0,.75927-.76048q.21138-.24612.416-.51634l.52374,1.267q.04674.11059.097.2209l.00643.07355.11406.18765a16.05356,16.05356,0,0,0,1.41812,2.40038l.39678.56875,11.094-.97059.29169-.63252a16.68128,16.68128,0,0,0,.97569-2.60275l.07908-.19867-.00557-.07715c.02289-.08788.042-.16484.059-.24043Zm-1.46785-.6562-1.25726-1.71806c-.45031-.61583-.92046-1.324-1.43759-2.16576l-.38819-.63185-7.21.63079-.27256.68966c-.33711.85294-.68794,1.6565-1.04266,2.38864l-.92282,1.9029Zm-8.78131,9.118a22.81477,22.81477,0,0,0,2.72677,1.85535l.72979.422.64426-.5422a23.858,23.858,0,0,0,2.3588-2.29674l2.02086-2.26012-10.84529.94884Zm-3.585-23.45688c.75622.67023,2.71261.99432,4.87.80557s4.02895-.84773,4.65729-1.6391l.29781-.37426-.04759-.544s-.04426-.27728-.06228-.37569l-.00531-.06071s-.08189-.3175-.09583-.36922l-.00674-.077-.09219-.22015c-.00839-.02867-.064-.18026-.064-.18026-.01662-.04207-.16736-.39355-.16736-.39355l-.01651-.01385a4.99266,4.99266,0,0,0-.967-1.33173,4.45867,4.45867,0,0,0-.38661-.345,5.0673,5.0673,0,0,0-2.88826-1.133l-.07438-.03-.30521.02082a3.33822,3.33822,0,0,0-.39261.01671c-.17978.01572-.34951.03881-.50939.06691l-.24895.04531-.02892.019a5.04326,5.04326,0,0,0-2.64346,1.63819,3.475,3.475,0,0,0-.30572.39141l.077-.10085a5.26265,5.26265,0,0,0-.78382,1.55549l-.15233.18154.02336.30734c-.01909.09107-.03331.18407-.04508.278l-.01486.126c-.01613.12493-.02359.22792-.02668.327l-.00061.08711c-.00438.16507-.00189.27425.00167.38217l.00459.14664.04168.4763Zm8.97774,9.31588-.82746-1.59215c-.382-.73591-.7312-1.44646-1.04667-2.12114l-.32338-.84574-.92456.04089-2.06166.18038-.2471.75213a2.13013,2.13013,0,0,0-.07781.29384c-.17267.608-.389,1.37624-.63787,2.16147l-.544,1.71566Z" stroke="#000" stroke-miterlimit="10" stroke-width="1.2"/><path d="M166.13353,112.66243q1.324-.70569,2.65284-1.40064" fill="none" stroke="#231f20" stroke-miterlimit="10"/><path d="M173.99071,108.59041A382.46168,382.46168,0,0,1,327.6018,68.1551l.88037-.04248" fill="none" stroke="#231f20" stroke-miterlimit="10" stroke-dasharray="5.84987 5.84987"/><line x1="331.39086" y1="67.97224" x2="334.3872" y2="67.82771" fill="none" stroke="#231f20" stroke-miterlimit="10"/><path d="M111.66259,632.86677v-.00024q-.70569-1.32385-1.40076-2.65283" fill="none" stroke="#231f20" stroke-miterlimit="10"/><path d="M107.59057,625.00935A382.45872,382.45872,0,0,1,67.15514,471.39851l-.04248-.88061" fill="none" stroke="#231f20" stroke-miterlimit="10" stroke-dasharray="5.84987 5.84987"/><line x1="66.97228" y1="467.60945" x2="66.82775" y2="464.61287" fill="none" stroke="#231f20" stroke-miterlimit="10"/><path d="M631.86669,687.33772q-1.32385.70569-2.65283,1.40064" fill="none" stroke="#231f20" stroke-miterlimit="10"/><path d="M624.00951,691.40974a382.46053,382.46053,0,0,1-153.61084,40.43531l-.88061.04248" fill="none" stroke="#231f20" stroke-miterlimit="10" stroke-dasharray="5.84987 5.84987"/><line x1="466.60961" y1="732.02791" x2="463.61303" y2="732.17244" fill="none" stroke="#231f20" stroke-miterlimit="10"/><path d="M686.33764,167.13338q.70605,1.32422,1.40087,2.65283" fill="none" stroke="#231f20" stroke-miterlimit="10"/><path d="M690.4099,174.99055a382.46151,382.46151,0,0,1,40.4353,153.61109l.04248.88037" fill="none" stroke="#231f20" stroke-miterlimit="10" stroke-dasharray="5.84987 5.84987"/><line x1="731.02807" y1="332.3907" x2="731.1726" y2="335.38728" fill="none" stroke="#231f20" stroke-miterlimit="10"/><text transform="translate(342.82772 781.6267) rotate(-5.00027)" font-size="16" fill="#231f20" font-family="Rubik-Bold, Rubik" font-weight="700">EL<tspan x="19.77539" y="0" letter-spacing="-0.00598em">E</tspan><tspan x="29.90332" y="0" letter-spacing="0.00006em">CTED LEADERSHI</tspan><tspan x="167.98145" y="0" letter-spacing="-0.021em">P</tspan></text></g></svg>