<svg id="Layer_1" data-name="Layer 1" xmlns="http://www.w3.org/2000/svg" viewBox="0 0 2628 737.49305"><path d="M216,656.74656a36,36,0,0,0,36,36H252a36,36,0,0,0,36-36v-576a36,36,0,0,1,36-36h36" fill="none" stroke="#221025" stroke-linecap="round" stroke-linejoin="round" stroke-width="12"/><path d="M72,656.74652v0a36,36,0,0,0,36,36H108a36,36,0,0,0,36-36" fill="none" stroke="#221025" stroke-linecap="round" stroke-linejoin="round" stroke-width="12"/><line x1="144" y1="656.74658" x2="144" y2="632.74658" fill="none" stroke="#221025" stroke-linecap="round" stroke-linejoin="round" stroke-width="12"/><path d="M144,584.06384V80.74646a36,36,0,0,1,72,0V608.40515" fill="none" stroke="#221025" stroke-linecap="round" stroke-linejoin="round" stroke-width="12" stroke-dasharray="48.68271 48.68271"/><line x1="216" y1="632.74658" x2="216" y2="656.74658" fill="none" stroke="#221025" stroke-linecap="round" stroke-linejoin="round" stroke-width="12"/><path d="M2484,656.74656a36,36,0,0,0,36,36H2520a36,36,0,0,0,36-36v0" fill="none" stroke="#221025" stroke-linecap="round" stroke-linejoin="round" stroke-width="12"/><path d="M2268,44.74652h36a36,36,0,0,1,36,36V656.74656a36,36,0,0,0,36,36H2376a36,36,0,0,0,36-36" fill="none" stroke="#221025" stroke-linecap="round" stroke-linejoin="round" stroke-width="12"/><line x1="2412" y1="656.74658" x2="2412" y2="632.74658" fill="none" stroke="#221025" stroke-linecap="round" stroke-linejoin="round" stroke-width="12"/><path d="M2412,584.06384V80.74646a36,36,0,0,1,72,0V608.40515" fill="none" stroke="#221025" stroke-linecap="round" stroke-linejoin="round" stroke-width="12" stroke-dasharray="48.68271 48.68271"/><line x1="2484" y1="632.74658" x2="2484" y2="656.74658" fill="none" stroke="#221025" stroke-linecap="round" stroke-linejoin="round" stroke-width="12"/><path d="M1296,440.74652h360a36,36,0,0,1,36,36v216" fill="none" stroke="#221025" stroke-linecap="round" stroke-linejoin="round" stroke-width="12"/><path d="M396,44.74652H828a36,36,0,0,1,36,36v324a36,36,0,0,0,36,36" fill="none" stroke="#221025" stroke-linecap="round" stroke-linejoin="round" stroke-width="12"/><line x1="900" y1="440.74658" x2="924" y2="440.74658" fill="none" stroke="#221025" stroke-linecap="round" stroke-linejoin="round" stroke-width="12"/><line x1="979.19995" y1="440.74658" x2="1172.40015" y2="440.74658" fill="none" stroke-dasharray="55.20001 55.20001" stroke-linecap="round" stroke-linejoin="round" stroke-width="12" stroke="#221025"/><line x1="1200" y1="440.74658" x2="1224" y2="440.74658" fill="none" stroke="#221025" stroke-linecap="round" stroke-linejoin="round" stroke-width="12"/><path d="M360,692.74652v-108l88.03079-58.68719a36,36,0,0,1,39.93842,0L576,584.74652v108" fill="none" stroke="#4085f3" stroke-linecap="round" stroke-linejoin="round" stroke-width="12"/><line x1="504" y1="116.74652" x2="648" y2="116.74652" fill="none" stroke="#3fd29b" stroke-linecap="round" stroke-linejoin="round" stroke-width="12"/><line x1="504" y1="152.74658" x2="522" y2="152.74658" fill="none" stroke="#3fd29b" stroke-linecap="round" stroke-linejoin="round" stroke-width="12"/><line x1="558" y1="152.74658" x2="612" y2="152.74658" fill="none" stroke-dasharray="36 36" stroke-linecap="round" stroke-linejoin="round" stroke-width="12" stroke="#3fd29b"/><line x1="630" y1="152.74658" x2="648" y2="152.74658" fill="none" stroke="#3fd29b" stroke-linecap="round" stroke-linejoin="round" stroke-width="12"/><line x1="504" y1="188.74652" x2="648" y2="188.74652" fill="none" stroke="#3fd29b" stroke-linecap="round" stroke-linejoin="round" stroke-width="12"/><line x1="864" y1="512.74652" x2="828" y2="512.74652" fill="none" stroke="#4085f3" stroke-linecap="round" stroke-linejoin="round" stroke-width="12"/><line x1="864" y1="548.74652" x2="828" y2="548.74652" fill="none" stroke="#4085f3" stroke-linecap="round" stroke-linejoin="round" stroke-width="12"/><line x1="864" y1="584.74652" x2="828" y2="584.74652" fill="none" stroke="#4085f3" stroke-linecap="round" stroke-linejoin="round" stroke-width="12"/><line x1="864" y1="620.74652" x2="828" y2="620.74652" fill="none" stroke="#4085f3" stroke-linecap="round" stroke-linejoin="round" stroke-width="12"/><line x1="864" y1="656.74652" x2="828" y2="656.74652" fill="none" stroke="#4085f3" stroke-linecap="round" stroke-linejoin="round" stroke-width="12"/><line x1="864" y1="692.74652" x2="828" y2="692.74652" fill="none" stroke="#4085f3" stroke-linecap="round" stroke-linejoin="round" stroke-width="12"/><line x1="2268" y1="512.74652" x2="2232" y2="512.74652" fill="none" stroke="#8778fc" stroke-linecap="round" stroke-linejoin="round" stroke-width="12"/><line x1="2268" y1="476.74652" x2="2232" y2="476.74652" fill="none" stroke="#8778fc" stroke-linecap="round" stroke-linejoin="round" stroke-width="12"/><line x1="2268" y1="548.74652" x2="2232" y2="548.74652" fill="none" stroke="#8778fc" stroke-linecap="round" stroke-linejoin="round" stroke-width="12"/><line x1="2268" y1="584.74652" x2="2232" y2="584.74652" fill="none" stroke="#8778fc" stroke-linecap="round" stroke-linejoin="round" stroke-width="12"/><line x1="2268" y1="620.74652" x2="2232" y2="620.74652" fill="none" stroke="#8778fc" stroke-linecap="round" stroke-linejoin="round" stroke-width="12"/><line x1="2268" y1="656.74652" x2="2232" y2="656.74652" fill="none" stroke="#8778fc" stroke-linecap="round" stroke-linejoin="round" stroke-width="12"/><line x1="2268" y1="692.74652" x2="2232" y2="692.74652" fill="none" stroke="#8778fc" stroke-linecap="round" stroke-linejoin="round" stroke-width="12"/><line x1="1872" y1="512.74652" x2="1764" y2="512.74652" fill="none" stroke="#3fd29b" stroke-linecap="round" stroke-linejoin="round" stroke-width="12"/><line x1="1872" y1="548.74652" x2="1764" y2="548.74652" fill="none" stroke="#3fd29b" stroke-linecap="round" stroke-linejoin="round" stroke-width="12"/><line x1="1872" y1="584.74652" x2="1764" y2="584.74652" fill="none" stroke="#3fd29b" stroke-linecap="round" stroke-linejoin="round" stroke-width="12"/><line x1="1872" y1="620.74652" x2="1764" y2="620.74652" fill="none" stroke="#3fd29b" stroke-linecap="round" stroke-linejoin="round" stroke-width="12"/><line x1="1872" y1="656.74652" x2="1764" y2="656.74652" fill="none" stroke="#3fd29b" stroke-linecap="round" stroke-linejoin="round" stroke-width="12"/><line x1="1872" y1="692.74652" x2="1764" y2="692.74652" fill="none" stroke="#3fd29b" stroke-linecap="round" stroke-linejoin="round" stroke-width="12"/><path d="M504,440.74652V406.1092c0-27.24275,36.72515-35.91238,48.90848-11.54572l.00007.00014c9.5142,19.0284,36.6687,19.0284,46.1829,0l.00007-.00014C611.27485,370.19682,648,378.86645,648,406.1092v34.63732" fill="none" stroke="#8778fc" stroke-linecap="round" stroke-linejoin="round" stroke-width="12"/><path d="M936,368.74652v-216l122.4-91.8a36,36,0,0,1,43.2,0l122.4,91.8v216" fill="none" stroke="#3fd29b" stroke-linecap="round" stroke-linejoin="round" stroke-width="12"/><path d="M1296,368.74652v-216l122.4-91.8a36,36,0,0,1,43.2,0l122.4,91.8v216" fill="none" stroke="#4085f3" stroke-linecap="round" stroke-linejoin="round" stroke-width="12"/><circle cx="1674" cy="62.74652" r="18" fill="none" stroke="#3fd29b" stroke-linecap="round" stroke-linejoin="round" stroke-width="12"/><circle cx="1674" cy="134.74652" r="18" fill="none" stroke="#3fd29b" stroke-linecap="round" stroke-linejoin="round" stroke-width="12"/><circle cx="1674" cy="206.74652" r="18" fill="none" stroke="#3fd29b" stroke-linecap="round" stroke-linejoin="round" stroke-width="12"/><circle cx="1674" cy="278.74652" r="18" fill="none" stroke="#3fd29b" stroke-linecap="round" stroke-linejoin="round" stroke-width="12"/><circle cx="1674" cy="350.74652" r="18" fill="none" stroke="#3fd29b" stroke-linecap="round" stroke-linejoin="round" stroke-width="12"/><path d="M1980,80.74652a36,36,0,0,1,36-36h216" fill="none" stroke="#221025" stroke-linecap="round" stroke-linejoin="round" stroke-width="12"/><path d="M1764,440.74652h180a36,36,0,0,0,36-36" fill="none" stroke="#221025" stroke-linecap="round" stroke-linejoin="round" stroke-width="12"/><line x1="1980" y1="404.74658" x2="1980" y2="380.74658" fill="none" stroke="#221025" stroke-linecap="round" stroke-linejoin="round" stroke-width="12"/><line x1="1980" y1="325.54651" x2="1980" y2="132.34656" fill="none" stroke-dasharray="55.2 55.2" stroke-linecap="round" stroke-linejoin="round" stroke-width="12" stroke="#221025"/><line x1="1980" y1="104.74658" x2="1980" y2="80.74658" fill="none" stroke="#221025" stroke-linecap="round" stroke-linejoin="round" stroke-width="12"/><path d="M432,692.74652v-36a36,36,0,0,1,36-36H468a36,36,0,0,1,36,36v36" fill="none" stroke="#4085f3" stroke-linecap="round" stroke-linejoin="round" stroke-width="12"/><path d="M1944,692.74652v-144l88.03079-58.68719a36,36,0,0,1,39.93842,0L2160,548.74652v144" fill="none" stroke="#4085f3" stroke-linecap="round" stroke-linejoin="round" stroke-width="12"/><path d="M2016,692.74652v-72a36,36,0,0,1,36-36H2052a36,36,0,0,1,36,36v72" fill="none" stroke="#4085f3" stroke-linecap="round" stroke-linejoin="round" stroke-width="12"/><rect x="1188" y="188.74652" width="144" height="72" rx="35.99996" stroke-width="12" stroke="#221025" stroke-linecap="round" stroke-linejoin="round" fill="none"/><path d="M1116,368.74652v-72a36,36,0,0,0-36-36H1080a36,36,0,0,0-36,36v72" fill="none" stroke="#3fd29b" stroke-linecap="round" stroke-linejoin="round" stroke-width="12"/><path d="M1476,368.74652v-72a36,36,0,0,0-36-36H1440a36,36,0,0,0-36,36v72" fill="none" stroke="#4085f3" stroke-linecap="round" stroke-linejoin="round" stroke-width="12"/><circle cx="1080" cy="152.74652" r="36" fill="none" stroke="#3fd29b" stroke-linecap="round" stroke-linejoin="round" stroke-width="12"/><circle cx="1440" cy="152.74652" r="36" fill="none" stroke="#4085f3" stroke-linecap="round" stroke-linejoin="round" stroke-width="12"/><circle cx="414" cy="161.88763" r="32.91507" fill="none" stroke="#8778fc" stroke-linecap="round" stroke-linejoin="round" stroke-width="12"/><circle cx="738" cy="161.88763" r="32.91507" fill="none" stroke="#8778fc" stroke-linecap="round" stroke-linejoin="round" stroke-width="12"/><circle cx="684" cy="533.77461" r="21.02809" fill="none" stroke="#3fd29b" stroke-linecap="round" stroke-linejoin="round" stroke-width="12"/><path d="M936,692.74652V602.91594a18.16942,18.16942,0,0,1,18.16942-18.16942H990a18,18,0,0,1,18,18v90Z" fill="none" stroke="#4085f3" stroke-linecap="round" stroke-linejoin="round" stroke-width="12"/><circle cx="972" cy="533.77461" r="21.02809" fill="none" stroke="#4085f3" stroke-linecap="round" stroke-linejoin="round" stroke-width="12"/><path d="M1224,692.74652V602.91594a18.16942,18.16942,0,0,0-18.16942-18.16942h-35.66116A18.16942,18.16942,0,0,0,1152,602.91594v89.83058Z" fill="none" stroke="#4085f3" stroke-linecap="round" stroke-linejoin="round" stroke-width="12"/><circle cx="1188" cy="533.77461" r="21.02809" fill="none" stroke="#4085f3" stroke-linecap="round" stroke-linejoin="round" stroke-width="12"/><path d="M1044,692.74652V572.91594a18.16942,18.16942,0,0,1,18.16942-18.16942h35.66116A18.16942,18.16942,0,0,1,1116,572.91594V692.74652Z" fill="none" stroke="#4085f3" stroke-linecap="round" stroke-linejoin="round" stroke-width="12"/><circle cx="1080" cy="503.77461" r="21.02809" fill="none" stroke="#4085f3" stroke-linecap="round" stroke-linejoin="round" stroke-width="12"/><path d="M539.62256,272.466h-.00012a52.93056,52.93056,0,0,1-36.31514-14.4227l-24.9056-23.48739a36,36,0,0,0-24.69923-9.8094H396a36,36,0,0,0-36,36v180H468V296.31665a8,8,0,0,1,13.48186-5.82659L500.801,308.6662a54.90146,54.90146,0,0,0,38.82141,16.08032h.00012a26.14013,26.14013,0,0,0,26.14014-26.14013v-.00025A26.14013,26.14013,0,0,0,539.62256,272.466Z" fill="none" stroke="#8778fc" stroke-linecap="round" stroke-linejoin="round" stroke-width="12"/><path d="M755.8217,608.60641a25.447,25.447,0,0,1-17.59687-6.6728L724.623,589.10627a16,16,0,0,0-10.97745-4.35975H666a18,18,0,0,0-18,18v90h72V620.16831a4,4,0,0,1,6.79759-2.85893l9.60292,9.39686a27.45036,27.45036,0,0,0,18.161,8.01183c7.36126.33517,14.00822-5.13165,14.30861-12.49441A13.0704,13.0704,0,0,0,755.8217,608.60641Z" fill="none" stroke="#3fd29b" stroke-linecap="round" stroke-linejoin="round" stroke-width="12"/><path d="M756,224.74652H698.29753a36,36,0,0,0-24.69923,9.8094l-24.90592,23.4877A52.92742,52.92742,0,0,1,612.378,272.46544l-.76657,0a25.37282,25.37282,0,0,0-25.37427,25.37294v.78416a26.13135,26.13135,0,0,0,26.13259,26.124h.00779A54.90146,54.90146,0,0,0,651.199,308.6662l19.31917-18.17614A8,8,0,0,1,684,296.31665V440.74652H792v-180A36,36,0,0,0,756,224.74652Z" fill="none" stroke="#8778fc" stroke-linecap="round" stroke-linejoin="round" stroke-width="12"/><circle cx="1836" cy="134.74652" r="90" fill="none" stroke="#8778fc" stroke-linecap="round" stroke-linejoin="round" stroke-width="12"/><path d="M1872,368.74652V217.25043a90.19311,90.19311,0,0,1-72,0V368.74652" fill="none" stroke="#8778fc" stroke-linecap="round" stroke-linejoin="round" stroke-width="12"/><circle cx="1584" cy="566.74652" r="54" fill="none" stroke="#8778fc" stroke-linecap="round" stroke-linejoin="round" stroke-width="12"/><path d="M1611.44531,692.74652V613.24823a53.97693,53.97693,0,0,1-54.89062,0v79.49829" fill="none" stroke="#8778fc" stroke-linecap="round" stroke-linejoin="round" stroke-width="12"/><line x1="1512" y1="692.74652" x2="1656" y2="692.74652" fill="none" stroke="#8778fc" stroke-linecap="round" stroke-linejoin="round" stroke-width="12"/><line x1="1764" y1="368.74652" x2="1908" y2="368.74652" fill="none" stroke="#8778fc" stroke-linecap="round" stroke-linejoin="round" stroke-width="12"/><circle cx="2246.97191" cy="139.86516" r="21.02809" fill="none" stroke="#3fd29b" stroke-linecap="round" stroke-linejoin="round" stroke-width="12"/><path d="M2172.1401,211.68689a25.44707,25.44707,0,0,1,6.67278-17.59683l12.82739-13.60192A16,16,0,0,0,2196,169.5107V121.86516a18,18,0,0,0-18-18H2052v72h108.57821a4,4,0,0,1,2.85894,6.79758l-9.39687,9.60293a27.45032,27.45032,0,0,0-8.0118,18.16082c-.33522,7.3614,5.13178,14.0086,12.49469,14.30884A13.07039,13.07039,0,0,0,2172.1401,211.68689Z" fill="none" stroke="#3fd29b" stroke-linecap="round" stroke-linejoin="round" stroke-width="12"/><circle cx="2246.97191" cy="345.62789" r="21.02809" fill="none" stroke="#3fd29b" stroke-linecap="round" stroke-linejoin="round" stroke-width="12"/><path d="M2172.14011,273.80619a25.447,25.447,0,0,0,6.6728,17.59687l12.82735,13.60185A16,16,0,0,1,2196,315.98236v47.64553a18,18,0,0,1-18,18H2052v-72h108.57821a4,4,0,0,0,2.85894-6.79759l-9.39687-9.60292a27.45045,27.45045,0,0,1-8.01183-18.161c-.33517-7.36126,5.13165-14.00822,12.49442-14.30861A13.0704,13.0704,0,0,1,2172.14011,273.80619Z" fill="none" stroke="#3fd29b" stroke-linecap="round" stroke-linejoin="round" stroke-width="12"/><path d="M1296,692.74652H1296a36,36,0,0,0,36-36V548.74649a36,36,0,0,1,36-36H1368a36,36,0,0,1,36,36V656.74656a36,36,0,0,0,36,36H1440a36,36,0,0,0,36-36v-144" fill="none" stroke="#221025" stroke-linecap="round" stroke-linejoin="round" stroke-width="12"/><line x1="1152" y1="44.74652" x2="1368" y2="44.74652" fill="none" stroke="#221025" stroke-linecap="round" stroke-linejoin="round" stroke-width="12"/><line x1="1512" y1="44.74652" x2="1584" y2="44.74652" fill="none" stroke="#221025" stroke-linecap="round" stroke-linejoin="round" stroke-width="12"/><line x1="936" y1="44.74652" x2="1008" y2="44.74652" fill="none" stroke="#221025" stroke-linecap="round" stroke-linejoin="round" stroke-width="12"/><line x1="72" y1="620.74652" x2="72" y2="44.74652" fill="none" stroke="#221025" stroke-linecap="round" stroke-linejoin="round" stroke-width="12"/><line x1="2556" y1="620.74652" x2="2556" y2="44.74652" fill="none" stroke="#221025" stroke-linecap="round" stroke-linejoin="round" stroke-width="12"/></svg>