<svg xmlns="http://www.w3.org/2000/svg" width="2628" height="737"><defs><style>.a{fill:#fefefe}.b{fill:#fcebf5}.c{fill:#b6f5d9}.d{fill:#e2efff}.e{fill:#9986ff}.f{fill:#fef5d1}.g{fill:#f0edfe}</style></defs><path class="a" d="M0 737V0h2628v737zm1230.019-554.177c0-9.479-.16-18.452.073-27.415.102-3.93-1.305-6.514-4.404-8.83q-59.218-44.255-118.326-88.657c-17.942-13.444-36.784-13.446-54.725.002q-58.754 44.04-117.53 88.053a11.599 11.599 0 00-5.218 10.431q.2 104.737.093 209.474a30.906 30.906 0 00.053 3.496c.396 3.465 2.334 5.521 5.87 5.575 3.532.055 5.573-1.926 6.036-5.386a34.118 34.118 0 00.076-4.494q.004-59.992.002-119.985c0-28.163-.056-56.326.108-84.488.013-2.157.951-5.144 2.526-6.333q58.585-44.262 117.454-88.15c11.152-8.322 24.607-8.341 35.712-.055 36.965 27.58 73.697 55.478 110.877 82.768 7.038 5.166 10.926 10.357 9.377 19.19a39.298 39.298 0 00-.034 9.978c.315 3.717-.679 5.388-4.73 6.402a41.652 41.652 0 00-31.324 39.777c-.19 19.345 11.777 36.098 30.244 41.017 5.072 1.35 5.893 3.395 5.861 8.047-.21 30.828-.11 61.658-.104 92.488 0 1.497-.49 3.436.251 4.397 1.468 1.907 3.71 4.616 5.495 4.517 2.126-.117 4.38-2.601 6.031-4.53.759-.886.25-2.89.251-4.387q.01-46.244.004-92.488v-5.802h59.805c.065 1.415.15 2.409.15 3.403q.012 47.244.01 94.488c0 1.5-.545 3.442.185 4.405 1.534 2.026 3.518 4.505 5.736 5.03 3.326.79 5.541-1.686 6.031-5.141a32.227 32.227 0 00.082-4.493q.003-46.745-.052-93.489c-.01-3.387.445-5.093 4.488-6.005a38.817 38.817 0 0023.8-16.24c17.075-24.582 4.837-57.812-24.135-65.166-3.338-.847-4.257-2.126-4.156-5.324.205-6.493-.136-13.006.18-19.49a7.853 7.853 0 012.649-5.277q58.43-44.055 117.07-87.832c11.472-8.562 24.75-8.61 36.108-.128 38.554 28.793 76.98 57.757 115.572 86.5 3.299 2.458 4.55 4.888 4.542 9.019q-.213 102.486-.097 204.974c0 5.717 2.07 8.443 6.207 8.32 3.976-.118 5.82-2.658 5.82-8.206q.014-105.737.077-211.473a9.937 9.937 0 00-4.48-8.788q-59.412-44.412-118.723-88.96c-17.368-13.01-36.479-12.966-53.927.117-37.566 28.167-74.933 56.607-112.804 84.358-7.726 5.661-11.548 11.371-10.331 20.984.82 6.48.156 13.15.156 19.802zm563.962 180.168h-6.008c-7.832 0-15.664-.04-23.495.017-3.938.028-6.457 2.005-6.402 6.05.055 4.014 2.57 5.92 6.525 5.959.833.008 1.667 0 2.5 0q68.986 0 137.973-.007c1.495 0 3.36.421 4.403-.297 1.76-1.213 3.791-3.004 4.214-4.887.369-1.645-.855-4.279-2.238-5.5-1.271-1.123-3.687-1.264-5.606-1.29-9.112-.12-18.226-.054-27.573-.054-.112-1.515-.245-2.477-.246-3.439q-.016-67.237-.096-134.474c-.008-3.104 1.393-4.284 3.745-5.58 36.61-20.181 56.306-60.759 49.073-100.923-9.219-51.198-55.768-85.261-107.515-78.678-44.481 5.66-80.273 42.651-82.931 87.273-2.418 40.587 14.541 71.54 49.77 92.114 3.048 1.78 3.988 3.598 3.979 6.97q-.164 63.237-.072 126.476v10.27zM614.53 38.987l-214.458-.001c-7.257 0-10.025 1.649-10.058 6.009-.034 4.365 2.727 6.015 10.038 6.015q212.709.004 425.417.013c20.005.001 32.512 12.455 32.512 32.32q0 160.469.007 320.938c.002 21.171 13.37 38.165 34.261 41.692 9.902 1.67 20.236.863 30.376 1.011 4.777.07 7.593-2.38 7.33-6.234-.304-4.426-3.33-5.766-7.285-5.766q-9.748 0-19.496-.005c-21.07-.038-33.163-12.15-33.163-33.183q.008-159.469.006-318.938c-.001-25.994-17.948-43.87-44.028-43.87q-105.73-.005-211.459-.001zM353.98 348.515q0 44.987.005 89.974c.003 6.93 1.59 8.51 8.53 8.512q50.485.017 100.97.012c9.588.003 10.538-.927 10.537-10.541q-.008-67.73.047-135.461c.004-1.966.916-3.93 1.405-5.896a35.79 35.79 0 015.272 3.322 267.431 267.431 0 0111.95 11.36c13.042 13.22 28.293 21.446 47.333 21.211a32.072 32.072 0 00.52-64.134c-13.365-.383-24.956-4.96-34.622-14.368-7.515-7.314-15.221-14.432-22.842-21.638a41.794 41.794 0 00-29.818-11.887c-18.661.035-37.323-.002-55.984.01-25.105.017-43.256 18.036-43.29 43.05q-.06 43.237-.013 86.474zm444.033.272c0-29.487.105-58.973-.034-88.46a41.71 41.71 0 00-41.465-41.32q-29.236-.11-58.473-.003a41.066 41.066 0 00-28.893 11.655q-12.012 11.281-23.968 22.622c-9.36 8.932-20.622 13.708-33.394 13.443-14.477-.3-29.803 10.954-31.612 28.744-1.628 16.011 8.807 31.347 24.733 34.5 18.637 3.69 34.749-2.741 48.675-15.037 6.36-5.615 12.318-11.682 18.591-17.4 1.224-1.115 3.061-1.56 4.615-2.313.4 1.527.87 3.041 1.174 4.588a13.14 13.14 0 01.021 2.493q-.004 68.219.001 136.437c.002 6.517 1.792 8.278 8.294 8.28q51.477.007 102.953-.014c7.271-.002 8.783-1.505 8.785-8.757q.013-44.729-.003-89.458zm-516.03 19.752V655.47c0 17.826-12.918 31.46-29.846 31.51-17.188.053-30.123-13.577-30.12-31.735q0-10.748-.002-21.495c-.001-3.898-1.717-6.422-5.785-6.715-3.742-.27-6.175 2.326-6.218 6.751-.086 8.664-.27 17.338.049 25.991.767 20.767 19.32 38.796 40.071 39.229 25.005.522 43.88-17.942 43.881-42.99q.013-286.68.008-573.362c0-18.863 12.772-31.602 31.697-31.632 10.83-.017 21.661.01 32.492-.019 5.17-.013 8.095-2.286 7.752-6.227-.405-4.651-3.515-5.862-7.727-5.822-10.83.1-21.661.028-32.492.033-25.731.011-43.757 17.968-43.759 43.62q-.009 142.966 0 285.932zm2064.039-.442q0-143.215-.008-286.43c-.005-21.123-13.39-38.614-34.317-41.558-14.55-2.046-29.559-.939-44.363-.938-1.573 0-3.722 1.688-4.612 3.183-2.537 4.263.756 8.584 6.527 8.637 10.663.097 21.328.016 31.992.023 20.383.012 32.736 12.313 32.737 32.598q.002 236.942 0 473.884c0 33.324-.05 66.649.023 99.973.046 20.987 15.63 38.385 36.798 41.327 20.112 2.795 40.654-10.027 45.156-30.189 2.494-11.166 1.524-23.111 2.05-34.708.191-4.222-1.972-6.893-6.164-6.795-4.224.1-5.94 2.961-5.89 7.119.096 7.663.145 15.331 0 22.993-.17 8.946-3.527 16.63-10.402 22.382-9.696 8.113-20.686 9.852-32.158 4.472-11.454-5.373-17.312-14.936-17.323-27.543q-.131-144.215-.046-288.43zm-864 219.195q0-36.492-.018-72.984c-.008-4.812-2.377-7.592-6.218-7.283-4.335.35-5.935 3.141-5.813 7.217.035 1.165.005 2.332.005 3.499q0 68.985.012 137.971c.004 9.519-3.156 17.74-10.457 23.887-9.67 8.143-20.683 9.847-32.155 4.466-11.467-5.379-17.245-14.992-17.301-27.57-.162-35.824.001-71.651-.086-107.477-.035-14.498-6.045-26.26-17.947-34.43-13.766-9.449-28.607-10.58-43.478-2.751-14.83 7.806-22.446 20.546-22.53 37.293-.18 35.825-.016 71.652-.074 107.477a30.225 30.225 0 01-27.965 30.358c-5.678.384-8.324 2.563-7.982 6.574q.49 5.752 8.54 5.458a25.01 25.01 0 002.985-.26c21.91-3.487 36.464-20.467 36.475-42.61q.024-53.238.006-106.477c.01-12.954 7.601-24.253 19-28.513 20.297-7.584 40.911 6.688 40.95 28.476.065 35.493-.003 70.985.014 106.478.013 24.252 18.242 42.894 41.92 42.929 23.705.035 42.084-18.6 42.109-42.742q.036-34.493.008-68.986zm135.687 99.696c0-23.158-.075-45.474.149-67.787.017-1.684 1.853-3.71 3.355-4.964 18.332-15.306 25.962-34.848 21.661-58.22-4.394-23.884-18.977-39.962-42.199-46.59-23.998-6.851-45.452-.753-61.89 18.303-22.861 26.5-19.224 63.728 7.759 86.105 2.663 2.208 3.875 4.357 3.842 7.92-.187 19.825-.08 39.653-.096 59.48 0 1.768-.166 3.537-.278 5.752h-37.314c-3.95-.002-6.517 1.852-6.628 5.855-.121 4.331 2.532 6.24 6.731 6.17.5-.009 1 0 1.5 0l139.453-.002a21.963 21.963 0 002.996-.055c3.267-.453 5.12-2.41 5.21-5.672.098-3.487-1.774-5.668-5.222-6.208a32.616 32.616 0 00-4.99-.085c-11.126-.004-22.252-.002-34.04-.002zm-139.496-251.997h-177.958c-1.333 0-2.667-.024-3.999.01-3.756.095-6.077 2.033-6.186 5.762-.117 3.994 2.204 6.101 6.215 6.23 1.498.048 2.999.012 4.498.012q176.459 0 352.917.003c19.932 0 32.295 12.516 32.29 32.567q-.022 104.975 0 209.95c0 1.664-.528 3.818.3 4.882 1.46 1.88 3.78 4.27 5.733 4.263 1.95-.008 4.112-2.493 5.728-4.298.685-.765.257-2.566.257-3.896q.013-106.725-.01-213.45a41.831 41.831 0 00-42.327-42.043q-88.728.012-177.458.008zm1083.81-102.028q0-141.975-.004-283.95c0-1.665.582-3.808-.227-4.893-1.512-2.026-3.857-4.753-5.836-4.737s-4.152 2.847-5.795 4.815c-.667.798-.183 2.577-.183 3.91q0 284.7.01 569.399c0 1.498-.537 3.473.206 4.397 1.594 1.983 3.872 4.732 5.85 4.717s4.278-2.769 5.761-4.812c.8-1.102.21-3.231.21-4.897q.005-141.974.008-283.95zm-2496.035-.467q0 141.974.003 283.948c0 1.832-.633 4.126.226 5.391 1.407 2.071 3.797 4.785 5.775 4.787s4.124-2.84 5.853-4.747c.592-.654.17-2.25.17-3.415q.005-284.698 0-569.396c0-1.666.588-3.8-.216-4.896-1.495-2.038-3.813-4.786-5.791-4.79s-4.529 2.662-5.759 4.779c-.948 1.63-.264 4.224-.264 6.39q-.007 140.975.003 281.949zM1937.986 621q0 34.497.004 68.993c0 1.332-.482 3.12.187 3.906 1.653 1.945 3.846 4.735 5.822 4.736s4.23-2.753 5.808-4.74c.74-.933.202-2.9.202-4.4q.01-66.243.009-132.486c0-2.64-.065-4.809 2.84-6.72q40.058-26.362 79.817-53.18c13.63-9.16 25.136-9.105 38.866.146 25.96 17.493 51.954 34.942 78.131 52.107 3.5 2.294 4.389 4.58 4.379 8.406-.113 44.495-.058 88.99-.106 133.486-.004 4.186 1.132 7.332 5.82 7.711 4 .324 6.253-2.523 6.254-7.731q.016-69.993.064-139.986c.008-3.946-1.304-6.54-4.559-8.694q-42.701-28.266-85.3-56.687c-15.711-10.442-32.82-10.385-48.66.144q-42.438 28.213-84.891 56.402c-3.429 2.266-4.792 4.961-4.764 9.094.157 23.164.075 46.328.077 69.493zm217.26-438.987c-1.128 1.378-1.556 2.036-2.112 2.56-6.446 6.09-11.2 13.116-12.835 22.045-2.171 11.855 5.381 23.099 16.492 24.32 11.625 1.276 20.697-6.8 21.286-19.136a22.434 22.434 0 016.447-14.747c3.54-3.758 7.15-7.453 10.71-11.193a24.073 24.073 0 006.842-17.646c-.171-14.829-.042-29.66-.057-44.491-.016-15.687-9.789-25.678-25.55-25.714q-60.988-.137-121.977-.02c-6.653.004-8.505 1.932-8.509 8.684q-.02 32.994-.005 65.988c0 8.023 1.293 9.347 9.181 9.348 32.99.004 65.979.001 100.086.001zm.031 121.977h-6.212q-47.492.004-94.984.014c-6.315.003-8.075 1.705-8.082 7.911q-.036 33.994.004 67.989c.008 5.993 2.08 8.1 8.112 8.103q61.489.039 122.979-.035c14.968-.04 24.883-10.303 24.918-25.353.036-15.164-.042-30.329.035-45.492a21.848 21.848 0 00-6.022-15.889c-3.786-3.981-7.437-8.092-11.274-12.023a22.747 22.747 0 01-6.712-15.64c-.376-9.94-7-17.332-16.35-18.521a18.851 18.851 0 00-20.804 14.087c-2.586 9.42.506 17.748 6.04 25.28 2.31 3.14 5.127 5.907 8.352 9.57zM353.973 638.641c0 17.66-.03 35.322.017 52.983.015 5.691 4.503 9.419 8.41 6.664 1.971-1.39 3.456-4.87 3.474-7.418q.34-48.733.065-97.468c-.015-3.523.874-5.776 3.897-7.775 27.224-18 54.272-36.265 81.547-54.187 10.914-7.17 22.43-7.124 33.341.057 27.262 17.941 54.326 36.184 81.528 54.216 2.781 1.843 3.828 3.91 3.813 7.307-.139 32.656-.092 65.313-.082 97.97.002 5.403 1.994 8.007 6.01 8.012 4.02.005 6.026-2.603 6.027-7.996.01-34.656-.038-69.312.059-103.967a8.793 8.793 0 00-4.386-8.224c-29.291-19.389-58.313-39.191-87.806-58.266-14.229-9.203-29.646-9.157-43.873.059-29.48 19.095-58.511 38.882-87.804 58.268-3.177 2.102-4.313 4.58-4.285 8.28.13 17.161.057 34.323.048 51.485zm372.05-12.019l1.477-.958a57.728 57.728 0 003.56 4.607 34.93 34.93 0 0018.476 10.22c12.331 2.706 23.853-4.519 25.276-16.296 1.55-12.84-9.193-21.42-19.592-21.648-4.652-.102-9.645-3.102-13.725-5.895-4.614-3.16-8.414-7.522-12.498-11.435a21.777 21.777 0 00-15.797-6.254c-15.484.06-30.969-.008-46.453.038-14.64.042-24.734 10.158-24.753 24.848q-.056 43.456-.01 86.913c.002 6.527 1.72 8.24 8.275 8.244q33.716.021 67.432 0c6.578-.003 8.322-1.72 8.327-8.193q.021-29.47.005-58.941zm396 5.385c0-19.328.042-38.656-.013-57.984-.043-14.938-10.265-25.03-25.228-25.04q-16.746-.012-33.491 0c-14.997.007-25.278 10.069-25.296 24.97q-.07 58.483 0 116.967c.002 6.23 1.809 8.077 7.98 8.085q33.99.047 67.981.001c6.213-.007 8.042-1.84 8.05-8.015q.04-29.492.017-58.984zm-108.006 14.968c0-14.485.043-28.97-.012-43.454-.054-14.28-10.278-24.46-24.598-24.52q-17.481-.073-34.963.002c-13.93.064-24.41 10.405-24.44 24.242q-.096 43.953-.02 87.907c.003 5.953 1.838 7.841 7.666 7.848q34.214.042 68.428.003c6.164-.005 7.933-1.82 7.94-8.075q.03-21.977 0-43.953zm216-.163c0-14.482.046-28.964-.014-43.445-.058-13.89-10.444-24.289-24.316-24.362q-17.727-.094-35.456.001c-13.845.08-24.207 10.508-24.231 24.444q-.077 43.696-.016 87.39c.002 6.457 1.753 8.163 8.351 8.167q33.708.018 67.416-.001c6.55-.004 8.26-1.718 8.267-8.25q.022-21.971-.001-43.944zm892.268-607.826q-53.21 0-106.42.007c-19.985.014-37.559 13.89-40.741 33.589-1.63 10.082-.934 20.553-1.107 30.852-.084 4.973 2.177 7.574 5.994 7.569 3.814-.006 5.943-2.602 5.997-7.59.07-6.661.014-13.323.016-19.985.005-19.973 12.417-32.41 32.393-32.413q104.92-.013 209.841-.005c1.499 0 3.431.564 4.406-.156 2.045-1.513 4.571-3.469 5.106-5.677.792-3.274-1.628-5.577-5.076-6.112a29.546 29.546 0 00-4.49-.076q-52.96-.003-105.92-.003zM654.02 421.991h-.016c0-5.83.157-11.665-.03-17.489-.587-18.336-17.55-32.205-35.77-29.79-11.626 1.542-19.337 7.91-24.881 17.797-7.063 12.594-22.985 14.286-32.23 3.458-1.921-2.25-3.205-5.037-4.871-7.517-7.902-11.765-21.754-16.696-35.475-12.664-13.762 4.043-22.628 15.64-22.746 29.97-.093 11.159.03 22.32-.047 33.48-.03 4.16 1.077 7.352 5.802 7.721 4.006.313 6.235-2.496 6.253-7.728.036-10.327.002-20.655.009-30.982.007-10.934 5.443-18.633 14.837-21.037 9.481-2.425 17.516 1.328 22.836 10.8 6.246 11.117 15.595 17.017 28.436 16.985 12.637-.031 21.873-5.883 28.061-16.772 5.54-9.746 13.659-13.573 23.201-10.942 9.423 2.599 14.592 10.11 14.595 21.22q.003 15.741-.01 31.482c-.007 4.096 1.652 6.941 6.027 6.94s6.039-2.847 6.024-6.943c-.02-5.996-.005-11.993-.005-17.99zm1201.717 25.017c29.648 0 59.297.047 88.945-.017 19.602-.041 37.362-14.336 40.213-33.588 1.524-10.284.832-20.897 1.12-31.362.114-4.12-1.66-6.947-5.99-6.963-4.324-.015-6.075 2.78-6.053 6.913.035 6.663.01 13.325.015 19.988.015 20.729-12.174 33.007-32.819 33.01q-86.696.01-173.392.002c-1.663 0-3.767-.537-4.892.263-1.947 1.384-4.64 3.701-4.534 5.48.125 2.136 2.66 4.328 4.55 6.06.742.681 2.563.22 3.893.22q44.472.01 88.944-.006zM2094.014 655c0-11.5.08-23-.017-34.498a42 42 0 00-83.995.169c-.092 12.998-.02 25.998-.02 38.998 0 10.999-.04 21.999.022 32.998.022 3.978 2.154 6.348 6.168 6.272 3.748-.07 5.675-2.383 5.835-6.118.043-.998.007-2 .007-2.999 0-22.832-.08-45.665.026-68.497a30.107 30.107 0 0130.545-30.308c16.273.223 29.323 13.661 29.38 30.477.08 23.165.006 46.331.017 69.496.003 5.404 1.997 8.01 6.014 8.012 4.02.002 6.014-2.605 6.023-8.004q.03-17.999-.005-35.998zm-611.992-323.918c0-11.164.023-22.328-.005-33.491-.059-23.838-18.409-42.551-41.748-42.605-23.756-.054-42.241 18.522-42.282 42.567q-.059 34.241-.005 68.482c0 1.331-.457 3.122.218 3.903 1.674 1.934 3.898 4.721 5.87 4.696 1.974-.025 4.187-2.831 5.742-4.845.735-.954.207-2.904.207-4.402q.008-33.492.007-66.983c.012-17.827 12.961-31.376 29.956-31.383 17.006-.006 29.98 13.535 29.992 31.346q.024 33.991.007 67.982c.003 5.87 1.879 8.582 5.908 8.654 4.074.073 6.12-2.7 6.129-8.43q.028-17.746.004-35.491zm-360.001-.403c0-11.33.112-22.663-.065-33.99a45.681 45.681 0 00-1.413-10.84c-5.245-19.894-25.553-33.445-45.67-30.677-21.155 2.912-36.783 20.305-36.87 41.285-.1 23.494-.028 46.988-.019 70.482 0 1.162-.338 2.76.273 3.402 1.682 1.768 3.78 4.322 5.722 4.329s4.25-2.417 5.706-4.307c.828-1.076.328-3.218.329-4.88.013-22.827-.053-45.654.03-68.482a29.954 29.954 0 0159.907-.23c.106 22.66.026 45.321.027 67.982 0 1.167-.011 2.333.002 3.5.045 3.875 1.746 6.582 5.813 6.68 4.346.106 6.215-2.646 6.222-6.764q.035-18.745.006-37.49zm-42.11-135.659a42.017 42.017 0 10-41.928-41.857 41.85 41.85 0 0041.929 41.857zm359.804 0a41.84 41.84 0 0042.303-41.485c.095-23.632-18.404-42.493-41.734-42.549a42.018 42.018 0 00-.569 84.035zM1259.411 51.013q52.446 0 104.893-.003c1.498 0 3.446.554 4.4-.176 2.035-1.554 4.88-3.763 4.911-5.741.03-1.974-2.751-4.268-4.742-5.874-.924-.746-2.894-.226-4.39-.226q-104.394-.007-208.787-.004c-1.165 0-2.334-.056-3.495.018-3.7.237-6.053 2.217-6.11 5.914-.058 3.702 2.23 5.76 5.932 6.064 1.323.11 2.663.027 3.995.027h103.393zm-845.608 150a38.715 38.715 0 0039.204-38.804c.05-21.331-17.395-39.023-38.55-39.095a38.951 38.951 0 10-.655 77.899zm324.135 0a38.95 38.95 0 10-38.945-39.064 38.76 38.76 0 0038.945 39.064zM510.018 673.42c0-5.833.053-11.665-.01-17.497-.24-22.495-19.124-40.918-41.92-40.935-22.864-.017-41.85 18.312-42.084 40.76-.124 11.83.028 23.664-.06 35.494-.032 4.184 1.121 7.335 5.808 7.723 3.999.332 6.254-2.519 6.267-7.718.027-10.998-.015-21.996.004-32.994.032-17.683 13.216-31.332 30.14-31.238 16.747.094 29.773 13.648 29.814 31.064.026 11.164-.032 22.33.01 33.494.018 4.896 2.209 7.475 6.092 7.428 3.864-.048 5.905-2.599 5.94-7.584.041-5.999.009-11.998-.001-17.997zm65.622-478.41q34.959 0 69.917-.003c5.708-.002 8.519-2.06 8.433-6.115-.08-3.83-2.891-5.897-8.211-5.898q-69.668-.019-139.336-.002c-5.64.002-8.546 2.168-8.432 6.178.11 3.862 2.845 5.834 8.211 5.836q34.709.016 69.418.005zm.418-72q34.958 0 69.917-.005c5.287-.003 8.04-2.112 8.014-6.031-.025-3.86-2.83-5.978-8.13-5.98q-69.917-.02-139.834.002c-5.242.002-8.07 2.214-8.014 6.093.055 3.881 2.805 5.914 8.13 5.917q34.958.017 69.917.005zm1901.921 523.912l-.446.033c.484 6.455.396 13.015 1.558 19.346 3.72 20.271 23.614 34.449 45.123 32.617 20.063-1.708 37.162-19.55 37.795-39.437.171-5.374-1.673-8.195-5.549-8.488-3.905-.295-6.055 2.212-6.488 7.567-1.26 15.577-13.33 27.629-28.45 28.41a29.045 29.045 0 01-30.693-24.964c-1.362-9.134-.664-18.584-.782-27.892-.052-4.1-1.627-6.987-5.955-7.046-4.311-.058-6.134 2.72-6.117 6.86.018 4.332.004 8.663.004 12.994zm-2326.912.471l-1.05-.16c0-4.331-.046-8.663.013-12.993.056-4.053-1.429-6.88-5.808-7.203-3.868-.285-6.183 2.44-6.224 7.252-.062 7.329.012 14.66-.019 21.989-.07 16.606-12.571 29.972-28.676 30.695-16.028.719-29.793-11.646-31.266-28.087-.519-5.79-2.61-8.258-6.662-7.862-3.816.372-5.575 3.186-5.372 8.614.031.832.063 1.669.176 2.492a42.484 42.484 0 0037.281 36.768c18.895 2.078 37.31-8.78 43.671-27.111 2.66-7.664 2.703-16.235 3.936-24.394zm2096.316-328.498c-15.23-.113-27.251 11.45-27.394 26.352-.149 15.42 11.542 27.621 26.591 27.755a26.944 26.944 0 0027.434-26.464c.2-15.448-11.44-27.53-26.63-27.643zm-.858-151.806c15.169.203 27.237-11.337 27.486-26.282a27.023 27.023 0 10-54.028-1.398c-.152 15.571 11.263 27.476 26.542 27.68zM1079.933 531.01a27.015 27.015 0 10-26.956-27.296c-.08 15.428 11.628 27.284 26.956 27.296zm107.617 30.002c15.464.099 27.435-11.572 27.474-26.786a27.025 27.025 0 10-27.474 26.786zm-215.755 0c15.176.043 27.117-11.592 27.228-26.532.115-15.396-11.618-27.424-26.825-27.5a27.016 27.016 0 10-.403 54.032zm-287.943 0c15.163.03 27.076-11.627 27.172-26.59.098-15.387-11.655-27.384-26.883-27.442a27.016 27.016 0 10-.289 54.032zm1134.113-54.03q-25.974 0-51.948.012c-5.313.009-8.136 2.21-8.003 6.056.138 3.975 2.795 5.962 8.156 5.963q51.947.013 103.895-.015c5.316-.003 7.972-2.088 7.933-6.077-.04-3.94-2.69-5.919-8.085-5.924q-25.974-.025-51.948-.014zm.552 84.024c17.15 0 34.3.066 51.448-.084 2.157-.019 4.97-.571 6.265-1.987 1.252-1.368 1.942-4.817 1.063-6.185a8.79 8.79 0 00-6.282-3.604c-35.13-.221-70.262-.163-105.394-.147-1.15 0-2.725-.199-3.37.437-1.634 1.613-3.936 3.65-3.933 5.514.003 1.9 2.152 4.155 3.915 5.558 1.07.852 3.19.49 4.84.493q25.724.04 51.448.005zm-.129 59.977q-25.974 0-51.948.006c-5.492.005-8.297 1.914-8.44 5.638-.16 4.13 2.7 6.386 8.245 6.387q51.698.011 103.396-.013c5.721-.002 8.447-2.038 8.357-6.155-.085-3.91-2.741-5.845-8.16-5.85q-25.725-.022-51.45-.013zm-144.635-323.994a24.016 24.016 0 1024.256 23.897 23.762 23.762 0 00-24.256-23.897zm-23.76-47.946a24.009 24.009 0 1024.08-24.054 23.797 23.797 0 00-24.08 24.054zm48.016-71.934a24.009 24.009 0 10-24.247 23.911 23.785 23.785 0 0024.247-23.91zm-24.03-96.12a24.016 24.016 0 1024.03 24.123 23.768 23.768 0 00-24.03-24.123zm24.03-47.96a24.009 24.009 0 10-24.167 23.991 23.783 23.783 0 0024.167-23.991zM972.006 51.011c11.481 0 22.962.023 34.444-.01 4.87-.015 7.593-2.22 7.545-5.951-.049-3.797-2.726-6.038-7.557-6.046q-34.444-.054-68.887 0c-4.827.008-7.505 2.259-7.546 6.057-.04 3.728 2.683 5.926 7.557 5.94 11.481.033 22.962.01 34.444.01zm575.552 0c11.648 0 23.295.024 34.943-.011 4.847-.015 7.574-2.26 7.494-6.001-.081-3.789-2.754-5.989-7.608-5.996q-34.444-.05-68.888.002c-4.805.008-7.487 2.302-7.494 6.108-.008 3.719 2.71 5.875 7.608 5.889 11.315.03 22.63.01 33.945.01zm-540.786 396.004c8.65 0 17.302-.088 25.95.037 4.293.063 7.217-1.4 7.605-5.959.316-3.696-2.63-6.088-7.373-6.098q-26.2-.055-52.4-.004c-4.79.01-7.467 2.326-7.4 6.152.067 3.755 2.72 5.829 7.669 5.85 8.649.036 17.3.01 25.95.022zm967.22-149.028c0 8.642-.027 17.285.01 25.927.021 5.282 2.205 8.226 6.12 7.888 4.534-.391 5.939-3.394 5.92-7.642q-.114-25.926.017-51.853c.024-4.303-1.54-7.225-5.942-7.72-3.68-.413-6.106 2.923-6.126 7.972-.035 8.476-.011 16.952 0 25.428zm12.03-110.183c0-8.642-.057-17.284.025-25.925.04-4.196-1.285-7.292-5.89-7.67-3.977-.326-6.158 2.529-6.167 7.848q-.047 25.925.003 51.85c.01 4.559 2.576 7.644 6.096 7.58s5.901-3.109 5.922-7.758c.038-8.641.01-17.283.011-25.925zm-868.646 259.204c8.498 0 16.996.02 25.493-.007 5.264-.017 8.071-2.204 7.98-6.12-.087-3.767-2.76-5.872-7.72-5.88q-25.993-.044-51.987.006c-4.93.01-7.533 2.188-7.326 6.133.251 4.778 3.356 5.937 7.566 5.889 8.664-.1 17.329-.03 25.994-.021zm1372.646-361.41c1.038-12.956-2.819-25.539-13.603-35.59-3.648-3.4-7.53-4.025-10.097-1.541-2.971 2.875-2.404 6.504 1.623 10.295 4.85 4.566 8.515 9.915 9.25 16.631.63 5.755.666 11.587.755 17.388.12 7.791 1.577 10.59 5.926 10.689 4.441.1 6.143-2.794 6.146-10.45v-7.422zm-84.043 1.863c0 2.825.115 5.655-.027 8.472-.218 4.312 1.377 7.223 5.922 7.583 3.986.316 6.098-2.507 6.14-7.821.039-4.818-.026-9.637.017-14.455a30.329 30.329 0 019.956-22.554c3.913-3.701 4.586-6.802 2.008-9.815-2.482-2.9-6.596-2.417-10.412 1.134-10.93 10.17-14.687 22.93-13.604 37.456zM222.015 85.79a42.513 42.513 0 00-14.059-36.273c-3.48-3.2-7.69-3.382-10.101-.497-2.396 2.867-1.736 6.305 1.827 9.547 5.062 4.606 8.923 10.042 9.529 16.983.619 7.097.567 14.254.773 21.385.115 3.971 2.087 6.462 6.052 6.433s5.94-2.566 5.974-6.52c.028-3.162.005-6.324.005-11.058zm-84.014.129c0 4.722-.058 8.054.015 11.382.082 3.758 2.122 6.072 5.818 6.133 3.952.065 6.104-2.295 6.157-6.298.063-4.661.128-9.327.006-13.986-.264-10.1 3.372-18.397 10.778-25.288a8.046 8.046 0 002.301-5.941c-.191-1.673-2.308-4.231-3.795-4.396a10.095 10.095 0 00-7.09 2.042C140.887 59.582 136.803 72.5 138 85.918zm2267.978 376.08c0 7.83-.038 15.662.013 23.492.032 4.869 2.247 7.538 6.046 7.514 3.794-.025 5.96-2.677 5.97-7.59.035-15.329-.052-30.658.045-45.985.026-4.194-1.63-6.799-5.845-7.197-3.83-.362-6.173 2.475-6.206 7.273-.053 7.497-.014 14.995-.023 22.492zM150.015 365.13c0-7.649-.034-15.297.014-22.946.026-4.03-1.397-6.868-5.793-7.172-3.916-.27-6.218 2.368-6.233 7.195q-.073 22.945.003 45.891c.015 4.907 2.212 7.543 6.005 7.536 3.79-.008 5.947-2.64 5.984-7.558.059-7.648.016-15.297.02-22.946zm-.005-194.748c0-7.486.031-14.974-.01-22.46-.03-5.235-2.252-8.084-6.224-7.768-4.703.373-5.815 3.603-5.804 7.722.04 15.14-.012 30.28.018 45.42.01 4.85 2.217 7.547 5.986 7.563 3.745.015 6.005-2.728 6.034-7.517.045-7.653.012-15.306 0-22.96zm.014 292.294q0-11.736.003-23.471c.006-4.121-1.857-6.976-6.09-6.935-4.242.042-5.978 2.965-5.97 7.064q.037 23.22-.002 46.442c-.01 4.078 1.516 6.849 5.852 7.17 3.817.282 6.147-2.512 6.185-7.299.06-7.656.016-15.314.022-22.971zm71.991.113c0-7.816-.076-15.633.03-23.447.058-4.186-1.709-6.979-5.909-7.06-4.164-.08-6.183 2.53-6.17 6.782q.07 23.447 0 46.894c-.013 4.227 1.966 6.885 6.143 6.818 4.2-.068 5.988-2.86 5.936-7.04-.095-7.648-.027-15.298-.03-22.947zm2268.003-.008c0-7.821-.088-15.644.035-23.463.067-4.215-1.714-6.964-5.914-7.045-4.162-.08-6.198 2.48-6.182 6.762q.087 23.464.008 46.928c-.011 4.217 1.943 6.895 6.142 6.83 4.222-.066 5.986-2.877 5.938-7.047-.088-7.654-.024-15.31-.027-22.965zm-2268 97.32c0-7.657.032-15.315-.012-22.972-.028-4.824-2.249-7.651-5.91-7.722-3.679-.07-6.086 2.79-6.099 7.53q-.062 22.972.003 45.944c.015 5.021 2.07 7.387 6.153 7.217 4.46-.187 5.911-2.944 5.88-7.026-.059-7.656-.017-15.314-.015-22.97zm-.001-194.601c0-7.833-.026-15.666.01-23.5.019-4.104-1.65-6.951-5.984-6.994-4.352-.043-6.067 2.789-6.064 6.896q.018 23.25-.007 46.5c-.01 4.132 1.695 6.997 5.979 7.026 4.271.03 6.092-2.77 6.07-6.928-.04-7.667-.011-15.334-.004-23zm-12.04-195.08c0 7.48-.03 14.96.01 22.44.028 5.184 2.33 8.313 6.13 7.958 4.527-.423 5.949-3.485 5.93-7.703q-.1-22.937-.003-45.876c.023-4.215-1.795-6.734-5.923-7.13-3.694-.355-6.09 2.664-6.118 7.374-.046 7.645-.012 15.292-.026 22.938zm12.045 97.638c0-7.806-.031-15.612.013-23.418.023-4.072-1.583-7.002-5.886-7.09-4.256-.088-6.17 2.64-6.17 6.785q.006 23.42.002 46.838c-.002 4.125 1.815 6.878 6.117 6.822 4.332-.056 5.95-2.938 5.93-7.016-.038-7.64-.011-15.28-.006-22.92zm2267.992-.288c0-7.476.023-14.953-.008-22.43-.022-5.317-2.153-8.168-6.138-7.858-4.592.357-5.943 3.393-5.921 7.625.077 15.119.012 30.238.044 45.357.01 4.972 2.053 7.517 5.892 7.583 4.044.069 6.108-2.53 6.129-7.848.03-7.476.008-14.952.002-22.429zm-72.006 97.257c0-7.644-.027-15.288.01-22.931.02-4.04-1.447-6.952-5.86-7.05-4.373-.099-6.159 2.614-6.16 6.731l-.02 46.86c-.007 4.166 1.853 6.894 6.11 6.841 4.282-.053 5.971-2.903 5.941-7.02-.056-7.81-.016-15.621-.021-23.431zm59.972-.544c0 7.81.074 15.622-.03 23.43-.056 4.249 1.353 7.252 5.952 7.586 3.824.277 6.084-2.498 6.1-7.383q.07-22.933-.009-45.865c-.017-4.898-2.224-7.5-6.14-7.275-4.732.274-5.933 3.401-5.888 7.571.078 7.311.022 14.624.015 21.936zM150.022 268.419c0-7.972-.044-15.945.018-23.917.033-4.222-2.056-6.963-6.108-6.92-4.06.044-5.999 2.86-5.98 7.058q.104 23.17.023 46.34c-.008 4.035 1.38 6.86 5.821 7.102 3.928.214 6.161-2.392 6.2-7.24.058-7.474.015-14.949.026-22.423zm2267.985-97.879l.002-23.43c.004-4.113-1.85-6.935-6.092-6.88-4.25.056-5.942 2.96-5.935 7.05q.04 23.18-.006 46.36c-.009 4.056 1.58 6.838 5.863 7.193 3.767.312 6.11-2.542 6.155-7.362.071-7.644.02-15.287.013-22.931zm72-.265c0-7.643-.043-15.287.018-22.93.033-4.083-1.652-6.814-5.835-7.256-3.674-.388-6.162 2.639-6.178 7.364q-.081 22.929-.012 45.859c.013 4.804 2.35 7.596 6.054 7.557 3.682-.038 5.916-2.829 5.95-7.665.054-7.642.014-15.286.003-22.929zm-12.03 389.737c0 7.474-.034 14.95.012 22.423.033 5.493 1.943 7.826 6.23 7.63 4.87-.222 5.83-3.476 5.82-7.571-.04-15.115.005-30.23-.027-45.345-.01-4.513-2.542-7.68-5.982-7.702s-6.015 3.158-6.041 7.643c-.045 7.64-.012 15.282-.012 22.922zm-2339.995.1c0 7.499-.031 14.997.011 22.495.03 5.059 1.996 7.485 5.94 7.521 3.995.037 6.057-2.378 6.07-7.389.038-15.163.004-30.326.021-45.49.005-4.098-.916-7.36-5.958-7.36-4.29-.002-6.03 1.966-6.07 7.228-.057 7.665-.014 15.33-.014 22.995zm2280.033-292.399c0-7.5.025-15-.008-22.5-.022-4.832-2.226-7.673-5.899-7.752-3.677-.08-6.101 2.816-6.112 7.537q-.055 22.749-.006 45.498c.01 5.044 2.018 7.544 5.9 7.607 4.065.065 6.101-2.513 6.123-7.89.032-7.5.009-15 .002-22.5zm.01 292.424q0-11.73.003-23.46c.006-4.122-1.678-6.806-6.118-6.753-4.47.054-5.952 2.862-5.945 6.934q.04 23.212.013 46.423c.001 4.093 1.669 6.842 6.113 6.788 4.473-.053 5.948-2.927 5.939-6.97-.018-7.654-.006-15.308-.006-22.962zM846.435 519.021v-.016c5.494 0 10.988-.048 16.48.016 4.127.048 6.964-1.62 7.004-5.951.04-4.303-2.694-6.102-6.857-6.09q-16.98.049-33.96-.005c-4.085-.012-6.99 1.599-7.02 5.95-.03 4.296 2.723 6.124 6.874 6.104 5.826-.029 11.653-.008 17.479-.008zm1403.063-.016v.016c5.826 0 11.653-.029 17.48.01 4.134.028 6.926-1.734 6.938-6.042.012-4.348-2.858-6.019-6.954-6.011q-16.98.033-33.96-.001c-4.147-.015-6.923 1.717-6.923 6.028 0 4.325 2.797 6.054 6.938 6.013 5.493-.053 10.987-.013 16.48-.013zM846.024 591.02v-.016c5.66 0 11.32-.038 16.98.013 4.147.036 6.93-1.713 6.916-6.034-.013-4.314-2.802-6.024-6.944-6.008-11.32.043-22.64.022-33.961.003-4.101-.007-6.958 1.685-6.932 6.032.025 4.31 2.83 6.052 6.96 6.02 5.66-.041 11.32-.01 16.98-.01zm1403.496-.004c5.993 0 11.986.032 17.98-.01 3.962-.029 6.426-2.038 6.426-6.04 0-4.043-2.56-5.954-6.485-5.965q-17.48-.048-34.96 0c-3.978.008-6.422 2.022-6.41 6.024.014 4.017 2.499 5.96 6.469 5.972 5.66.017 11.32.005 16.98.02zM575.508 146.98c-5.494 0-10.988.038-16.482-.013-4.144-.039-6.91 1.71-6.935 6.025-.024 4.36 2.825 6.045 6.919 6.04q16.982-.018 33.964 0c4.09.006 6.95-1.664 6.935-6.024-.015-4.314-2.771-6.075-6.919-6.041-5.827.048-11.654.012-17.481.013zm270.126 504.004c-5.327 0-10.654-.035-15.981.01-4.96.043-7.596 2.11-7.65 5.88-.054 3.837 2.598 6.115 7.402 6.133 11.153.042 22.307-.034 33.46.019 4.115.02 6.82-1.568 7.098-5.906.246-3.838-2.505-6.072-7.35-6.116-5.658-.052-11.319-.012-16.979-.02zm1404.08 12.02v.017l17.48.001c4.19.004 6.821-1.977 6.728-6.247-.088-4.039-2.771-5.788-6.675-5.787-11.487.001-22.973.023-34.46-.006-3.94-.01-6.405 1.733-6.75 5.743-.318 3.698 2.354 6.18 6.699 6.255 5.658.098 11.319.025 16.979.025zm-395.803-107.992c5.66 0 11.32-.053 16.977.018 4.126.052 6.974-1.613 7.032-5.923.057-4.285-2.678-6.134-6.84-6.126-11.318.021-22.636.037-33.954-.016-4.113-.02-6.922 1.593-7.05 5.926-.131 4.472 2.887 6.05 6.858 6.108 5.658.083 11.318.021 16.977.013zm-71.485-12.03c-5.825 0-11.651.027-17.476-.009-4.153-.025-6.827 1.778-6.88 6.093-.052 4.186 2.78 5.883 6.54 5.914 11.65.094 23.302.052 34.954.02 3.981-.012 6.414-2.075 6.363-6.068-.05-3.996-2.567-5.928-6.523-5.938-5.66-.014-11.318-.003-16.978-.012zm-936.057 12.03c5.327 0 10.655-.091 15.978.03 4.238.097 7.288-1.243 7.615-5.897.273-3.905-2.663-6.134-7.84-6.148-10.82-.029-21.639.051-32.457-.044-4.224-.037-7.285 1.226-7.617 5.898-.284 3.984 2.51 6.116 7.843 6.159 5.493.043 10.986.01 16.478.003zm1403.22 0c5.992 0 11.988.116 17.975-.043 3.78-.1 6.51-1.9 6.37-6.078-.135-4.024-2.61-5.904-6.56-5.905-11.652-.003-23.303-.025-34.954.021-3.973.016-6.405 2.112-6.348 6.1.056 4.002 2.579 5.904 6.54 5.904h16.978zM846.367 614.981c-5.66 0-11.32-.04-16.978.013-4.842.045-7.524 2.248-7.352 6.127.2 4.488 3.2 5.874 7.13 5.885 11.318.033 22.637-.01 33.955.013 4.178.01 6.885-1.862 6.796-6.147-.09-4.304-2.96-5.954-7.074-5.902-5.491.069-10.985.017-16.477.011zM1782 627.012c5.66 0 11.319-.043 16.977.014 4.144.041 6.941-1.704 6.943-6.008.002-4.296-2.786-6.055-6.928-6.042q-16.977.05-33.955-.008c-4.132-.015-6.89 1.685-6.96 6.01-.074 4.48 2.992 5.976 6.946 6.024 5.658.07 11.318.018 16.977.01zm72.088-12.029c-5.493 0-10.987.083-16.478-.026-4.242-.085-7.264 1.28-7.562 5.949-.247 3.86 2.434 6.066 7.4 6.093 11.152.061 22.305-.022 33.456.031 4.128.02 6.967-1.63 7.015-5.94.048-4.286-2.696-6.133-6.854-6.11-5.66.032-11.319.008-16.978.003zm396.17.008c-5.992 0-11.985-.067-17.976.024-3.988.06-6.323 2.252-6.21 6.23.104 3.722 2.437 5.733 6.183 5.748q17.477.07 34.953 0c3.743-.022 6.66-1.563 6.721-5.746.064-4.285-2.495-6.27-6.694-6.266q-8.49.008-16.978.01zm-.153-144.001q-8.739 0-17.477.002c-3.952.005-6.485 1.91-6.554 5.91-.07 3.99 2.348 6.08 6.333 6.094 11.651.04 23.303.075 34.953-.015 3.758-.029 6.605-1.7 6.571-5.886-.034-4.31-2.689-6.143-6.849-6.121-5.66.03-11.32.007-16.978.016zM846.012 699.01c5.659 0 11.318-.04 16.977.014 4.147.04 6.936-1.717 6.93-6.02-.006-4.297-2.801-6.043-6.94-6.03q-16.977.053-33.955-.007c-4.134-.014-6.885 1.698-6.948 6.022-.065 4.48 3.007 5.966 6.96 6.013 5.657.067 11.317.017 16.976.008zm935.849 0c5.493 0 10.987-.092 16.477.03 4.235.094 7.29-1.234 7.623-5.888.28-3.906-2.658-6.143-7.83-6.157-10.818-.03-21.638.051-32.456-.044-4.221-.037-7.288 1.216-7.627 5.889-.288 3.984 2.507 6.123 7.835 6.168s10.652.01 15.978.003zm72.364-12.03c-5.659 0-11.319.062-16.977-.02-4.086-.06-6.846 1.468-7.201 5.807-.318 3.876 2.363 6.197 7.264 6.228 11.317.07 22.636.003 33.954.022 3.946.006 6.382-1.786 6.701-5.792.291-3.662-2.426-6.143-6.764-6.215-5.657-.094-11.318-.022-16.977-.029zm395.833.008c-5.825 0-11.651-.014-17.476.005-3.957.012-6.468 1.955-6.51 5.952-.04 3.993 2.4 6.041 6.38 6.052q17.227.049 34.454.005c3.941-.014 6.91-1.467 7.055-5.956.127-3.899-2.509-6.01-7.425-6.054-5.492-.048-10.985-.01-16.478-.003zM1211.751 447.001c3.996 0 7.993.062 11.988-.018 4.01-.08 6.316-2.248 6.191-6.234-.117-3.723-2.44-5.716-6.193-5.739q-11.737-.07-23.475 0c-3.753.023-6.076 2.016-6.192 5.74-.124 3.987 2.184 6.15 6.194 6.233 3.827.08 7.658.017 11.487.018zM639.077 146.99c-2.996 0-5.994-.078-8.987.02-3.76.122-5.945 2.19-6.017 5.915-.073 3.779 2.174 5.932 5.87 6.038 5.987.17 11.984.112 17.973.008 3.752-.065 5.982-2.162 6.022-5.901.04-3.726-2.118-5.868-5.874-6.042-2.99-.138-5.991-.028-8.987-.038zm-126.375 11.993v.019c3.162 0 6.335.165 9.483-.043 3.7-.246 5.87-2.39 5.745-6.163-.114-3.463-2.124-5.653-5.652-5.743a387.298 387.298 0 00-18.471-.008c-3.517.078-5.61 2.195-5.747 5.658-.146 3.712 1.888 5.995 5.657 6.24 2.983.195 5.989.04 8.985.04z"/><path class="b" d="M1230.019 182.823h59.962m0 0c0-6.652.664-13.32-.156-19.802-1.217-9.612 2.605-15.322 10.331-20.984 37.871-27.75 75.238-56.19 112.804-84.358 17.448-13.082 36.559-13.126 53.927-.116q59.368 44.472 118.723 88.96a9.937 9.937 0 014.48 8.787q-.147 105.737-.076 211.474c0 5.547-1.845 8.087-5.821 8.205-4.136.123-6.207-2.602-6.207-8.32q-.012-102.487.096-204.974c.01-4.13-1.242-6.56-4.541-9.018-38.591-28.743-77.018-57.707-115.572-86.5-11.357-8.482-24.636-8.435-36.108.128q-58.644 43.77-117.07 87.831a7.854 7.854 0 00-2.648 5.278c-.317 6.484.024 12.997-.181 19.49-.101 3.198.818 4.476 4.156 5.323 28.972 7.355 41.21 40.584 24.135 65.166a38.816 38.816 0 01-23.8 16.241c-4.043.912-4.497 2.617-4.488 6.005q.131 46.744.052 93.488a32.21 32.21 0 01-.082 4.494c-.49 3.454-2.705 5.93-6.031 5.142-2.218-.526-4.202-3.006-5.736-5.031-.73-.963-.184-2.906-.184-4.405q-.007-47.244-.011-94.488c0-.995-.086-1.989-.15-3.404h-59.805v5.802q0 46.245-.004 92.489c0 1.497.508 3.501-.25 4.387-1.652 1.928-3.906 4.413-6.032 4.53-1.785.098-4.027-2.61-5.495-4.517-.74-.962-.25-2.9-.25-4.398-.008-30.83-.107-61.66.103-92.488.032-4.652-.79-6.696-5.861-8.046-18.467-4.92-30.433-21.673-30.244-41.017a41.652 41.652 0 0131.325-39.778c4.05-1.013 5.044-2.684 4.729-6.401a39.294 39.294 0 01.034-9.978c1.55-8.833-2.34-14.024-9.378-19.19-37.179-27.29-73.91-55.188-110.877-82.769-11.104-8.285-24.56-8.266-35.71.056q-58.845 43.918-117.455 88.15c-1.575 1.189-2.513 4.176-2.526 6.332-.164 28.162-.108 56.326-.108 84.489l-.002 119.985a34.118 34.118 0 01-.076 4.494c-.463 3.46-2.504 5.44-6.036 5.386-3.536-.054-5.473-2.11-5.87-5.575a30.904 30.904 0 01-.053-3.497q-.003-104.737-.093-209.473a11.599 11.599 0 015.218-10.432q58.866-43.89 117.53-88.053c17.94-13.447 36.783-13.445 54.725-.001q59.162 44.33 118.326 88.656c3.1 2.317 4.506 4.9 4.404 8.83-.233 8.964-.073 17.937-.073 27.416m.435 12.359v59.526h59.168v-59.527zm71.886 1.1v57.472c13.508-1.92 23.82-14.85 23.64-29.28-.172-13.906-10.681-26.568-23.64-28.192zm-84.605.04c-13.456 1.355-24.268 15.187-23.713 30.044.51 13.632 12.024 26.862 23.713 27.133z"/><path class="c" d="M1793.981 362.991v-10.27q0-63.239.072-126.476c.01-3.372-.93-5.19-3.979-6.97-35.229-20.575-52.188-51.527-49.77-92.114 2.658-44.622 38.45-81.613 82.931-87.273 51.747-6.584 98.297 27.48 107.516 78.678 7.233 40.164-12.463 80.742-49.073 100.923-2.352 1.297-3.754 2.476-3.745 5.58q.188 67.237.096 134.474c0 .962.133 1.924.246 3.44 9.346 0 18.46-.068 27.572.053 1.92.025 4.335.166 5.607 1.29 1.382 1.221 2.606 3.855 2.237 5.5-.423 1.883-2.454 3.674-4.213 4.886-1.043.72-2.908.297-4.404.298q-68.986.013-137.973.007c-.833 0-1.666.008-2.5 0-3.955-.04-6.47-1.945-6.524-5.96-.056-4.044 2.463-6.021 6.401-6.05 7.832-.056 15.664-.016 23.496-.016zm41.904-144c46.197.018 84.055-37.682 84.11-83.759.053-46.2-37.655-84.174-83.632-84.22-46.312-.046-84.302 37.554-84.357 83.493-.056 46.588 37.551 84.468 83.88 84.486zm-29.679 143.594h59.412V226.458c-19.958 6.229-39.58 5.969-59.412.118z"/><path class="d" d="M614.53 38.986l211.46.001c26.08.001 44.026 17.877 44.027 43.871q.004 159.47-.005 318.938c-.001 21.033 12.092 33.145 33.163 33.183q9.748.017 19.496.005c3.954 0 6.98 1.34 7.283 5.766.264 3.854-2.552 6.304-7.329 6.234-10.14-.148-20.473.66-30.375-1.011-20.892-3.527-34.26-20.52-34.262-41.692q-.021-160.47-.007-320.938c0-19.865-12.506-32.319-32.511-32.32q-212.71-.015-425.418-.013c-7.31 0-10.072-1.65-10.038-6.015.033-4.36 2.802-6.009 10.058-6.009q107.229.002 214.458 0z"/><path class="e" d="M353.981 348.515q.002-43.237.011-86.474c.035-25.014 18.185-43.033 43.29-43.05 18.662-.012 37.323.025 55.985-.01a41.794 41.794 0 0129.818 11.887c7.62 7.206 15.327 14.324 22.842 21.638 9.665 9.407 21.257 13.985 34.62 14.368a32.072 32.072 0 01-.518 64.134c-19.04.235-34.291-7.992-47.333-21.212a267.148 267.148 0 00-11.95-11.358 35.79 35.79 0 00-5.272-3.323c-.489 1.965-1.401 3.93-1.404 5.896q-.114 67.73-.048 135.46c.001 9.615-.949 10.545-10.537 10.542q-50.485-.016-100.97-.012c-6.94-.002-8.527-1.582-8.53-8.512q-.018-44.987-.004-89.974zm12.038 86.067h95.959v-6.369q0-64.972-.041-129.944c-.012-6.636 2.156-11.794 8.456-14.48 6.449-2.75 11.922-.806 16.782 3.916 6.089 5.916 12.277 11.733 18.499 17.51 9.118 8.468 19.865 13.332 32.36 13.717 12.03.371 21.733-8.655 21.813-19.905.078-11.087-9.094-19.77-21.015-20.164-12.99-.43-25.054-4.027-35.099-12.461a294.527 294.527 0 01-23.437-21.69c-9.335-9.75-19.952-14.56-33.736-13.89-16.288.79-32.644.174-48.97.19-18.832.016-31.573 12.846-31.574 31.781q-.003 82.965.003 165.929z"/><path class="f" d="M798.016 348.787q.005 44.73 0 89.459c-.002 7.251-1.513 8.754-8.784 8.757q-51.476.017-102.953.013c-6.503-.001-8.292-1.763-8.294-8.28q-.02-68.218 0-136.437a13.14 13.14 0 00-.022-2.493c-.304-1.546-.773-3.06-1.174-4.588-1.554.754-3.39 1.198-4.615 2.314-6.273 5.717-12.232 11.785-18.591 17.4-13.926 12.295-30.038 18.726-48.675 15.036-15.927-3.153-26.36-18.489-24.733-34.5 1.809-17.79 17.134-29.044 31.611-28.744 12.773.265 24.035-4.51 33.395-13.443q11.921-11.376 23.967-22.622a41.066 41.066 0 0128.893-11.654q29.237-.068 58.474.003a41.71 41.71 0 0141.465 41.32c.139 29.486.033 58.972.036 88.459zm-12.26 86.034c.088-1.894.217-3.358.217-4.821q.018-84.25-.004-168.5a29.99 29.99 0 00-30.373-30.478c-18.666-.071-37.333.025-56-.035-8.179-.026-15.405 2.355-21.428 7.974-6.577 6.134-13.302 12.127-19.596 18.542-12.772 13.019-27.669 21.136-46.29 21.406-11.67.17-20.292 8.639-20.155 19.68a20.536 20.536 0 0020.419 20.359c12.909-.014 24.023-4.812 33.473-13.467 6.264-5.737 12.376-11.638 18.524-17.5 5.756-5.488 11.213-6.881 17.177-4.172 6.487 2.946 8.372 8.31 8.355 15.08q-.157 64.999-.053 130v5.932z"/><path class="d" d="M281.983 368.539q-.002-142.966.001-285.932c.002-25.652 18.028-43.609 43.759-43.62 10.83-.004 21.662.068 32.492-.033 4.212-.04 7.323 1.171 7.727 5.823.343 3.94-2.581 6.213-7.752 6.227-10.83.029-21.662.001-32.492.018-18.925.03-31.697 12.77-31.697 31.632q-.006 286.682-.007 573.363c-.002 25.047-18.877 43.51-43.882 42.989-20.752-.433-39.304-18.461-40.071-39.228-.32-8.653-.135-17.328-.05-25.992.045-4.425 2.477-7.02 6.219-6.75 4.068.292 5.784 2.816 5.785 6.714q.003 10.747.001 21.495c-.002 18.159 12.934 31.788 30.121 31.736 16.928-.051 29.846-13.685 29.846-31.51q.002-143.467 0-286.932zM2346.02 368.098q0 144.214.048 288.429c.011 12.607 5.868 22.17 17.323 27.543 11.471 5.38 22.462 3.64 32.158-4.472 6.875-5.752 10.233-13.436 10.402-22.382.145-7.662.096-15.33 0-22.993-.05-4.158 1.666-7.02 5.89-7.119 4.192-.098 6.355 2.573 6.164 6.794-.526 11.598.444 23.543-2.05 34.71-4.502 20.161-25.044 32.983-45.156 30.188-21.168-2.942-36.752-20.34-36.798-41.327-.074-33.324-.022-66.649-.023-99.973V83.612c0-20.285-12.354-32.586-32.737-32.598-10.664-.007-21.329.074-31.992-.023-5.771-.053-9.064-4.374-6.527-8.637.89-1.495 3.039-3.183 4.612-3.183 14.804 0 29.813-1.108 44.363.938 20.926 2.944 34.312 20.435 34.317 41.558q.027 143.215.007 286.43z"/><path class="f" d="M1482.02 587.293q-.001 34.492-.006 68.985c-.024 24.142-18.403 42.777-42.108 42.742-23.679-.035-41.908-18.677-41.92-42.929-.018-35.492.05-70.985-.014-106.477-.04-21.789-20.654-36.06-40.95-28.476-11.4 4.26-18.99 15.558-19 28.512q-.043 53.239-.007 106.478c-.01 22.142-14.564 39.122-36.474 42.61a25.01 25.01 0 01-2.985.259q-8.057.304-8.54-5.458c-.342-4.01 2.304-6.19 7.981-6.573a30.225 30.225 0 0027.966-30.358c.058-35.826-.107-71.653.074-107.478.084-16.746 7.7-29.486 22.53-37.293 14.871-7.828 29.712-6.697 43.477 2.751 11.902 8.17 17.912 19.932 17.948 34.43.087 35.826-.076 71.653.085 107.478.057 12.577 5.835 22.19 17.302 27.57 11.472 5.38 22.484 3.676 32.155-4.467 7.3-6.147 10.461-14.368 10.456-23.887q-.034-68.985-.011-137.97c0-1.167.03-2.335-.006-3.5-.122-4.076 1.479-6.867 5.814-7.216 3.84-.31 6.21 2.47 6.218 7.282q.057 36.492.016 72.985z"/><path class="c" d="M1617.709 686.988c11.788 0 22.913-.002 34.039.002a32.616 32.616 0 014.99.085c3.449.54 5.32 2.721 5.223 6.208-.09 3.262-1.944 5.22-5.21 5.672a21.963 21.963 0 01-2.996.055q-69.727.003-139.454.002c-.5 0-1-.008-1.5 0-4.199.07-6.852-1.839-6.73-6.17.11-4.003 2.677-5.857 6.627-5.855q15.745.009 31.49 0h5.825c.111-2.215.277-3.984.278-5.753.016-19.826-.091-39.654.095-59.479.034-3.563-1.179-5.711-3.841-7.92-26.983-22.377-30.62-59.605-7.76-86.105 16.438-19.055 37.893-25.154 61.89-18.304 23.223 6.63 37.805 22.707 42.2 46.592 4.3 23.371-3.33 42.913-21.662 58.219-1.502 1.254-3.338 3.28-3.355 4.964-.224 22.313-.15 44.629-.15 67.787zm-33.834-72.006a48.303 48.303 0 0048.118-47.978c-.003-26.108-21.608-47.88-47.618-47.987-26.418-.11-48.271 21.458-48.368 47.736-.096 26.337 21.601 48.199 47.867 48.229zm-20.942 71.698h42.055v-63.168c-14.124 4.776-27.96 4.492-42.055.127z"/><path class="d" d="M1478.213 434.988q88.73-.004 177.458-.005A41.831 41.831 0 011698 477.027q.082 106.725.01 213.45c0 1.33.427 3.13-.258 3.895-1.616 1.805-3.778 4.29-5.728 4.298-1.952.007-4.272-2.382-5.734-4.263-.826-1.064-.298-3.218-.298-4.881q-.012-104.975 0-209.95c.004-20.051-12.359-32.567-32.29-32.568q-176.459-.006-352.917-.002c-1.5 0-3 .035-4.499-.013-4.01-.128-6.331-2.236-6.215-6.23.11-3.728 2.43-5.667 6.187-5.762 1.332-.033 2.665-.01 3.998-.01q88.978 0 177.957-.003z"/><path class="e" d="M2562.02 332.963q-.004 141.974-.006 283.95c0 1.665.591 3.794-.21 4.896-1.482 2.043-3.781 4.796-5.76 4.812s-4.257-2.734-5.85-4.717c-.744-.924-.207-2.899-.207-4.397q-.01-284.7-.01-569.4c0-1.332-.483-3.11.183-3.908 1.644-1.968 3.816-4.8 5.796-4.816s4.324 2.711 5.836 4.738c.809 1.084.226 3.227.226 4.892q.008 141.975.002 283.95zM65.984 332.496q-.004-140.974 0-281.949c0-2.165-.683-4.759.265-6.39 1.23-2.116 3.78-4.781 5.758-4.778s4.297 2.75 5.791 4.79c.804 1.096.217 3.23.217 4.895q.005 284.698-.001 569.397c0 1.165.423 2.76-.17 3.414-1.728 1.907-3.874 4.75-5.852 4.748s-4.369-2.717-5.775-4.788c-.86-1.265-.227-3.559-.227-5.39q-.005-141.975-.006-283.95z"/><path class="f" d="M1937.985 621c0-23.164.081-46.328-.076-69.492-.029-4.132 1.335-6.827 4.763-9.094q42.51-28.104 84.891-56.401c15.84-10.53 32.95-10.586 48.66-.144q42.649 28.346 85.3 56.686c3.256 2.155 4.568 4.749 4.559 8.694q-.153 69.993-.063 139.986c-.001 5.209-2.256 8.055-6.255 7.732-4.688-.38-5.824-3.526-5.82-7.711.048-44.496-.007-88.991.107-133.486.01-3.826-.88-6.112-4.38-8.407-26.177-17.165-52.17-34.614-78.131-52.106-13.73-9.252-25.235-9.307-38.866-.147q-39.802 26.75-79.817 53.18c-2.904 1.912-2.84 4.08-2.84 6.72q.002 66.244-.009 132.487c0 1.499.539 3.466-.201 4.399-1.578 1.987-3.832 4.74-5.809 4.74s-4.168-2.79-5.822-4.736c-.669-.786-.187-2.573-.187-3.905q-.007-34.497-.004-68.994z"/><path class="g" d="M2155.245 182.013c-34.107 0-67.096.003-100.086-.002-7.888 0-9.18-1.325-9.18-9.347q-.003-32.994.004-65.988c.005-6.753 1.856-8.68 8.51-8.684q60.988-.032 121.976.02c15.761.035 25.534 10.027 25.55 25.714.015 14.83-.114 29.662.057 44.49a24.073 24.073 0 01-6.843 17.647c-3.56 3.74-7.168 7.435-10.708 11.193a22.434 22.434 0 00-6.448 14.747c-.589 12.335-9.66 20.412-21.286 19.135-11.11-1.22-18.663-12.464-16.492-24.32 1.635-8.928 6.39-15.955 12.836-22.044.555-.524.983-1.183 2.11-2.56zm-96.99-12.032h42.528c19.484 0 38.968.035 58.452-.02 4.8-.014 8.526 1.782 10.517 6.157 2.035 4.474.571 8.445-2.691 11.847-2.766 2.884-5.924 5.471-8.262 8.663a57.557 57.557 0 00-6.202 11.11c-1.505 3.473-.843 7.256 2.323 9.434a9.047 9.047 0 006.823.927c3.712-1.08 4.23-4.56 4.42-8.106a30.534 30.534 0 018.609-20.182c3.688-3.836 7.66-7.5 10.73-11.796 2.166-3.033 4.15-6.956 4.28-10.55.491-13.805.2-27.637.205-41.46.004-11.676-4.248-15.98-15.86-15.983q-54.956-.013-109.91-.006h-5.962z"/><path class="b" d="M2155.278 303.991c-3.226-3.662-6.044-6.428-8.352-9.57-5.535-7.531-8.627-15.86-6.04-25.28a18.851 18.851 0 0120.803-14.087c9.35 1.19 15.974 8.581 16.35 18.522a22.747 22.747 0 006.713 15.64c3.836 3.93 7.488 8.041 11.274 12.023a21.848 21.848 0 016.021 15.888c-.076 15.164.001 30.328-.034 45.492-.035 15.05-9.951 25.314-24.92 25.354q-61.488.166-122.978.035c-6.031-.004-8.104-2.11-8.112-8.104q-.044-33.994-.003-67.988c.006-6.206 1.766-7.908 8.082-7.911q47.491-.023 94.983-.014zm-96.866 12.02v59.985h96.28c7.328 0 14.659.125 21.983-.043 8.436-.193 13.264-5.157 13.29-13.486.048-14.823.251-29.652-.166-44.462-.092-3.291-2.05-6.806-3.944-9.695a48.165 48.165 0 00-7.69-8.488c-7.542-7.015-11.981-15.334-12.189-25.84a6.83 6.83 0 00-7.096-6.898c-4.095.322-6.164 3.028-6.759 6.83a14.33 14.33 0 00.424 4.424c1.42 8.427 8.288 13.014 13.505 18.671 3.417 3.706 5.848 7.372 3.844 12.437-2.073 5.242-6.405 6.63-11.697 6.604-19.984-.098-39.97-.04-59.955-.04z"/><path class="c" d="M353.976 638.64c.005-17.16.078-34.323-.053-51.483-.028-3.7 1.108-6.179 4.285-8.281 29.293-19.386 58.324-39.173 87.804-58.268 14.228-9.216 29.644-9.262 43.873-.059 29.493 19.075 58.515 38.877 87.806 58.266a8.793 8.793 0 014.386 8.224c-.097 34.655-.048 69.312-.059 103.968-.001 5.392-2.007 8-6.027 7.995-4.015-.005-6.008-2.61-6.01-8.013-.01-32.656-.056-65.313.083-97.97.014-3.395-1.033-5.463-3.814-7.306-27.202-18.032-54.266-36.275-81.527-54.216-10.911-7.18-22.428-7.228-33.342-.057-27.275 17.922-54.323 36.187-81.547 54.187-3.023 1.999-3.911 4.252-3.896 7.775q.207 48.734-.066 97.468c-.018 2.547-1.502 6.028-3.474 7.418-3.907 2.755-8.394-.973-8.41-6.664-.047-17.66-.017-35.322-.012-52.983z"/><path class="f" d="M726.022 626.622v5.25q0 29.47-.005 58.94c-.005 6.474-1.75 8.19-8.327 8.194q-33.716.02-67.432 0c-6.555-.004-8.273-1.717-8.275-8.244q-.014-43.457.01-86.913c.02-14.69 10.113-24.806 24.753-24.848 15.484-.046 30.969.022 46.453-.038a21.777 21.777 0 0115.797 6.254c4.084 3.913 7.884 8.276 12.498 11.435 4.08 2.793 9.073 5.793 13.725 5.895 10.4.228 21.143 8.807 19.592 21.648-1.423 11.777-12.945 19.002-25.276 16.297a34.93 34.93 0 01-18.475-10.22 57.728 57.728 0 01-3.56-4.608zm-12.04 60.103v-5.904c0-19.651.054-39.303-.04-58.955-.023-4.809 1.582-8.564 6.002-10.573 4.457-2.026 8.428-.778 11.795 2.657 1.744 1.78 3.53 3.52 5.292 5.282 4.637 4.64 9.497 8.895 16.41 9.686 4.693.537 8.934-2.261 9.385-6.211.479-4.194-2.757-7.578-7.809-7.762a32.79 32.79 0 01-23.051-10.323c-3.257-3.324-6.497-6.803-10.292-9.417-2.956-2.035-6.725-3.902-10.188-4.009-14.476-.443-28.973-.223-43.462-.188-9.486.022-13.999 4.617-14.003 14.177q-.016 38.221.008 76.442c0 1.618.134 3.237.217 5.099z"/><path class="b" d="M1122.019 632.007q-.005 29.492-.013 58.984c-.008 6.174-1.838 8.007-8.05 8.015q-33.99.043-67.981 0c-6.172-.01-7.978-1.856-7.981-8.086q-.029-58.484 0-116.968c.019-14.9 10.3-24.962 25.297-24.97q16.745-.007 33.49 0c14.964.011 25.186 10.103 25.228 25.04.055 19.329.013 38.657.01 57.985zm-12.293 54.837c.108-1.248.237-2.049.237-2.85q.018-55.21-.017-110.42c-.013-7.356-5.232-12.447-12.688-12.525-11.158-.116-22.317-.068-33.476-.021-8.94.037-13.75 4.947-13.755 14.004q-.028 53.461-.02 106.923v4.89z"/><path class="c" d="M1014.02 646.975q.006 21.976-.003 43.953c-.008 6.256-1.777 8.07-7.941 8.076q-34.214.031-68.428-.004c-5.827-.007-7.662-1.895-7.666-7.848q-.024-43.954.02-87.907c.03-13.837 10.51-24.178 24.44-24.242q17.481-.08 34.963-.002c14.32.06 24.544 10.24 24.599 24.52.055 14.484.012 28.969.016 43.454zm-72.001 39.607h59.953c0-28.209.083-56.013-.059-83.815-.034-6.712-5.087-11.59-11.863-11.694q-17.985-.277-35.976-.004c-6.961.105-11.977 5.528-12.035 12.7-.09 11.159-.02 22.32-.02 33.479v49.334z"/><path class="e" d="M1230.019 646.812q.004 21.973-.002 43.945c-.006 6.532-1.717 8.245-8.267 8.25q-33.708.02-67.416 0c-6.598-.004-8.349-1.71-8.35-8.166q-.017-43.695.015-87.39c.024-13.936 10.387-24.364 24.231-24.444q17.727-.103 35.456-.002c13.872.074 24.259 10.472 24.316 24.362.06 14.481.014 28.963.017 43.445zm-12.357 40.024a22.528 22.528 0 00.302-2.397c.015-26.971.068-53.943-.014-80.915-.022-7.277-5.35-12.421-12.76-12.494-10.987-.107-21.976-.054-32.964-.026-9.226.024-14.2 4.968-14.205 14.1q-.018 38.46 0 76.92v4.811z"/><path class="g" d="M2122.284 38.987l105.92.003a29.546 29.546 0 014.49.075c3.448.536 5.868 2.838 5.075 6.112-.534 2.209-3.06 4.164-5.106 5.677-.975.72-2.907.156-4.406.156l-209.84.005c-19.977.003-32.389 12.44-32.394 32.413-.002 6.662.055 13.324-.016 19.985-.053 4.988-2.183 7.584-5.997 7.59-3.817.006-6.078-2.595-5.994-7.569.173-10.298-.522-20.77 1.107-30.852 3.182-19.698 20.756-33.575 40.742-33.589q53.21-.037 106.419-.006z"/><path class="c" d="M654.02 421.99c0 5.997-.015 11.994.005 17.99.015 4.096-1.648 6.943-6.024 6.943s-6.034-2.844-6.027-6.94q.028-15.74.01-31.482c-.003-11.11-5.172-18.62-14.595-21.22-9.542-2.631-17.661 1.196-23.2 10.942-6.189 10.889-15.425 16.741-28.062 16.772-12.841.032-22.19-5.868-28.436-16.986-5.32-9.471-13.355-13.224-22.836-10.799-9.394 2.404-14.83 10.103-14.837 21.037-.007 10.327.027 20.655-.009 30.982-.018 5.232-2.247 8.04-6.253 7.728-4.725-.368-5.831-3.561-5.802-7.721.077-11.16-.046-22.32.047-33.48.118-14.33 8.984-25.926 22.746-29.97 13.72-4.032 27.573.9 35.475 12.664 1.666 2.48 2.95 5.267 4.871 7.518 9.244 10.827 25.167 9.136 32.23-3.459 5.544-9.887 13.255-16.255 24.88-17.796 18.222-2.416 35.184 11.452 35.771 29.79.187 5.823.03 11.658.03 17.488z"/><path class="d" d="M1855.737 447.013q-44.472.008-88.945 0c-1.33 0-3.151.462-3.893-.219-1.89-1.733-4.424-3.925-4.55-6.06-.105-1.78 2.587-4.096 4.534-5.481 1.125-.8 3.229-.263 4.892-.263q86.696-.007 173.392-.003c20.645-.002 32.834-12.28 32.82-33.009-.006-6.662.02-13.325-.016-19.987-.022-4.133 1.729-6.929 6.053-6.913 4.33.015 6.104 2.843 5.99 6.962-.288 10.465.404 21.078-1.12 31.362-2.851 19.253-20.611 33.547-40.213 33.589-29.647.064-59.295.017-88.944.022z"/><path class="c" d="M2094.02 655q.008 18-.001 35.998c-.01 5.4-2.003 8.006-6.022 8.004-4.018-.003-6.012-2.608-6.015-8.011-.011-23.166.063-46.332-.016-69.497-.058-16.816-13.108-30.254-29.381-30.477a30.107 30.107 0 00-30.545 30.308c-.106 22.832-.026 45.665-.026 68.497 0 1 .036 2.001-.006 3-.16 3.734-2.088 6.047-5.836 6.117-4.014.076-6.145-2.294-6.168-6.272-.061-11-.023-21.999-.022-32.998 0-13-.072-26 .02-38.999a42 42 0 0183.996-.168c.097 11.499.016 22.999.022 34.498z"/><path class="e" d="M1482.023 331.082q0 17.745-.005 35.49c-.01 5.73-2.055 8.504-6.13 8.431-4.028-.072-5.904-2.783-5.907-8.654q-.015-33.99-.007-67.982c-.012-17.811-12.987-31.352-29.993-31.346-16.994.007-29.943 13.556-29.955 31.383q-.023 33.492-.007 66.983c0 1.498.528 3.448-.208 4.402-1.554 2.014-3.767 4.82-5.741 4.845-1.972.025-4.196-2.762-5.87-4.696-.676-.78-.217-2.571-.218-3.902q-.01-34.242.004-68.483c.042-24.045 18.526-42.621 42.283-42.567 23.339.054 41.69 18.767 41.748 42.605.028 11.163.005 22.327.006 33.49z"/><path class="f" d="M1122.022 330.679q.002 18.745-.007 37.49c-.007 4.117-1.876 6.87-6.222 6.765-4.067-.099-5.768-2.806-5.813-6.682-.013-1.166-.002-2.333-.002-3.5 0-22.66.079-45.321-.027-67.982a29.954 29.954 0 00-59.908.231c-.083 22.827-.016 45.655-.029 68.482 0 1.662.5 3.804-.329 4.88-1.456 1.89-3.763 4.313-5.706 4.307s-4.04-2.56-5.722-4.33c-.61-.641-.272-2.24-.273-3.402-.01-23.494-.08-46.988.018-70.481.088-20.98 15.716-38.374 36.871-41.285 20.117-2.768 40.425 10.783 45.67 30.677a45.681 45.681 0 011.413 10.84c.177 11.327.065 22.66.066 33.99z"/><path class="d" d="M1079.912 195.02a42.017 42.017 0 1142.106-41.681 41.842 41.842 0 01-42.106 41.681zm.145-12.04a29.98 29.98 0 10-30.038-29.802 30.153 30.153 0 0030.038 29.802zM1439.715 195.02a42.018 42.018 0 01.57-84.034c23.329.056 41.828 18.917 41.733 42.55a41.84 41.84 0 01-42.303 41.485zm.31-71.999a29.98 29.98 0 1029.957 29.876 30.102 30.102 0 00-29.957-29.876zM1259.411 51.012h-103.394c-1.332 0-2.671.081-3.994-.028-3.702-.304-5.99-2.362-5.932-6.064.058-3.697 2.41-5.677 6.11-5.914 1.16-.074 2.33-.018 3.495-.018q104.393 0 208.786.004c1.496 0 3.467-.52 4.39.226 1.99 1.606 4.773 3.9 4.743 5.874-.03 1.978-2.876 4.187-4.91 5.741-.956.73-2.904.176-4.402.176q-52.445.005-104.892.003z"/><path class="e" d="M413.803 201.012a38.951 38.951 0 11.655-77.899c21.154.073 38.599 17.764 38.55 39.095a38.715 38.715 0 01-39.205 38.804zm.124-12.036a27.202 27.202 0 0027.046-26.899c.028-14.489-12.71-27.133-27.155-26.954-14.449.18-26.685 12.439-26.775 26.826a27.098 27.098 0 0026.884 27.027z"/><path class="f" d="M737.938 201.012a38.705 38.705 0 01-38.945-39.063 39.01 39.01 0 1138.945 39.063zm-.132-12.037a27.092 27.092 0 0027.152-26.76c.073-14.536-12.484-27.128-27.016-27.091-14.328.036-26.787 12.395-26.914 26.697a27.174 27.174 0 0026.778 27.154zM510.023 673.421c.005 6 .037 11.998-.005 17.997-.035 4.986-2.075 7.537-5.94 7.584-3.883.048-6.074-2.532-6.092-7.428-.042-11.164.016-22.33-.01-33.494-.041-17.416-13.067-30.97-29.814-31.063-16.925-.095-30.108 13.555-30.14 31.237-.02 10.998.023 21.996-.004 32.994-.013 5.2-2.268 8.05-6.267 7.719-4.687-.389-5.84-3.54-5.808-7.723.088-11.83-.063-23.664.06-35.494.234-22.449 19.22-40.777 42.083-40.76 22.797.017 41.682 18.44 41.922 40.934.063 5.832.01 11.665.015 17.497z"/><path class="d" d="M575.64 195.012q-34.709 0-69.418-.005c-5.366-.002-8.101-1.974-8.211-5.836-.114-4.01 2.793-6.177 8.432-6.178q69.668-.015 139.336.002c5.32.001 8.13 2.068 8.211 5.898.086 4.055-2.725 6.113-8.433 6.115q-34.958.012-69.917.004z"/><path class="e" d="M576.058 123.012q-34.959 0-69.918-.005c-5.323-.003-8.074-2.036-8.13-5.918-.055-3.878 2.772-6.09 8.015-6.092q69.917-.024 139.834-.001c5.299.001 8.105 2.119 8.13 5.978.025 3.92-2.728 6.028-8.015 6.031q-34.958.022-69.916.007z"/><path class="d" d="M2477.979 646.923c0-4.331.014-8.662-.004-12.994-.017-4.14 1.805-6.918 6.117-6.86 4.328.059 5.903 2.947 5.955 7.046.118 9.308-.58 18.758.782 27.892a29.045 29.045 0 0030.692 24.963c15.122-.78 27.19-12.832 28.451-28.41.433-5.354 2.583-7.861 6.488-7.566 3.876.293 5.72 3.114 5.549 8.488-.634 19.888-17.732 37.729-37.795 39.437-21.51 1.832-41.404-12.346-45.123-32.617-1.162-6.33-1.074-12.89-1.558-19.346z"/><path class="f" d="M151.067 647.394c-1.233 8.159-1.276 16.73-3.935 24.394-6.36 18.33-24.777 29.188-43.671 27.11a42.484 42.484 0 01-37.282-36.767c-.113-.824-.144-1.66-.176-2.492-.203-5.428 1.557-8.242 5.373-8.615 4.052-.395 6.143 2.072 6.662 7.863 1.473 16.44 15.238 28.806 31.266 28.087 16.104-.723 28.606-14.089 28.676-30.695.03-7.33-.043-14.66.019-21.99.04-4.81 2.356-7.536 6.224-7.251 4.379.323 5.863 3.15 5.808 7.203-.06 4.33-.013 8.662-.013 12.993z"/><path class="b" d="M2247.383 318.896c15.192.113 26.831 12.195 26.63 27.643a26.944 26.944 0 01-27.433 26.464c-15.05-.134-26.74-12.335-26.592-27.755.144-14.901 12.165-26.465 27.395-26.352zm14.602 27.101a15.118 15.118 0 00-14.784-15.047 14.887 14.887 0 00-15.189 15.04 14.986 14.986 0 0029.973.008z"/><path class="g" d="M2246.525 167.09c-15.279-.205-26.694-12.109-26.542-27.68a27.023 27.023 0 1154.028 1.398c-.249 14.945-12.317 26.485-27.486 26.282zm.289-12.044a15.06 15.06 0 0015.17-14.66c.118-8.18-7.002-15.398-15.127-15.335a15.292 15.292 0 00-14.847 15.049 14.904 14.904 0 0014.804 14.947z"/><path class="b" d="M1079.933 531.01c-15.328-.011-27.036-11.868-26.956-27.296a27.023 27.023 0 1126.956 27.296zm-.088-12.032a14.979 14.979 0 10-14.825-14.993 15.106 15.106 0 0014.825 14.992z"/><path class="e" d="M1187.55 561.012a27.02 27.02 0 1127.474-26.786c-.04 15.214-12.01 26.885-27.474 26.786zm15.43-26.937a14.982 14.982 0 00-29.96-.358 14.982 14.982 0 1029.96.358z"/><path class="c" d="M971.795 561.012a27.016 27.016 0 11.403-54.031c15.207.075 26.94 12.103 26.825 27.499-.111 14.94-12.052 26.575-27.228 26.532zm-.166-12.043a14.97 14.97 0 0015.35-14.453 14.985 14.985 0 10-29.959-.742 15.017 15.017 0 0014.609 15.195z"/><path class="f" d="M683.852 561.012a27.016 27.016 0 11.289-54.031c15.228.057 26.98 12.054 26.883 27.441-.096 14.963-12.009 26.62-27.172 26.59zm-.156-12.043a14.975 14.975 0 0015.284-14.52 14.984 14.984 0 10-29.96-.608 15.017 15.017 0 0014.676 15.128z"/><path class="g" d="M1817.965 506.987l51.948.01c5.396.005 8.046 1.983 8.085 5.924.039 3.99-2.617 6.073-7.933 6.077q-51.948.03-103.896.015c-5.36-.001-8.017-1.988-8.155-5.963-.133-3.847 2.69-6.047 8.003-6.056q25.974-.045 51.948-.007zM1818.517 591.011q-25.724.01-51.448-.01c-1.65-.003-3.77.359-4.84-.493-1.763-1.403-3.913-3.658-3.915-5.558-.003-1.864 2.3-3.901 3.934-5.514.644-.636 2.218-.436 3.37-.437 35.13-.016 70.262-.074 105.392.147a8.79 8.79 0 016.283 3.604c.88 1.368.19 4.817-1.063 6.185-1.296 1.416-4.108 1.968-6.265 1.987-17.148.15-34.298.084-51.448.09zM1818.389 650.987l51.448.01c5.42.005 8.076 1.94 8.161 5.849.09 4.117-2.636 6.153-8.357 6.156q-51.698.02-103.396.012c-5.544-.001-8.405-2.257-8.245-6.387.143-3.724 2.948-5.633 8.44-5.638q25.975-.025 51.948-.002z"/><path class="d" d="M1673.753 326.989a24.016 24.016 0 11-23.76 24.374 23.783 23.783 0 0123.76-24.374zm12.221 23.735a11.98 11.98 0 10-11.809 12.244 12.275 12.275 0 0011.809-12.244z"/><path class="e" d="M1649.992 279.043a24.009 24.009 0 1123.673 23.977 23.757 23.757 0 01-23.673-23.977zm35.986.07a11.983 11.983 0 10-12.2 11.855 12.258 12.258 0 0012.2-11.856z"/><path class="f" d="M1698.009 207.11a24.009 24.009 0 11-24.033-24.121 23.79 23.79 0 0124.033 24.12zm-12.032-.043a11.982 11.982 0 10-12.155 11.9 12.25 12.25 0 0012.155-11.9z"/><path class="e" d="M1673.978 110.989a24.017 24.017 0 11-23.986 24.148 23.786 23.786 0 0123.986-24.148zm11.996 23.766a11.98 11.98 0 10-11.839 12.213 12.276 12.276 0 0011.84-12.213z"/><path class="d" d="M1698.009 63.029a24.009 24.009 0 11-24.114-24.04 23.788 23.788 0 0124.114 24.04zm-23.79-12.006a11.977 11.977 0 1011.761 12.327 12.217 12.217 0 00-11.761-12.327zM972.006 51.011c-11.481 0-22.963.023-34.444-.01-4.874-.014-7.597-2.212-7.557-5.94.041-3.799 2.72-6.05 7.546-6.057q34.443-.054 68.887 0c4.831.007 7.509 2.25 7.557 6.046.048 3.73-2.676 5.936-7.545 5.95-11.482.034-22.963.011-34.444.011zM1547.558 51.011c-11.315 0-22.63.022-33.945-.01-4.898-.013-7.616-2.17-7.608-5.889.007-3.806 2.69-6.099 7.494-6.107q34.444-.058 68.888-.002c4.854.007 7.527 2.207 7.608 5.995.08 3.741-2.647 5.987-7.494 6.002-11.648.035-23.295.011-34.943.011z"/><path class="f" d="M1006.772 447.009c-8.65-.006-17.3.02-25.95-.016-4.948-.021-7.602-2.095-7.668-5.85-.068-3.826 2.61-6.142 7.4-6.152q26.2-.054 52.4.004c4.743.01 7.688 2.402 7.373 6.098-.389 4.559-3.312 6.022-7.605 5.96-8.648-.126-17.3-.038-25.95-.044z"/><path class="d" d="M1973.986 297.987c-.006-8.476-.03-16.952.004-25.428.02-5.049 2.446-8.385 6.126-7.972 4.403.495 5.966 3.417 5.942 7.72q-.148 25.926-.016 51.853c.019 4.248-1.386 7.25-5.92 7.643-3.915.338-6.1-2.607-6.122-7.889-.035-8.642-.009-17.285-.014-25.927zM1986.022 187.804c0 8.642.027 17.284-.011 25.926-.021 4.649-2.4 7.692-5.922 7.757s-6.087-3.021-6.096-7.58q-.053-25.924-.003-51.85c.01-5.319 2.19-8.173 6.167-7.848 4.605.378 5.93 3.474 5.89 7.67-.082 8.641-.025 17.283-.025 25.925zM1117.376 447.003c-8.665-.004-17.33-.074-25.994.026-4.21.048-7.315-1.111-7.566-5.889-.207-3.945 2.396-6.123 7.326-6.133q25.994-.055 51.987-.007c4.96.009 7.633 2.114 7.72 5.881.09 3.916-2.716 6.103-7.98 6.12-8.497.027-16.995.007-25.493.002z"/><path class="g" d="M2490.022 85.597v7.423c-.003 7.656-1.705 10.55-6.146 10.45-4.349-.098-5.806-2.897-5.926-10.69-.09-5.8-.125-11.631-.755-17.387-.735-6.715-4.4-12.065-9.25-16.63-4.028-3.792-4.595-7.42-1.624-10.296 2.567-2.484 6.45-1.86 10.098 1.541 10.784 10.05 14.641 22.634 13.603 35.59z"/><path class="e" d="M2405.979 87.46c-1.083-14.525 2.675-27.284 13.604-37.455 3.816-3.552 7.93-4.035 10.412-1.134 2.578 3.012 1.905 6.113-2.008 9.814a30.329 30.329 0 00-9.956 22.555c-.043 4.818.022 9.637-.017 14.455-.042 5.314-2.154 8.137-6.14 7.82-4.545-.36-6.14-3.27-5.922-7.582.141-2.818.026-5.648.026-8.472z"/><path class="f" d="M222.015 85.79c0 4.735.023 7.897-.005 11.058-.035 3.954-2.01 6.491-5.974 6.52s-5.937-2.462-6.052-6.433c-.206-7.131-.154-14.288-.773-21.385-.606-6.941-4.467-12.377-9.53-16.983-3.562-3.242-4.222-6.68-1.826-9.547 2.41-2.885 6.62-2.703 10.101.497a42.513 42.513 0 0114.06 36.273z"/><path class="b" d="M138 85.918c-1.197-13.418 2.887-26.336 14.19-36.352a10.095 10.095 0 017.09-2.041c1.488.164 3.604 2.722 3.796 4.396a8.046 8.046 0 01-2.301 5.94c-7.406 6.891-11.043 15.19-10.778 25.289.122 4.659.057 9.325-.006 13.986-.054 4.002-2.205 6.363-6.157 6.297-3.697-.06-5.736-2.375-5.818-6.132-.073-3.329-.016-6.66-.016-11.383z"/><path class="g" d="M2405.983 461.998c.005-7.497-.034-14.995.018-22.492.034-4.798 2.377-7.636 6.206-7.273 4.217.398 5.872 3.003 5.846 7.196-.097 15.328-.01 30.657-.045 45.985-.01 4.913-2.176 7.566-5.97 7.59-3.8.025-6.014-2.645-6.046-7.513-.051-7.831-.014-15.662-.009-23.493z"/><path class="e" d="M150.013 365.13c-.002 7.649.04 15.298-.018 22.946-.037 4.918-2.195 7.55-5.984 7.558-3.793.007-5.99-2.629-6.005-7.536q-.071-22.945-.003-45.891c.015-4.827 2.317-7.466 6.233-7.195 4.396.304 5.819 3.143 5.793 7.172-.048 7.649-.014 15.297-.016 22.946z"/><path class="b" d="M150.016 170.382c.006 7.654.04 15.307-.006 22.96-.029 4.789-2.288 7.532-6.033 7.517-3.77-.016-5.977-2.713-5.986-7.563-.03-15.14.022-30.28-.019-45.42-.011-4.119 1.102-7.348 5.804-7.722 3.972-.316 6.194 2.533 6.223 7.768.043 7.487.011 14.974.017 22.46z"/><path class="d" d="M150.021 462.676c-.003 7.657.04 15.315-.02 22.971-.037 4.787-2.367 7.581-6.184 7.299-4.336-.321-5.863-3.092-5.852-7.17q.061-23.221.001-46.442c-.007-4.099 1.73-7.022 5.971-7.064 4.233-.041 6.096 2.814 6.09 6.935q-.015 11.735-.006 23.47z"/><path class="e" d="M222.017 462.789c0 7.65-.067 15.3.028 22.948.052 4.18-1.736 6.972-5.936 7.039-4.177.067-6.156-2.59-6.144-6.818q.067-23.447.002-46.894c-.013-4.251 2.005-6.862 6.17-6.782 4.2.081 5.966 2.874 5.909 7.06-.107 7.814-.03 15.63-.03 23.447zM2490.02 462.781c0 7.655-.063 15.31.026 22.965.048 4.17-1.717 6.98-5.939 7.047-4.199.065-6.153-2.613-6.142-6.83q.059-23.464-.008-46.928c-.016-4.282 2.02-6.843 6.182-6.762 4.2.08 5.981 2.83 5.914 7.044-.123 7.82-.035 15.643-.034 23.464z"/><path class="d" d="M222.017 560.101c0 7.657-.043 15.315.016 22.972.032 4.081-1.42 6.839-5.88 7.025-4.082.17-6.137-2.195-6.153-7.216q-.07-22.972-.002-45.944c.013-4.74 2.42-7.601 6.098-7.53 3.662.07 5.882 2.897 5.91 7.722.045 7.656.012 15.314.011 22.971z"/><path class="b" d="M222.013 365.5c-.003 7.667-.032 15.333.009 23 .022 4.159-1.8 6.958-6.07 6.928-4.284-.029-5.99-2.894-5.98-7.026q.057-23.25.008-46.5c-.004-4.107 1.711-6.94 6.064-6.896 4.333.043 6.002 2.89 5.983 6.995-.036 7.833-.01 15.666-.014 23.499z"/><path class="e" d="M209.984 170.42c.007-7.645-.027-15.292.02-22.937.029-4.71 2.424-7.73 6.118-7.374 4.128.396 5.946 2.915 5.923 7.13q-.13 22.937.003 45.876c.019 4.218-1.403 7.28-5.93 7.702-3.8.355-6.102-2.773-6.13-7.957-.042-7.48-.011-14.96-.004-22.44z"/><path class="d" d="M222.02 268.058c-.003 7.64-.03 15.28.007 22.92.02 4.08-1.598 6.96-5.93 7.017-4.301.056-6.118-2.697-6.116-6.822q.01-23.419-.002-46.838c0-4.145 1.914-6.873 6.17-6.785 4.302.088 5.909 3.018 5.886 7.09-.044 7.806-.013 15.612-.016 23.418z"/><path class="e" d="M2490.017 267.77c.003 7.476.025 14.953-.005 22.43-.021 5.317-2.085 7.916-6.129 7.847-3.84-.066-5.881-2.611-5.892-7.583-.032-15.119.034-30.238-.044-45.357-.022-4.232 1.329-7.268 5.921-7.625 3.985-.31 6.116 2.54 6.138 7.859.03 7.476.008 14.953.01 22.429z"/><path class="d" d="M2418.01 365.027c.003 7.81-.037 15.62.02 23.43.03 4.118-1.66 6.968-5.941 7.02-4.258.053-6.118-2.675-6.11-6.84q.041-23.43.019-46.86c.001-4.117 1.786-6.83 6.16-6.732 4.412.1 5.88 3.012 5.86 7.05-.037 7.644-.01 15.288-.008 22.932zM2477.984 364.483c.003-7.312.059-14.625-.019-21.936-.044-4.17 1.156-7.297 5.889-7.57 3.915-.227 6.122 2.376 6.14 7.274q.08 22.932.008 45.865c-.015 4.885-2.275 7.66-6.1 7.383-4.598-.334-6.008-3.337-5.951-7.585.103-7.81.029-15.62.033-23.431zM150.016 268.42c-.005 7.473.039 14.948-.02 22.422-.039 4.848-2.272 7.454-6.2 7.24-4.441-.242-5.83-3.067-5.821-7.102q.046-23.17-.023-46.34c-.019-4.198 1.92-7.014 5.98-7.057 4.052-.044 6.14 2.697 6.107 6.919-.061 7.972-.017 15.945-.023 23.917z"/><path class="g" d="M2418.01 170.54c.003 7.644.055 15.287-.016 22.93-.045 4.82-2.388 7.674-6.155 7.362-4.283-.354-5.871-3.136-5.863-7.193q.047-23.18.006-46.36c-.007-4.089 1.685-6.993 5.935-7.049 4.243-.055 6.096 2.766 6.092 6.88q-.013 11.715.001 23.43z"/><path class="f" d="M2490.013 170.275c.005 7.643.045 15.287-.01 22.93-.033 4.836-2.267 7.627-5.95 7.665-3.704.038-6.04-2.753-6.053-7.557q-.065-22.93.012-45.86c.016-4.724 2.504-7.75 6.178-7.363 4.183.441 5.868 3.173 5.835 7.256-.061 7.642-.018 15.286-.012 22.929z"/><path class="d" d="M2477.977 560.012c0-7.64-.033-15.281.012-22.921.026-4.486 2.6-7.665 6.04-7.644s5.973 3.19 5.983 7.703c.032 15.115-.012 30.23.026 45.344.01 4.096-.948 7.35-5.819 7.572-4.287.195-6.197-2.138-6.23-7.63-.046-7.475-.012-14.95-.012-22.424z"/><path class="f" d="M137.982 560.112c0-7.665-.043-15.33.015-22.995.04-5.262 1.78-7.23 6.07-7.229 5.042.002 5.962 3.263 5.958 7.36-.018 15.164.017 30.328-.022 45.49-.012 5.012-2.074 7.427-6.069 7.39-3.944-.036-5.912-2.462-5.94-7.521-.043-7.498-.012-14.997-.012-22.495z"/><path class="d" d="M2418.019 267.713c.003 7.5.026 15-.005 22.499-.023 5.378-2.059 7.956-6.124 7.89-3.881-.063-5.89-2.563-5.9-7.606q-.048-22.75.006-45.499c.011-4.72 2.435-7.617 6.112-7.537 3.673.08 5.877 2.92 5.899 7.753.034 7.5.008 15 .012 22.5z"/><path class="f" d="M2418.024 560.137c0 7.654-.012 15.308.005 22.962.01 4.042-1.465 6.916-5.938 6.97-4.444.053-6.112-2.696-6.113-6.789q-.005-23.211-.013-46.422c-.007-4.072 1.475-6.88 5.945-6.934 4.44-.054 6.124 2.63 6.118 6.752q-.018 11.73-.004 23.461zM846.436 519.021c-5.827 0-11.653-.021-17.48.008-4.15.02-6.903-1.808-6.874-6.105.03-4.35 2.935-5.961 7.02-5.95q16.98.047 33.96.006c4.164-.012 6.897 1.787 6.858 6.09-.04 4.33-2.877 5.999-7.004 5.95-5.493-.063-10.987-.015-16.48-.015z"/><path class="g" d="M2249.499 519.005c-5.494 0-10.988-.04-16.48.013-4.142.04-6.94-1.689-6.94-6.013.001-4.31 2.777-6.043 6.925-6.028q16.98.06 33.96 0c4.096-.007 6.966 1.664 6.953 6.012-.012 4.307-2.804 6.07-6.939 6.042-5.826-.039-11.653-.01-17.48-.01z"/><path class="e" d="M846.024 591.021c-5.66 0-11.32-.031-16.98.01-4.13.032-6.936-1.71-6.961-6.02-.025-4.347 2.831-6.04 6.932-6.032 11.32.019 22.64.04 33.96-.003 4.143-.016 6.932 1.694 6.946 6.008.013 4.32-2.77 6.07-6.917 6.034-5.66-.05-11.32-.013-16.98-.013zM2249.52 591.01c-5.66-.007-11.32.005-16.98-.012-3.97-.011-6.455-1.955-6.468-5.972-.013-4.002 2.43-6.016 6.41-6.024q17.48-.034 34.96 0c3.923.01 6.484 1.923 6.484 5.966 0 4.002-2.464 6.01-6.427 6.039-5.992.042-11.986.01-17.979.003z"/><path class="f" d="M575.509 146.978c5.827 0 11.654.036 17.481-.012 4.148-.034 6.904 1.727 6.919 6.041.015 4.36-2.845 6.03-6.935 6.025q-16.982-.022-33.964 0c-4.094.004-6.943-1.681-6.919-6.04.024-4.316 2.791-6.064 6.935-6.026 5.494.051 10.988.013 16.483.012z"/><path class="e" d="M845.634 650.987c5.66.004 11.32-.035 16.98.016 4.844.045 7.595 2.278 7.35 6.116-.278 4.339-2.984 5.926-7.098 5.906-11.154-.053-22.308.023-33.461-.018-4.803-.018-7.456-2.297-7.402-6.134.053-3.77 2.69-5.837 7.65-5.88 5.327-.045 10.654-.01 15.981-.006zM2249.715 663.004c-5.66 0-11.321.073-16.98-.024-4.345-.075-7.017-2.557-6.7-6.255.347-4.011 2.812-5.753 6.75-5.743 11.487.028 22.974.007 34.46.005 3.905 0 6.589 1.749 6.676 5.788.093 4.27-2.538 6.25-6.727 6.246q-8.74-.007-17.48 0zM1853.911 555.015c-5.659.004-11.319.066-16.977-.017-3.971-.058-6.99-1.636-6.858-6.108.128-4.333 2.937-5.945 7.05-5.926 11.318.053 22.636.037 33.954.016 4.162-.008 6.897 1.84 6.84 6.125-.058 4.311-2.906 5.976-7.032 5.924-5.658-.071-11.317-.018-16.977-.014z"/><path class="d" d="M1782.426 542.985c5.66.005 11.319-.006 16.978.008 3.956.01 6.472 1.942 6.523 5.938.051 3.993-2.382 6.056-6.363 6.067-11.652.033-23.303.075-34.954-.02-3.76-.03-6.592-1.727-6.54-5.913.053-4.316 2.727-6.118 6.88-6.093 5.825.035 11.65.01 17.476.013zM846.37 555.015c-5.493.003-10.986.037-16.478-.006-5.334-.043-8.127-2.175-7.844-6.16.332-4.67 3.393-5.934 7.617-5.897 10.819.095 21.638.015 32.457.044 5.177.014 8.113 2.242 7.84 6.148-.326 4.654-3.377 5.993-7.614 5.897-5.324-.122-10.652-.03-15.979-.026zM2249.59 555.01h-16.977c-3.96 0-6.484-1.902-6.54-5.905-.057-3.987 2.375-6.083 6.348-6.099 11.651-.046 23.302-.024 34.954-.021 3.95 0 6.424 1.882 6.56 5.905.14 4.179-2.59 5.978-6.37 6.078-5.988.159-11.983.042-17.975.042zM846.367 614.985c5.492.003 10.986.055 16.478-.014 4.113-.052 6.984 1.598 7.073 5.902.09 4.285-2.617 6.156-6.795 6.147-11.319-.024-22.637.02-33.956-.013-3.93-.011-6.93-1.397-7.13-5.885-.172-3.88 2.51-6.082 7.353-6.127 5.658-.053 11.317-.013 16.977-.01z"/><path class="e" d="M1782 627.016c-5.659.004-11.319.055-16.977-.014-3.954-.048-7.02-1.545-6.947-6.024.071-4.325 2.83-6.025 6.961-6.01q16.977.062 33.955.008c4.142-.013 6.93 1.746 6.928 6.042-.002 4.304-2.799 6.049-6.943 6.007-5.659-.056-11.318-.014-16.977-.01z"/><path class="f" d="M1854.087 614.986c5.66.002 11.319.026 16.978-.006 4.158-.023 6.901 1.823 6.854 6.11-.048 4.31-2.888 5.96-7.016 5.94-11.151-.053-22.303.03-33.455-.031-4.966-.027-7.647-2.234-7.4-6.094.298-4.667 3.32-6.033 7.562-5.949 5.49.11 10.985.027 16.477.03zM2250.257 614.987q8.489-.007 16.977-.006c4.2-.004 6.758 1.98 6.694 6.265-.062 4.184-2.978 5.725-6.721 5.746q-17.476.098-34.953 0c-3.745-.015-6.079-2.025-6.183-5.747-.113-3.978 2.222-6.17 6.21-6.23 5.99-.09 11.984-.024 17.976-.028zM2250.104 470.985c5.659-.004 11.318.019 16.977-.012 4.16-.022 6.815 1.81 6.85 6.122.033 4.186-2.814 5.857-6.572 5.886-11.65.09-23.302.054-34.953.015-3.985-.014-6.403-2.105-6.333-6.095.069-3.999 2.602-5.904 6.554-5.91q8.738-.011 17.477-.006z"/><path class="d" d="M846.012 699.016c-5.66.004-11.319.054-16.977-.013-3.952-.047-7.025-1.532-6.96-6.013.064-4.323 2.814-6.036 6.95-6.022q16.976.06 33.954.007c4.139-.013 6.934 1.734 6.94 6.03.006 4.303-2.784 6.06-6.93 6.02-5.659-.055-11.318-.014-16.977-.01zM1781.86 699.015c-5.325.003-10.652.038-15.978-.006s-8.123-2.184-7.834-6.168c.339-4.673 3.405-5.926 7.627-5.889 10.818.095 21.637.015 32.456.044 5.172.014 8.11 2.25 7.83 6.158-.332 4.654-3.388 5.981-7.623 5.888-5.49-.122-10.985-.03-16.477-.027zM1854.225 686.985c5.66.004 11.32-.068 16.977.027 4.338.072 7.055 2.553 6.764 6.214-.319 4.006-2.755 5.799-6.701 5.792-11.318-.018-22.637.048-33.954-.022-4.901-.03-7.582-2.352-7.264-6.228.355-4.338 3.115-5.866 7.201-5.806 5.658.082 11.318.02 16.977.023zM2250.058 686.986c5.493-.003 10.986-.041 16.478.008 4.916.044 7.552 2.155 7.425 6.054-.145 4.489-3.114 5.941-7.055 5.956q-17.227.063-34.454-.005c-3.98-.011-6.42-2.059-6.38-6.052.042-3.997 2.553-5.94 6.51-5.952 5.825-.019 11.65-.005 17.476-.009z"/><path class="f" d="M1211.751 447c-3.829 0-7.66.063-11.487-.017-4.01-.083-6.318-2.246-6.194-6.232.116-3.724 2.439-5.718 6.192-5.74q11.737-.07 23.475 0c3.753.022 6.076 2.015 6.193 5.739.125 3.985-2.18 6.153-6.192 6.234-3.994.079-7.99.017-11.987.017z"/><path class="d" d="M639.077 146.996c2.996.005 5.997-.105 8.986.033 3.757.174 5.914 2.316 5.875 6.042-.04 3.739-2.27 5.836-6.022 5.901-5.99.104-11.986.163-17.973-.008-3.696-.106-5.943-2.26-5.87-6.038.072-3.726 2.256-5.793 6.017-5.916 2.993-.097 5.991-.02 8.987-.014z"/><path class="e" d="M512.702 158.984c-2.996 0-6.002.155-8.985-.04-3.77-.245-5.803-2.528-5.657-6.24.136-3.463 2.23-5.58 5.747-5.658 6.155-.136 12.317-.149 18.471.009 3.528.09 5.538 2.28 5.652 5.742.125 3.773-2.044 5.918-5.745 6.163-3.148.209-6.321.043-9.483.043z"/><path class="a" d="M1289.622 195.182v59.527h-59.168v-59.527M1289.622 195.182h-59.168M1302.34 196.283c12.959 1.624 23.468 14.286 23.641 28.19.18 14.43-10.133 27.362-23.641 29.282zM1217.735 196.323V253.5c-11.689-.271-23.203-13.502-23.713-27.134-.555-14.857 10.257-28.689 23.713-30.043zM1835.885 218.99c-46.328-.017-83.936-37.897-83.88-84.485.056-45.94 38.045-83.54 84.358-83.493 45.977.046 83.685 38.02 83.63 84.22-.053 46.076-37.911 83.777-84.108 83.759zM1806.206 362.585v-136.01c19.832 5.851 39.454 6.112 59.412-.117v136.127zM366.019 434.582v-5.86l-.003-165.93c0-18.934 12.742-31.764 31.574-31.781 16.326-.015 32.682.6 48.97-.19 13.784-.669 24.4 4.141 33.736 13.891a294.527 294.527 0 0023.437 21.69c10.045 8.433 22.109 12.03 35.099 12.46 11.92.395 21.093 9.077 21.015 20.164-.08 11.25-9.782 20.277-21.813 19.906-12.495-.386-23.242-5.25-32.36-13.717-6.222-5.777-12.41-11.594-18.499-17.51-4.86-4.723-10.334-6.666-16.782-3.917-6.3 2.687-8.468 7.845-8.456 14.48q.119 64.972.04 129.945v6.369zM785.755 434.82h-95.733v-5.931q0-65 .053-130c.017-6.771-1.868-12.134-8.355-15.08-5.964-2.709-11.42-1.316-17.176 4.172-6.148 5.862-12.26 11.763-18.524 17.5-9.45 8.655-20.565 13.453-33.474 13.467a20.536 20.536 0 01-20.419-20.359c-.137-11.042 8.485-19.511 20.156-19.68 18.62-.27 33.517-8.387 46.29-21.406 6.293-6.415 13.019-12.408 19.595-18.542 6.024-5.618 13.25-8 21.428-7.974 18.667.06 37.334-.036 56 .035A29.99 29.99 0 01785.97 261.5q.067 84.25.004 168.5c0 1.463-.129 2.927-.218 4.82zM1583.874 614.982c-26.266-.03-47.963-21.892-47.867-48.23.097-26.276 21.95-47.845 48.368-47.735 26.01.107 47.615 21.88 47.618 47.987a48.303 48.303 0 01-48.119 47.978zM1562.933 686.68v-63.04c14.095 4.364 27.931 4.648 42.055-.128v63.168zM2058.256 169.981v-59.965h5.96q54.955.001 109.91.006c11.613.003 15.865 4.307 15.86 15.984-.005 13.822.287 27.654-.205 41.459-.128 3.594-2.112 7.517-4.279 10.55-3.069 4.296-7.041 7.96-10.73 11.797a30.534 30.534 0 00-8.61 20.181c-.188 3.546-.707 7.026-4.418 8.106a9.047 9.047 0 01-6.823-.927c-3.167-2.178-3.829-5.96-2.324-9.433a57.557 57.557 0 016.202-11.11c2.338-3.192 5.496-5.78 8.262-8.664 3.262-3.402 4.726-7.373 2.69-11.847-1.99-4.375-5.716-6.17-10.516-6.157-19.484.055-38.968.021-58.452.02h-42.527zM2058.412 316.01h39.83c19.985 0 39.97-.058 59.955.04 5.292.026 9.624-1.362 11.697-6.603 2.003-5.066-.427-8.731-3.845-12.437-5.216-5.658-12.084-10.245-13.504-18.672a14.33 14.33 0 01-.424-4.424c.595-3.802 2.664-6.508 6.759-6.83a6.83 6.83 0 017.096 6.899c.207 10.506 4.646 18.824 12.189 25.839a48.165 48.165 0 017.69 8.488c1.895 2.89 3.851 6.404 3.944 9.695.417 14.81.214 29.64.167 44.462-.027 8.329-4.855 13.293-13.291 13.486-7.324.168-14.655.044-21.983.044l-90.433-.001h-5.847zM713.981 686.726h-59.735c-.083-1.862-.217-3.48-.218-5.1q-.02-38.22-.007-76.44c.004-9.56 4.517-14.156 14.003-14.178 14.489-.035 28.986-.255 43.461.188 3.464.107 7.233 1.974 10.188 4.01 3.795 2.613 7.035 6.092 10.292 9.416a32.79 32.79 0 0023.052 10.323c5.052.184 8.287 3.568 7.808 7.762-.45 3.95-4.692 6.748-9.385 6.21-6.912-.79-11.773-5.045-16.41-9.685-1.762-1.763-3.547-3.503-5.292-5.282-3.367-3.435-7.338-4.683-11.795-2.657-4.42 2.009-6.025 5.764-6.002 10.573.094 19.652.04 39.304.04 58.955zM1109.726 686.844h-59.719v-4.89q.007-53.46.02-106.922c.005-9.057 4.814-13.967 13.755-14.004 11.159-.047 22.318-.095 33.476.02 7.456.079 12.675 5.17 12.688 12.526q.102 55.21.017 110.42c0 .801-.13 1.602-.237 2.85zM942.019 686.582v-49.334c0-11.16-.07-22.32.02-33.479.058-7.172 5.074-12.595 12.035-12.7q17.985-.272 35.976.004c6.777.105 11.83 4.983 11.863 11.694.142 27.802.06 55.606.06 83.815zM1217.662 686.836h-59.642v-4.812q-.002-38.46 0-76.92c.005-9.132 4.98-14.076 14.205-14.1 10.989-.028 21.978-.08 32.966.026 7.409.073 12.737 5.217 12.759 12.494.082 26.972.03 53.944.014 80.916a22.528 22.528 0 01-.302 2.396zM1080.057 182.98a29.98 29.98 0 1129.924-29.914 30.131 30.131 0 01-29.924 29.914zM1440.025 123.021a29.98 29.98 0 11-30.006 29.826 30.097 30.097 0 0130.006-29.826zM413.927 188.976a27.098 27.098 0 01-26.884-27.027c.09-14.387 12.326-26.646 26.775-26.826 14.445-.179 27.183 12.465 27.155 26.954a27.202 27.202 0 01-27.046 26.899zM737.806 188.975a27.174 27.174 0 01-26.778-27.155c.127-14.302 12.586-26.66 26.914-26.697 14.532-.036 27.089 12.556 27.016 27.092a27.092 27.092 0 01-27.152 26.76zM2261.985 345.998a14.986 14.986 0 01-29.973-.008 14.887 14.887 0 0115.19-15.04 15.118 15.118 0 0114.783 15.048zM2246.814 155.047a14.904 14.904 0 01-14.804-14.947 15.292 15.292 0 0114.847-15.049c8.125-.063 15.245 7.155 15.127 15.335a15.06 15.06 0 01-15.17 14.66zM1079.845 518.977a14.98 14.98 0 1115.135-14.682 15.13 15.13 0 01-15.135 14.682zM1202.98 534.075a14.982 14.982 0 11-29.96-.358 14.982 14.982 0 0129.96.358zM971.629 548.97a15.017 15.017 0 01-14.609-15.196 14.985 14.985 0 1129.959.742 14.97 14.97 0 01-15.35 14.453zM683.696 548.97a15.017 15.017 0 01-14.676-15.13 14.984 14.984 0 1129.96.61 14.975 14.975 0 01-15.284 14.52zM1685.974 350.724a11.98 11.98 0 11-12.381-11.701 12.168 12.168 0 0112.381 11.701zM1685.978 279.112a11.983 11.983 0 11-11.998-12.089 12.161 12.161 0 0111.998 12.09zM1685.977 207.067a11.982 11.982 0 11-12.041-12.044 12.163 12.163 0 0112.041 12.044zM1685.974 134.755a11.98 11.98 0 11-12.35-11.732 12.165 12.165 0 0112.35 11.732z"/></svg>