<svg xmlns="http://www.w3.org/2000/svg" xmlns:xlink="http://www.w3.org/1999/xlink" viewBox="0 0 2327.688 848.9913"><defs><style>.a{fill:none;}.b{fill:#221025;}.c{fill:#8773ff;}.d{clip-path:url(#a);}</style><clipPath id="a"><polygon class="a" points="135.888 119.515 634.512 656.3 632.3 105.963 135.888 119.515"/></clipPath></defs><path class="b" d="M2269.8471,682.9252H1826.7286l-84.9,83.9651-83.965-83.965H57.8464V57.8464L0,0V739.8368H1633.6034l108.2254,109.1545,109.16-109.1545h476.699l-57.8407-56.9115Z"/><path class="c" d="M0,0,57.8463,57.8463H2269.8471V682.9252l57.8407,56.9115V0H0Z"/><path class="b" d="M171.0237,373.36c0-104.9082,84.2247-191.5254,191.2706-191.5254,105.416,0,190.7265,86.6172,190.7265,191.5254S467.71,565.4241,362.2943,565.4241C255.2484,565.4241,171.0237,478.2688,171.0237,373.36Zm296.1426,0c0-61.8691-42.9267-111.9023-105.415-111.9023-63.0322,0-104.8731,50.0332-104.8731,111.9023S298.7191,485.801,361.7513,485.801C424.24,485.801,467.1663,435.23,467.1663,373.36Z"/><path class="b" d="M827.9661,558.968,742.1116,428.7737H724.7239V558.968H639.4124V188.29H792.6458c86.9414,0,126.0645,61.331,126.0645,122.6621,0,52.1855-39.1231,102.2187-87.4844,112.9795L927.4046,558.968ZM724.7239,261.9954V362.0618h54.3379c37.4932,0,53.795-24.209,53.795-48.9571s-16.8458-51.1093-51.6221-51.1093Z"/><path class="b" d="M1010.54,558.968V188.29h85.3116V558.968Z"/><path class="b" d="M1182.7884,373.8977c0-105.4463,84.2246-192.0635,192.3574-192.0635,59.2285,0,110.85,24.7471,143.4522,63.4834l-63.0323,52.1856c-20.1045-23.1338-48.36-37.1221-80.42-37.1221-60.3154,0-106.5029,51.6475-106.5029,113.5166,0,60.7939,45.1006,116.207,109.22,116.207,41.84,0,88.0274-23.1338,88.0274-59.7177H1360.4739V362.0618h198.334c0,140.417-78.79,203.3623-178.7715,203.3623C1264.8392,565.4241,1182.7884,478.2688,1182.7884,373.8977Z"/><path class="b" d="M1639.221,558.968V188.29h85.3115V558.968Z"/><path class="b" d="M2030.9954,188.29h85.3106V558.968H2041.32L1918.5159,345.9221V558.968h-85.3115V188.29h78.2471l119.5439,210.3554Z"/><g class="d"><path class="c" d="M171.1729,373.7063c0-104.9082,84.2246-191.5254,191.2705-191.5254,105.416,0,190.7266,86.6172,190.7266,191.5254S467.8594,565.7708,362.4434,565.7708C255.3975,565.7708,171.1729,478.6155,171.1729,373.7063Zm296.1426,0c0-61.8691-42.9268-111.9023-105.415-111.9023-63.0323,0-104.8731,50.0332-104.8731,111.9023s41.8408,112.4414,104.8731,112.4414C424.3887,486.1477,467.3155,435.5764,467.3155,373.7063Z"/></g></svg>