<svg xmlns="http://www.w3.org/2000/svg" xmlns:xlink="http://www.w3.org/1999/xlink" viewBox="0 0 687.2403 848.9913"><defs><style>.a{fill:none;}.b{fill:#221025;}.c{fill:#8773ff;}.d{clip-path:url(#a);}</style><clipPath id="a"><polygon class="a" points="106.948 115.133 605.572 651.918 603.359 101.581 106.948 115.133"/></clipPath></defs><path class="b" d="M629.3994,682.9252H428.52L343.62,766.89l-83.965-83.965H57.8464V57.8464L0,0V739.8368H235.3948L343.62,848.9913,452.78,739.8368H687.24L629.4,682.9253Z"/><path class="c" d="M0,0,57.8463,57.8463H629.3994V682.9252L687.24,739.8367V0H0Z"/><path class="b" d="M142.233,369.6488c0-104.9082,84.2246-191.5254,191.27-191.5254,105.416,0,190.7265,86.6172,190.7265,191.5254S438.92,561.7133,333.5035,561.7133C226.4576,561.7133,142.233,474.558,142.233,369.6488Zm296.1426,0c0-61.8691-42.9268-111.9023-105.4151-111.9023-63.0322,0-104.873,50.0332-104.873,111.9023S269.9283,482.09,332.9605,482.09C395.4488,482.09,438.3756,431.5189,438.3756,369.6488Z"/><g class="d"><path class="c" d="M142.2328,369.3245c0-104.9082,84.2246-191.5254,191.2705-191.5254,105.416,0,190.7265,86.6172,190.7265,191.5254s-85.31,192.0644-190.7265,192.0644C226.4574,561.3889,142.2328,474.2336,142.2328,369.3245Zm296.1426,0c0-61.8692-42.9268-111.9024-105.4151-111.9024-63.0322,0-104.873,50.0332-104.873,111.9024S269.9281,481.7659,332.96,481.7659C395.4486,481.7659,438.3754,431.1946,438.3754,369.3245Z"/></g></svg>