<svg xmlns="http://www.w3.org/2000/svg" xmlns:xlink="http://www.w3.org/1999/xlink" viewBox="0 0 687.24034 848.99132"><defs><clipPath id="clip-path"><path d="M357.43491,186.594c84.99219,0,123.23926,60.55761,123.23926,121.11523,0,61.08789-38.24707,120.583-123.23926,120.583H289.972V552.594H206.57261v-366Zm-3.71875,168.92285c31.3418,0,43.02832-24.43457,43.02832-47.80762s-11.68652-48.33984-42.49707-48.33984H289.972v96.14746Z" fill="none"/></clipPath></defs><g id="Layer_1" data-name="Layer 1"><path d="M629.39942,682.92523H428.52l-84.89978,83.96506-83.965-83.965H57.84642V57.84638L.00012.00009V739.8368H235.39484L343.62023,848.99132,452.78039,739.8368H687.24034l-57.84075-56.91148Z" fill="#221025"/><path d="M0,0,57.8463,57.84633H629.39942v625.0789l57.84075,56.91149V0H.00012Z" fill="#27d0c0"/></g><g id="_1ST_RING" data-name="1ST RING"><path d="M357.43449,186.594c84.99218,0,123.23925,60.55762,123.23925,121.11523,0,61.08789-38.24707,120.583-123.23925,120.583H289.9716V552.594H206.57218v-366Zm-3.71875,168.92285c31.34179,0,43.02832-24.43457,43.02832-47.80762s-11.68653-48.33984-42.49707-48.33984H289.9716v96.14746Z" fill="#221025"/><g clip-path="url(#clip-path)"><polygon points="206.573 186.594 538.088 518.109 538.088 186.594 206.573 186.594" fill="#27d0c0"/></g></g></svg>