<svg xmlns="http://www.w3.org/2000/svg" xmlns:xlink="http://www.w3.org/1999/xlink" viewBox="0 0 2327.68802 848.99132"><defs><clipPath id="clip-path"><path d="M357.45776,186.594c84.99219,0,123.23926,60.55761,123.23926,121.11523,0,61.08789-38.24707,120.583-123.23926,120.583H289.99487V552.594H206.59546v-366ZM353.739,355.51688c31.3418,0,43.02832-24.43457,43.02832-47.80762s-11.68652-48.33984-42.49707-48.33984H289.99487v96.14746Z" fill="none"/></clipPath></defs><g id="Layer_1" data-name="Layer 1"><path d="M2269.8471,682.92523H1826.72858l-84.89978,83.96506-83.965-83.965H57.84642V57.84638L.00012.00009V739.8368H1633.60341L1741.8288,848.99132,1850.989,739.8368H2327.688l-57.84075-56.91148Z" fill="#221025"/><path d="M0,0,57.8463,57.84633H2269.8471v625.0789l57.84075,56.91149V0H.00012Z" fill="#27d0c0"/></g><g id="_1ST_RING" data-name="1ST RING"><path d="M357.45734,186.594c84.99219,0,123.23926,60.55762,123.23926,121.11523,0,61.08789-38.24707,120.583-123.23926,120.583H289.99445V552.594H206.595v-366Zm-3.71875,168.92285c31.34179,0,43.02832-24.43457,43.02832-47.80762s-11.68653-48.33984-42.49707-48.33984H289.99445v96.14746Z" fill="#221025"/><path d="M544.9671,369.32836c0-103.585,82.33692-189.1084,186.98438-189.1084,103.05371,0,186.45215,85.52344,186.45215,189.1084S835.00519,558.968,731.95148,558.968C627.304,558.968,544.9671,472.91332,544.9671,369.32836Zm289.50684,0c0-61.08789-41.96582-110.49023-103.05371-110.49023-61.62012,0-102.52246,49.40234-102.52246,110.49023,0,61.08887,40.90234,111.02149,102.52246,111.02149C792.50812,480.34985,834.47394,430.41723,834.47394,369.32836Z" fill="#221025"/><path d="M1336.98566,186.594h90.83594l-124.30176,366H1238.7132l-48.8711-185.92188L1142.56476,552.594h-65.33789l-123.23926-366h89.77344l67.46289,218.85644,45.15234-166.79785h68.52539l44.6211,167.86035Z" fill="#221025"/><path d="M1586.64679,479.8186h156.17383V552.594H1503.24738v-366h234.793v72.77539H1586.64679V334.8h132.80078v74.90039H1586.64679Z" fill="#221025"/><path d="M2025.41632,552.594l-83.93066-128.55176h-16.99805V552.594H1841.0882v-366H1990.888c84.99317,0,123.23926,60.55762,123.23926,121.11523,0,51.52637-38.24609,100.92871-85.52344,111.55274l94.02246,133.332ZM1924.48761,259.36938v98.80371h53.12012c36.65332,0,52.58984-23.9043,52.58984-48.33984,0-24.43457-16.46777-50.46387-50.46484-50.46387Z" fill="#221025"/><g clip-path="url(#clip-path)"><polygon points="206.595 186.594 538.111 518.109 538.111 186.594 206.595 186.594" fill="#27d0c0"/></g></g></svg>