<svg id="Layer_1" data-name="Layer 1" xmlns="http://www.w3.org/2000/svg" xmlns:xlink="http://www.w3.org/1999/xlink" viewBox="0 0 2141.87481 848.99132"><defs><clipPath id="clip-path"><path d="M478.0921,188.088v72.47852H381.80792V552.59487H298.74835V260.56655H202.46417V188.088Z" fill="none"/></clipPath></defs><path d="M2084.0339,682.92523H1826.72858l-84.89978,83.96506-83.965-83.965H57.84642V57.84638L.00012.00009V739.8368H1633.60341L1741.8288,848.99132,1850.989,739.8368h290.88585l-57.84074-56.91148Z" fill="#221025"/><path d="M0,0,57.8463,57.84633H2084.0339v625.0789l57.84074,56.91149V0H.00012Z" fill="#8773ff"/><path d="M478.0921,188.088v72.47852H381.80792V552.59487H298.74835V260.56655H202.46417V188.088Z"/><path d="M745.78351,552.59487,662.19562,424.56752H645.26593V552.59487H562.20734V188.088H711.39581c84.64649,0,122.73731,60.31055,122.73731,120.62012,0,51.31738-38.09082,100.51758-85.17578,111.09863L842.597,552.59487ZM645.26593,260.56655v98.40039h52.9043c36.50293,0,52.374-23.80664,52.374-48.14258,0-24.335-16.39941-50.25781-50.25781-50.25781Z"/><path d="M1158.96417,552.59487l-27.50976-84.64649H1003.42706l-26.98144,84.64649H887.56769L1022.472,188.088h90.46582l134.375,364.50684ZM1026.17609,396.00014h82L1066.91144,267.4435Z"/><path d="M1277.46906,369.548c0-102.63379,82.52929-187.80859,185.16308-187.80859a185.541,185.541,0,0,1,153.4209,80.94336l-64.543,44.96777c-19.04492-29.626-47.084-47.61328-85.1748-47.61328-61.36817,0-105.27832,49.20019-105.27832,109.51074s42.32226,111.09766,104.749,111.09766c38.62012,0,66.65918-17.98731,85.7041-47.61328l64.543,44.96777a185.541,185.541,0,0,1-153.4209,80.94336C1359.99835,558.9435,1277.46906,473.2394,1277.46906,369.548Z"/><path d="M1784.81769,480.11635H1940.3548v72.47852H1701.7591V188.088h233.835v72.47852H1784.81769v75.123h132.25976v74.59375H1784.81769Z"/><g clip-path="url(#clip-path)"><polygon points="202.464 260.868 443.748 502.152 540.558 151.738 188.933 96.137 202.464 260.868" fill="#8773ff"/></g></svg>