<?xml version="1.0" encoding="utf-8"?>
<!-- Generator: Adobe Illustrator 25.1.0, SVG Export Plug-In . SVG Version: 6.00 Build 0)  -->
<svg version="1.1" id="Layer_1" xmlns="http://www.w3.org/2000/svg" xmlns:xlink="http://www.w3.org/1999/xlink" x="0px" y="0px"
	 viewBox="0 0 2108.5 849" style="enable-background:new 0 0 2108.5 849;" xml:space="preserve">
<style type="text/css">
	.st0{enable-background:new    ;}
	.st1{fill:none;}
</style>
<g class="st0">
	<path d="M273.8,585.6c-2.6-2.6-3.8-5.5-3.8-9V311.4h-91.1c-3.4,0-6.4-1.3-9-3.8c-2.6-2.6-3.8-5.5-3.8-9v-54.8
		c0-3.8,1.3-6.8,3.8-9.2c2.6-2.4,5.5-3.6,9-3.6h275.5c3.8,0,6.8,1.2,9.2,3.6c2.4,2.4,3.6,5.5,3.6,9.2v54.8c0,3.8-1.2,6.8-3.6,9.2
		c-2.4,2.4-5.5,3.6-9.2,3.6h-91.1v265.2c0,3.4-1.2,6.4-3.6,9c-2.4,2.6-5.5,3.8-9.2,3.8h-67.6C279.4,589.5,276.4,588.2,273.8,585.6z"
		/>
	<path d="M539,585.6c-2.6-2.6-3.8-5.5-3.8-9V243.9c0-3.8,1.3-6.8,3.8-9.2c2.6-2.4,5.5-3.6,9-3.6h139.3c44.7,0,79.6,10.2,104.7,30.5
		c25.1,20.3,37.6,49.1,37.6,86.3c0,23.9-5.6,44.2-16.9,60.9c-11.3,16.7-26.8,29.5-46.6,38.4l70.1,126c1,2,1.5,3.9,1.5,5.6
		c0,2.7-1.1,5.2-3.3,7.4c-2.2,2.2-4.7,3.3-7.4,3.3h-68.1c-9.9,0-16.9-4.6-21-13.8L679.6,463h-52.2v113.7c0,3.8-1.3,6.8-3.8,9.2
		c-2.6,2.4-5.7,3.6-9.5,3.6h-66C544.6,589.5,541.6,588.2,539,585.6z M686.2,390.3c15.7,0,27.6-3.8,35.8-11.5
		c8.2-7.7,12.3-18.3,12.3-32c0-13.6-4-24.5-12-32.5c-8-8-20.1-12-36.1-12h-58.9v88.1H686.2z"/>
	<path d="M948.1,559.2c-27.1-23.6-40.7-59-40.7-106.5V243.9c0-3.8,1.3-6.8,3.8-9.2c2.6-2.4,5.5-3.6,9-3.6h66c3.8,0,6.9,1.2,9.5,3.6
		c2.6,2.4,3.8,5.5,3.8,9.2v208.4c0,22.2,5.2,38.8,15.6,49.9c10.4,11.1,25.5,16.6,45.3,16.6c19.5,0,34.5-5.6,45.1-16.9
		c10.6-11.3,15.9-27.8,15.9-49.7V243.9c0-3.8,1.3-6.8,3.8-9.2c2.6-2.4,5.5-3.6,9-3.6h66.6c3.8,0,6.8,1.2,9.2,3.6
		c2.4,2.4,3.6,5.5,3.6,9.2v208.9c0,47.4-13.6,82.9-40.7,106.5c-27.1,23.6-64.4,35.3-111.9,35.3
		C1012.9,594.6,975.3,582.8,948.1,559.2z"/>
	<path d="M1353.4,580.2c-23.2-9.6-40.7-22.1-52.5-37.6c-11.8-15.5-18-32.5-18.7-50.9c0-2.7,1.1-5.2,3.3-7.4c2.2-2.2,4.9-3.3,7.9-3.3
		h64.5c4.1,0,7.4,0.8,10,2.3c2.6,1.5,5.2,3.8,7.9,6.9c4.4,8.9,11.6,16.2,21.5,22c9.9,5.8,23,8.7,39.4,8.7c19.5,0,34.3-3.1,44.5-9.2
		c10.2-6.1,15.4-14.5,15.4-25.1c0-7.5-2.6-13.6-7.9-18.4c-5.3-4.8-13.6-9-24.8-12.8c-11.3-3.8-28-8-50.2-12.8
		c-41-8.5-71.6-21.1-91.9-37.6c-20.3-16.6-30.5-40.2-30.5-70.9c0-20.8,5.8-39.4,17.4-55.8c11.6-16.4,28.2-29.2,49.7-38.4
		s46.6-13.8,75.3-13.8c29.7,0,55.5,5.1,77.3,15.4c21.8,10.2,38.5,23.1,49.9,38.7c11.4,15.5,17.5,30.8,18.2,45.8c0,3.1-1,5.6-3.1,7.7
		s-4.6,3.1-7.7,3.1h-67.6c-4.1,0-7.4-0.7-10-2c-2.6-1.4-4.9-3.6-6.9-6.7c-2-7.8-7.6-14.5-16.6-20c-9-5.5-20.2-8.2-33.5-8.2
		c-15.4,0-27.1,2.7-35.3,8.2c-8.2,5.5-12.3,13.5-12.3,24.1c0,7.2,2.3,13.1,6.9,17.9c4.6,4.8,12.1,9.1,22.5,13.1
		c10.4,3.9,25.3,7.9,44.8,12c31.7,5.8,57.1,13.1,76,21.8c18.9,8.7,32.8,20,41.7,33.8c8.9,13.8,13.3,31.2,13.3,52
		c0,22.9-6.6,42.8-19.7,59.6c-13.1,16.9-31.4,29.9-54.8,38.9c-23.4,9-50.1,13.6-80.1,13.6C1404.4,594.6,1376.6,589.8,1353.4,580.2z"
		/>
	<path d="M1743.3,585.6c-2.6-2.6-3.8-5.5-3.8-9V311.4h-91.1c-3.4,0-6.4-1.3-9-3.8c-2.6-2.6-3.8-5.5-3.8-9v-54.8
		c0-3.8,1.3-6.8,3.8-9.2c2.6-2.4,5.5-3.6,9-3.6h275.5c3.8,0,6.8,1.2,9.2,3.6c2.4,2.4,3.6,5.5,3.6,9.2v54.8c0,3.8-1.2,6.8-3.6,9.2
		c-2.4,2.4-5.5,3.6-9.2,3.6h-91.1v265.2c0,3.4-1.2,6.4-3.6,9c-2.4,2.6-5.5,3.8-9.2,3.8h-67.6
		C1748.8,589.5,1745.8,588.2,1743.3,585.6z"/>
</g>
<rect x="2491.7" y="412.6" class="st1" width="0" height="3.1"/>
</svg>
