<?xml version="1.0" encoding="utf-8"?>
<!-- Generator: Adobe Illustrator 25.1.0, SVG Export Plug-In . SVG Version: 6.00 Build 0)  -->
<svg version="1.1" id="Layer_1" xmlns="http://www.w3.org/2000/svg" xmlns:xlink="http://www.w3.org/1999/xlink" x="0px" y="0px"
	 viewBox="0 0 687.2 849" style="enable-background:new 0 0 687.2 849;" xml:space="preserve">
<style type="text/css">
	.st0{enable-background:new    ;}
</style>
<g class="st0">
	<path d="M303.5,548.8c-2.6-2.6-3.8-5.5-3.8-9V274.6h-91.1c-3.4,0-6.4-1.3-9-3.8c-2.6-2.6-3.8-5.5-3.8-9V207c0-3.8,1.3-6.8,3.8-9.2
		c2.6-2.4,5.5-3.6,9-3.6H484c3.8,0,6.8,1.2,9.2,3.6c2.4,2.4,3.6,5.5,3.6,9.2v54.8c0,3.8-1.2,6.8-3.6,9.2c-2.4,2.4-5.5,3.6-9.2,3.6
		h-91.1v265.2c0,3.4-1.2,6.4-3.6,9c-2.4,2.6-5.5,3.8-9.2,3.8h-67.6C309.1,552.6,306.1,551.3,303.5,548.8z"/>
</g>
</svg>
