<svg id="Layer_1" data-name="Layer 1" xmlns="http://www.w3.org/2000/svg" xmlns:xlink="http://www.w3.org/1999/xlink" viewBox="0 0 2108.48731 848.99132"><defs><clipPath id="clip-path"><path d="M1902.54153,188.46579v72.40234H1806.357V552.59469h-82.97265V260.86813h-96.18555V188.46579Z" fill="none"/></clipPath></defs><path d="M478.806,188.466V260.8683H382.6214V552.59487H299.64874V260.8683H203.4632V188.466Z" fill="#221025"/><path d="M746.21515,552.59487l-83.501-127.89454H645.803V552.59487H562.83038V188.466H711.86359C796.42218,188.466,834.473,248.714,834.473,308.962c0,51.26172-38.05078,100.41211-85.08691,110.98243l93.543,132.65039ZM645.803,260.8683v98.29883h52.84863c36.46582,0,52.32032-23.78125,52.32032-48.0918s-16.38379-50.207-50.207-50.207Z" fill="#221025"/><path d="M930.12726,422.58705V188.466h82.97266v227.7793c0,45.97851,29.06738,63.94531,59.1914,63.94531,29.59473,0,58.66211-17.9668,58.66211-63.94531V188.466h82.97266V422.58705c0,84.0293-66.58985,136.34961-141.63477,136.34961C997.24542,558.93666,930.12726,506.61635,930.12726,422.58705Z" fill="#221025"/><path d="M1306.41144,446.3683h82.97266c0,23.25391,23.2539,41.22266,51.792,41.22266,26.95312,0,47.56445-13.74219,47.56445-37.52344,0-14.26953-7.92773-27.48047-40.165-38.05078l-43.33594-13.21289c-80.331-21.668-95.65722-70.81641-95.65722-105.168,0-65.5332,56.02051-111.51172,128.42285-111.51172,69.76074,0,123.13769,41.75,123.13769,112.56836h-82.97265c0-21.668-13.21192-40.166-41.75-40.166-25.89649,0-42.80762,17.4414-42.80762,37.52343,0,7.39844,2.11328,23.78125,35.93652,33.29493l38.05176,12.15429c51.792,15.85547,104.64063,42.2793,104.64063,108.33985,0,78.21679-67.64649,113.09765-134.23633,113.09765C1360.31769,558.93666,1306.41144,513.48549,1306.41144,446.3683Z" fill="#221025"/><path d="M1902.54132,188.466V260.8683h-96.18457V552.59487H1723.3841V260.8683h-96.18555V188.466Z" fill="#221025"/><path d="M2050.6464,682.92523H1826.72858l-84.89978,83.96506-83.965-83.965H57.84642V57.84638L.00012.00009V739.8368H1633.60341L1741.8288,848.99132,1850.989,739.8368h257.49835l-57.84074-56.91148Z" fill="#221025"/><path d="M0,0,57.8463,57.84633H2050.6464v625.0789l57.84074,56.91149V0H.00012Z" fill="#8773ff"/><g clip-path="url(#clip-path)"><polygon points="1627.199 260.868 1868.482 502.152 1965.293 151.738 1613.668 96.137 1627.199 260.868" fill="#8773ff"/></g></svg>